<?xml version="1.0" encoding="UTF-8" standalone="no"?>
<!-- Created with Inkscape (http://www.inkscape.org/) -->

<svg
   xmlns:dc="http://purl.org/dc/elements/1.1/"
   xmlns:cc="http://creativecommons.org/ns#"
   xmlns:rdf="http://www.w3.org/1999/02/22-rdf-syntax-ns#"
   xmlns:svg="http://www.w3.org/2000/svg"
   xmlns="http://www.w3.org/2000/svg"
   xmlns:sodipodi="http://sodipodi.sourceforge.net/DTD/sodipodi-0.dtd"
   xmlns:inkscape="http://www.inkscape.org/namespaces/inkscape"
   width="297mm"
   height="210mm"
   viewBox="0 0 297 210"
   version="1.1"
   id="svg19409"
   inkscape:version="0.92.2 (5c3e80d, 2017-08-06)"
   sodipodi:docname="fleuret_1.svg">
  <defs
     id="defs19403" />
  <sodipodi:namedview
     id="base"
     pagecolor="#ffffff"
     bordercolor="#666666"
     borderopacity="1.0"
     inkscape:pageopacity="0.0"
     inkscape:pageshadow="2"
     inkscape:zoom="1"
     inkscape:cx="774.43039"
     inkscape:cy="425.00595"
     inkscape:document-units="mm"
     inkscape:current-layer="layer1"
     showgrid="true"
     inkscape:pagecheckerboard="false"
     showborder="true"
     borderlayer="false"
     inkscape:showpageshadow="false">
    <inkscape:grid
       type="xygrid"
       id="grid19411"
       dotted="true" />
  </sodipodi:namedview>
  <metadata
     id="metadata19406">
    <rdf:RDF>
      <cc:Work
         rdf:about="">
        <dc:format>image/svg+xml</dc:format>
        <dc:type
           rdf:resource="http://purl.org/dc/dcmitype/StillImage" />
        <dc:title></dc:title>
      </cc:Work>
    </rdf:RDF>
  </metadata>
  <g
     inkscape:label="Layer 1"
     inkscape:groupmode="layer"
     id="layer1"
     transform="translate(0,-87)">
    <rect
       style="opacity:0.975;fill:none;fill-opacity:1;stroke:#008080;stroke-width:1;stroke-linecap:round;stroke-linejoin:round;stroke-miterlimit:4;stroke-dasharray:none;stroke-opacity:1;paint-order:stroke fill markers"
       id="rect19413"
       width="58.208332"
       height="58.208332"
       x="79.375"
       y="101.20834"
       ry="7.2760415" />
    <text
       xml:space="preserve"
       style="font-style:normal;font-weight:normal;font-size:10.58333302px;line-height:1.25;font-family:sans-serif;letter-spacing:0px;word-spacing:0px;fill:#000000;fill-opacity:1;stroke:none;stroke-width:1;stroke-miterlimit:4;stroke-dasharray:none"
       x="10.583333"
       y="132.95834"
       id="text19417"><tspan
         sodipodi:role="line"
         id="tspan19415"
         x="10.583333"
         y="132.95834"
         style="stroke-width:1;stroke-miterlimit:4;stroke-dasharray:none">Kategorija 1</tspan></text>
    <rect
       style="opacity:0.975;fill:none;fill-opacity:1;stroke:#008080;stroke-width:1;stroke-linecap:round;stroke-linejoin:round;stroke-miterlimit:4;stroke-dasharray:none;stroke-opacity:1;paint-order:stroke fill markers"
       id="rect19413-0"
       width="58.208332"
       height="58.208332"
       x="79.375"
       y="170.00002"
       ry="7.2760415" />
    <text
       xml:space="preserve"
       style="font-style:normal;font-weight:normal;font-size:10.58333302px;line-height:1.25;font-family:sans-serif;letter-spacing:0px;word-spacing:0px;fill:#000000;fill-opacity:1;stroke:none;stroke-width:1;stroke-miterlimit:4;stroke-dasharray:none"
       x="10.583335"
       y="201.75008"
       id="text19417-8"><tspan
         sodipodi:role="line"
         id="tspan19415-0"
         x="10.583335"
         y="201.75008"
         style="stroke-width:1;stroke-miterlimit:4;stroke-dasharray:none">Kategorija 2</tspan></text>
    <text
       xml:space="preserve"
       style="font-style:normal;font-weight:normal;font-size:10.58333302px;line-height:1.25;font-family:sans-serif;letter-spacing:0px;word-spacing:0px;fill:#000000;fill-opacity:1;stroke:none;stroke-width:1;stroke-miterlimit:4;stroke-dasharray:none"
       x="100.84397"
       y="244.08334"
       id="text19442"><tspan
         sodipodi:role="line"
         id="tspan19440"
         x="100.84397"
         y="244.08334"
         style="stroke-width:1;stroke-miterlimit:4;stroke-dasharray:none">#1</tspan></text>
    <text
       xml:space="preserve"
       style="font-style:normal;font-weight:normal;font-size:10.58333302px;line-height:1.25;font-family:sans-serif;letter-spacing:0px;word-spacing:0px;fill:#000000;fill-opacity:1;stroke:none;stroke-width:1;stroke-miterlimit:4;stroke-dasharray:none"
       x="169.32817"
       y="244.08334"
       id="text19446"><tspan
         sodipodi:role="line"
         id="tspan19444"
         x="169.32817"
         y="244.08334"
         style="stroke-width:1;stroke-miterlimit:4;stroke-dasharray:none">#4</tspan></text>
    <rect
       style="opacity:0.975;fill:none;fill-opacity:1;stroke:#008080;stroke-width:1;stroke-linecap:round;stroke-linejoin:round;stroke-miterlimit:4;stroke-dasharray:none;stroke-opacity:1;paint-order:stroke fill markers"
       id="rect19413-5"
       width="58.208332"
       height="58.208332"
       x="148.16667"
       y="101.20836"
       ry="7.2760415" />
    <rect
       style="opacity:0.975;fill:none;fill-opacity:1;stroke:#008080;stroke-width:1;stroke-linecap:round;stroke-linejoin:round;stroke-miterlimit:4;stroke-dasharray:none;stroke-opacity:1;paint-order:stroke fill markers"
       id="rect19413-0-9"
       width="58.208332"
       height="58.208332"
       x="148.16667"
       y="170.00002"
       ry="7.2760415" />
    <path
       style="fill:none;stroke:#000000;stroke-width:1;stroke-linecap:butt;stroke-linejoin:miter;stroke-opacity:1;stroke-miterlimit:4;stroke-dasharray:none"
       d="m 92.604166,109.14584 c 1.717966,0.41981 1.796245,0.47333 2.645833,1.32291 0.08819,0.0882 0.146259,0.22515 0.264583,0.26459 0.32393,0.10797 0.727403,-0.0827 1.058333,0 0.270569,0.0676 0.523182,0.19694 0.79375,0.26458 0.08556,0.0214 0.185701,-0.0394 0.264584,0 0.284419,0.14221 0.498504,0.41107 0.79375,0.52917 0.09473,0.0379 1.41002,0 1.587501,0 0.0882,0 0.20222,-0.0624 0.26458,0 0.0624,0.0624 -0.0624,0.20222 0,0.26458 0.70556,0.70556 0.44098,-0.26458 0.79375,0.79375 0.0558,0.16734 0,0.35278 0,0.52917 0,0.44097 0,0.88194 0,1.32292 0,0.0882 0,0.17638 0,0.26458 0,0.0882 -0.0624,0.20222 0,0.26458 0.13945,0.13945 0.34208,0.20222 0.52917,0.26459 0.0837,0.0279 0.20222,-0.0624 0.26458,0 0.0624,0.0624 -0.0624,0.20221 0,0.26458 0.54744,0.54743 -0.0214,-0.83655 0.52917,0.26458 0.0394,0.0789 0,0.17639 0,0.26459 0,0.0882 0,0.17638 0,0.26458 0,0.44097 0,0.88194 0,1.32292 0,1.16521 0,1.62378 0,3.175 0,0.26458 0.0837,0.54274 0,0.79375 -0.0394,0.11832 -0.17639,0.17638 -0.26458,0.26458 -0.0882,0.0882 -0.17639,0.17639 -0.26459,0.26458 -0.0882,0.0882 -0.2088,0.15303 -0.26458,0.26459 -0.0394,0.0789 0.0624,0.20221 0,0.26458 -0.0624,0.0624 -0.26458,0.0882 -0.26458,0 0,-0.0882 0.26458,-0.0882 0.26458,0 0,0.12472 -0.15303,0.2088 -0.26458,0.26458 -0.0225,0.0113 -1.03578,0.0113 -1.05834,0 -0.11156,-0.0558 -0.17639,-0.17639 -0.26458,-0.26458 -0.08819,-0.0882 -0.225143,-0.14626 -0.264585,-0.26458 -0.05578,-0.16734 0.07888,-0.37141 0,-0.52917 -0.03944,-0.0789 -0.202221,0.0624 -0.264583,0 -0.06367,-0.0637 0.06367,-0.99467 0,-1.05833 -0.06236,-0.0624 -0.202221,0.0624 -0.264583,0 -0.139449,-0.13945 -0.155192,-0.36508 -0.264584,-0.52917 -0.06919,-0.10378 -0.208803,-0.15303 -0.264583,-0.26458 -0.07888,-0.15777 0.124725,-0.40445 0,-0.52917 -0.06236,-0.0624 -0.202221,0.0624 -0.264583,0 -0.06236,-0.0624 0.03944,-0.1857 0,-0.26458 -0.550566,-1.10114 0.01826,0.28284 -0.529167,-0.26459 -0.06236,-0.0624 0.06236,-0.20222 0,-0.26458 -0.06236,-0.0624 -0.202221,0.0624 -0.264583,0 -0.06236,-0.0624 0,-0.17639 0,-0.26458 0,-0.79375 0,-1.5875 0,-2.38125 0,-0.0882 0,-0.17639 0,-0.26459 0,-0.0882 0.06236,-0.20222 0,-0.26458 -0.06236,-0.0624 -0.17639,0 -0.264584,0 -0.393811,0 -0.337711,-0.0395 -0.79375,0.26458 -0.103777,0.0692 -0.153024,0.20881 -0.264583,0.26459 -0.07888,0.0394 -0.1857,-0.0394 -0.264583,0 -0.111559,0.0558 -0.153025,0.2088 -0.264584,0.26458 -0.07888,0.0394 -0.202221,-0.0624 -0.264583,0 -0.139449,0.13944 -0.125135,0.38972 -0.264583,0.52917 -0.06236,0.0624 -0.202221,-0.0624 -0.264584,0 -0.139448,0.13944 -0.155191,0.36507 -0.264583,0.52916 -0.06919,0.10378 -0.17639,0.17639 -0.264583,0.26459 -0.08819,0.0882 -0.153025,0.2088 -0.264584,0.26458 -0.07888,0.0394 -0.1857,-0.0395 -0.264583,0 -0.05065,0.0253 -1.03301,1.00769 -1.058333,1.05833 -0.04026,0.0805 0,0.67459 0,0.79375 0,0.70556 0,1.41111 0,2.11667 0,0.13835 0.03478,0.98876 0,1.05833 -0.05578,0.11156 -0.208804,0.15303 -0.264583,0.26459 -0.03944,0.0789 0,0.17638 0,0.26458 -0.08819,0.17639 -0.155192,0.36508 -0.264584,0.52917 -0.06919,0.10377 -0.225142,0.14625 -0.264583,0.26458 -0.06382,0.19146 0.08722,0.97111 0,1.05833 -0.06236,0.0624 -0.17639,0 -0.264583,0 -0.705557,0 -1.411111,0 -2.116667,0 -0.272577,0 -1.773989,0.0391 -1.852083,0 -0.111559,-0.0558 -0.17639,-0.17639 -0.264584,-0.26458 -0.08819,-0.0882 -0.208804,-0.15303 -0.264583,-0.26458 -0.03944,-0.0789 0.03944,-0.1857 0,-0.26459 -0.05578,-0.11156 -0.208804,-0.15302 -0.264583,-0.26458 -0.03944,-0.0789 0.06236,-0.20222 0,-0.26458 -0.06236,-0.0624 -0.202221,0.0624 -0.264584,0 -0.139448,-0.13945 -0.17639,-0.35278 -0.264583,-0.52917 -0.08819,-0.17639 -0.202221,-0.34208 -0.264583,-0.52917 -0.02789,-0.0837 0.06236,-0.20222 0,-0.26458 -0.139449,-0.13945 -0.419775,-0.1005 -0.529167,-0.26458 -0.09784,-0.14677 0.05578,-0.36184 0,-0.52917 -0.03944,-0.11833 -0.208804,-0.15303 -0.264583,-0.26458 -0.105834,-0.21167 0.105833,-0.58209 0,-0.79375 -0.03944,-0.0789 -0.202221,0.0624 -0.264584,0 -0.06236,-0.0624 0.03944,-0.1857 0,-0.26459 -0.111559,-0.22312 -0.417607,-0.30605 -0.529166,-0.52916 -0.08033,-0.16067 0.08033,-1.42684 0,-1.5875 -0.550567,-1.10114 0.01826,0.28284 -0.529167,-0.26459 -0.139449,-0.13945 -0.125135,-0.38972 -0.264583,-0.52916 -0.322258,-0.32226 -0.591135,-0.12394 -0.79375,-0.52917 -0.03944,-0.0789 0.06236,-0.20222 0,-0.26458 -0.06236,-0.0624 -0.202221,0.0624 -0.264584,0 -0.139448,-0.13945 -0.202221,-0.34208 -0.264583,-0.52917 -0.02789,-0.0837 0.06236,-0.20222 0,-0.26458 -0.06236,-0.0624 -0.225142,0.0789 -0.264583,0 -0.03816,-0.0763 0,-1.4184 0,-1.5875 0,-0.52917 0,-1.05834 0,-1.58751 0,-0.0882 0,-0.17638 0,-0.26458 0,-0.0882 -0.03944,-0.1857 0,-0.26458 0.05578,-0.11156 0.195397,-0.16081 0.264583,-0.26459 0.109392,-0.16408 0.125135,-0.38971 0.264583,-0.52916 0.06236,-0.0624 0.17639,0 0.264584,0 0.529166,0 1.058333,0 1.5875,0 0.08819,0 0.202221,0.0624 0.264583,0 0.139449,-0.13945 0.125135,-0.38972 0.264583,-0.52917 0.02577,-0.0258 0.911035,0.0295 1.058334,0 0.273478,-0.0547 0.523181,-0.19694 0.79375,-0.26458 0.08556,-0.0214 0.176389,0 0.264583,0 0.440973,0 0.881943,0 1.322917,0 0.08819,0 0.176389,0 0.264583,0 0.08819,0 0.264583,-0.0882 0.264583,0 0,0.0882 -0.352777,0 -0.264583,0 0.17639,0 0.371401,0.0789 0.529167,0 0.157765,-0.0789 -0.07888,-0.3714 0,-0.52917 0.05578,-0.11156 0.208803,-0.15302 0.264583,-0.26458 0.03944,-0.0789 0,-0.17639 0,-0.26459 0,-0.41916 -0.07888,-0.71486 0.264583,-1.05833 0.06236,-0.0624 0.225142,0.0789 0.264584,0 0.07888,-0.15777 -0.07888,-0.3714 0,-0.52917 0.03944,-0.0789 0.176389,0 0.264583,0 0.352777,0 0.705556,0 1.058333,0 0.344268,0 1.056857,-0.006 1.058334,0 0.08556,0.34225 0,0.70556 0,1.05834 z"
       id="path19472"
       inkscape:connector-curvature="0" />
    <path
       style="fill:none;stroke:#000000;stroke-width:1;stroke-linecap:butt;stroke-linejoin:miter;stroke-opacity:1;stroke-miterlimit:4;stroke-dasharray:none"
       d="m 113.77084,135.60419 c 1.71796,0.41981 1.79624,0.47333 2.64583,1.32291 0.0882,0.0882 0.14626,0.22515 0.26459,0.26459 0.32393,0.10797 0.7274,-0.0827 1.05833,0 0.27057,0.0676 0.52318,0.19694 0.79375,0.26458 0.0856,0.0214 0.1857,-0.0394 0.26458,0 0.28442,0.14221 0.49851,0.41107 0.79375,0.52917 0.0947,0.0379 1.41003,0 1.58751,0 0.0882,0 0.20222,-0.0624 0.26458,0 0.0624,0.0624 -0.0624,0.20222 0,0.26458 0.70556,0.70556 0.44098,-0.26458 0.79375,0.79375 0.0558,0.16734 0,0.35278 0,0.52917 0,0.44097 0,0.88194 0,1.32292 0,0.0882 0,0.17638 0,0.26458 0,0.0882 -0.0624,0.20222 0,0.26458 0.13945,0.13945 0.34208,0.20222 0.52917,0.26459 0.0837,0.0279 0.20222,-0.0624 0.26458,0 0.0624,0.0624 -0.0624,0.20221 0,0.26458 0.54744,0.54743 -0.0214,-0.83655 0.52917,0.26458 0.0394,0.0789 0,0.17639 0,0.26459 0,0.0882 0,0.17638 0,0.26458 0,0.44097 0,0.88194 0,1.32292 0,1.16521 0,1.62378 0,3.175 0,0.26458 0.0837,0.54274 0,0.79375 -0.0394,0.11832 -0.17639,0.17638 -0.26458,0.26458 -0.0882,0.0882 -0.17639,0.17639 -0.26459,0.26458 -0.0882,0.0882 -0.2088,0.15303 -0.26458,0.26459 -0.0394,0.0789 0.0624,0.20221 0,0.26458 -0.0624,0.0624 -0.26458,0.0882 -0.26458,0 0,-0.0882 0.26458,-0.0882 0.26458,0 0,0.12472 -0.15303,0.2088 -0.26458,0.26458 -0.0225,0.0113 -1.03578,0.0113 -1.05834,0 -0.11156,-0.0558 -0.17639,-0.17639 -0.26458,-0.26458 -0.0882,-0.0882 -0.22515,-0.14626 -0.26459,-0.26458 -0.0558,-0.16734 0.0789,-0.37141 0,-0.52917 -0.0394,-0.0789 -0.20222,0.0624 -0.26458,0 -0.0637,-0.0637 0.0637,-0.99467 0,-1.05833 -0.0624,-0.0624 -0.20222,0.0624 -0.26459,0 -0.13944,-0.13945 -0.15519,-0.36508 -0.26458,-0.52917 -0.0692,-0.10378 -0.2088,-0.15303 -0.26458,-0.26458 -0.0789,-0.15777 0.12472,-0.40445 0,-0.52917 -0.0624,-0.0624 -0.20222,0.0624 -0.26459,0 -0.0624,-0.0624 0.0394,-0.1857 0,-0.26458 -0.55056,-1.10114 0.0183,0.28284 -0.52916,-0.26459 -0.0624,-0.0624 0.0624,-0.20222 0,-0.26458 -0.0624,-0.0624 -0.20222,0.0624 -0.26459,0 -0.0624,-0.0624 0,-0.17639 0,-0.26458 0,-0.79375 0,-1.5875 0,-2.38125 0,-0.0882 0,-0.17639 0,-0.26459 0,-0.0882 0.0624,-0.20222 0,-0.26458 -0.0624,-0.0624 -0.17639,0 -0.26458,0 -0.39381,0 -0.33771,-0.0395 -0.79375,0.26458 -0.10378,0.0692 -0.15302,0.20881 -0.26458,0.26459 -0.0789,0.0394 -0.1857,-0.0394 -0.26459,0 -0.11155,0.0558 -0.15302,0.2088 -0.26458,0.26458 -0.0789,0.0394 -0.20222,-0.0624 -0.26458,0 -0.13945,0.13944 -0.12514,0.38972 -0.26459,0.52917 -0.0624,0.0624 -0.20222,-0.0624 -0.26458,0 -0.13945,0.13944 -0.15519,0.36507 -0.26458,0.52916 -0.0692,0.10378 -0.1764,0.17639 -0.26459,0.26459 -0.0882,0.0882 -0.15302,0.2088 -0.26458,0.26458 -0.0789,0.0394 -0.1857,-0.0395 -0.26459,0 -0.0506,0.0253 -1.03301,1.00769 -1.05833,1.05833 -0.0403,0.0805 0,0.67459 0,0.79375 0,0.70556 0,1.41111 0,2.11667 0,0.13835 0.0348,0.98876 0,1.05833 -0.0558,0.11156 -0.2088,0.15303 -0.26458,0.26459 -0.0394,0.0789 0,0.17638 0,0.26458 -0.0882,0.17639 -0.15519,0.36508 -0.26459,0.52917 -0.0692,0.10377 -0.22514,0.14625 -0.26458,0.26458 -0.0638,0.19146 0.0872,0.97111 0,1.05833 -0.0624,0.0624 -0.17639,0 -0.26458,0 -0.70556,0 -1.41111,0 -2.11667,0 -0.27257,0 -1.77399,0.0391 -1.85208,0 -0.11156,-0.0558 -0.17639,-0.17639 -0.26459,-0.26458 -0.0882,-0.0882 -0.2088,-0.15303 -0.26458,-0.26458 -0.0394,-0.0789 0.0394,-0.1857 0,-0.26459 -0.0558,-0.11156 -0.20881,-0.15302 -0.26458,-0.26458 -0.0394,-0.0789 0.0624,-0.20222 0,-0.26458 -0.0624,-0.0624 -0.20223,0.0624 -0.26459,0 -0.13945,-0.13945 -0.17639,-0.35278 -0.26458,-0.52917 -0.0882,-0.17639 -0.20222,-0.34208 -0.26458,-0.52917 -0.0279,-0.0837 0.0624,-0.20222 0,-0.26458 -0.13945,-0.13945 -0.41978,-0.1005 -0.52917,-0.26458 -0.0978,-0.14677 0.0558,-0.36184 0,-0.52917 -0.0394,-0.11833 -0.20881,-0.15303 -0.26458,-0.26458 -0.10584,-0.21167 0.10583,-0.58209 0,-0.79375 -0.0394,-0.0789 -0.20223,0.0624 -0.26459,0 -0.0624,-0.0624 0.0394,-0.1857 0,-0.26459 -0.11156,-0.22312 -0.41761,-0.30605 -0.52916,-0.52916 -0.0803,-0.16067 0.0803,-1.42684 0,-1.5875 -0.55057,-1.10114 0.0183,0.28284 -0.52917,-0.26459 -0.13945,-0.13945 -0.12514,-0.38972 -0.26459,-0.52916 -0.32226,-0.32226 -0.59113,-0.12394 -0.79375,-0.52917 -0.0394,-0.0789 0.0624,-0.20222 0,-0.26458 -0.0624,-0.0624 -0.20222,0.0624 -0.26458,0 -0.13945,-0.13945 -0.20222,-0.34208 -0.26458,-0.52917 -0.0279,-0.0837 0.0624,-0.20222 0,-0.26458 -0.0624,-0.0624 -0.22515,0.0789 -0.26459,0 -0.0382,-0.0763 0,-1.4184 0,-1.5875 0,-0.52917 0,-1.05834 0,-1.58751 0,-0.0882 0,-0.17638 0,-0.26458 0,-0.0882 -0.0394,-0.1857 0,-0.26458 0.0558,-0.11156 0.1954,-0.16081 0.26459,-0.26459 0.10939,-0.16408 0.12513,-0.38971 0.26458,-0.52916 0.0624,-0.0624 0.17639,0 0.26458,0 0.52917,0 1.05834,0 1.58751,0 0.0882,0 0.20222,0.0624 0.26458,0 0.13945,-0.13945 0.12513,-0.38972 0.26458,-0.52917 0.0258,-0.0258 0.91104,0.0295 1.05834,0 0.27347,-0.0547 0.52318,-0.19694 0.79375,-0.26458 0.0856,-0.0214 0.17638,0 0.26458,0 0.44097,0 0.88194,0 1.32292,0 0.0882,0 0.17638,0 0.26458,0 0.0882,0 0.26458,-0.0882 0.26458,0 0,0.0882 -0.35278,0 -0.26458,0 0.17639,0 0.3714,0.0789 0.52917,0 0.15776,-0.0789 -0.0789,-0.3714 0,-0.52917 0.0558,-0.11156 0.2088,-0.15302 0.26458,-0.26458 0.0394,-0.0789 0,-0.17639 0,-0.26459 0,-0.41916 -0.0789,-0.71486 0.26459,-1.05833 0.0624,-0.0624 0.22514,0.0789 0.26458,0 0.0789,-0.15777 -0.0789,-0.3714 0,-0.52917 0.0394,-0.0789 0.17639,0 0.26458,0 0.35278,0 0.70556,0 1.05834,0 0.34426,0 1.05685,-0.006 1.05833,0 0.0856,0.34225 0,0.70556 0,1.05834 z"
       id="path19472-0"
       inkscape:connector-curvature="0" />
    <path
       style="fill:none;stroke:#000000;stroke-width:1;stroke-linecap:butt;stroke-linejoin:miter;stroke-opacity:1;stroke-miterlimit:4;stroke-dasharray:none"
       d="m 95.249999,183.22917 c -0.79375,0.44097 -1.625735,0.81924 -2.38125,1.32292 -0.03115,0.0208 0.04214,0.6252 0,0.79375 -0.04783,0.19132 -0.202221,0.34208 -0.264583,0.52916 -0.05673,0.1702 0.06571,0.95978 0,1.05834 -0.138372,0.20755 -0.436523,0.29755 -0.529167,0.52916 -0.04747,0.11868 0,1.50862 0,1.85209 0,0.0882 0,0.17639 0,0.26458 0,0.0882 -0.06236,0.20222 0,0.26458 0.06236,0.0624 0.202221,-0.0624 0.264583,0 0.139449,0.13945 0.146259,0.3714 0.264584,0.52917 0.149672,0.19956 0.390794,0.32161 0.529166,0.52917 0.09784,0.14676 -0.124724,0.40444 0,0.52916 0.139449,0.13945 0.419775,0.1005 0.529167,0.26459 0.05256,0.0788 0,1.41372 0,1.5875 0,0.88194 0,1.76389 0,2.64583 0,0.0882 0.06236,0.20222 0,0.26458 -0.06236,0.0624 -0.225142,-0.0789 -0.264584,0 -0.07888,0.15777 0.05578,0.36183 0,0.52917 -0.03944,0.11833 -0.208803,0.15303 -0.264583,0.26458 -0.03944,0.0789 0.06236,0.20222 0,0.26459 -0.06236,0.0624 -0.17639,0 -0.264583,0 -0.17639,0 -0.352777,0 -0.529167,0 -0.529166,0 -1.058333,0 -1.5875,0 -0.08819,0 -0.17639,0 -0.264583,0 -0.08819,0 -0.185701,-0.0395 -0.264583,0 -0.223116,0.11155 -0.321612,0.39079 -0.529167,0.52916 -0.164087,0.10939 -0.352777,0.17639 -0.529167,0.26459 -0.17639,0.17639 -0.329604,0.37949 -0.529166,0.52916 -0.488763,0.36658 -1.479659,0.42133 -1.852084,0.79375 -0.06236,0.0624 0.07888,0.22514 0,0.26459 -0.157766,0.0789 -0.371401,-0.0789 -0.529166,0 -0.07888,0.0394 0,0.17639 0,0.26458 0,0.0882 0,0.17639 0,0.26458 0,0.61736 0,1.23472 0,1.85209 0,1.85208 0,3.70416 0,5.55625 0,0.70555 0,1.41111 0,2.11666 0,0.52958 -0.163899,1.15902 0.264583,1.5875 0.06236,0.0624 0.202221,-0.0624 0.264583,0 0.071,0.071 -0.06211,0.87199 0,1.05834 0.352777,1.05833 0.08819,0.0882 0.79375,0.79375 0.06236,0.0624 -0.06236,0.20222 0,0.26458 0.06236,0.0624 0.202221,0.0624 0.264584,0 0.04106,-0.0411 -0.03432,-0.69079 0,-0.79375 0.06236,-0.18709 0.202221,-0.34208 0.264583,-0.52917 0.05714,-0.17142 0,-1.1063 0,-1.32291 0,-1.05834 0,-2.11667 0,-3.175 0,-0.0972 -0.01064,-1.04769 0,-1.05834 0.06236,-0.0624 0.1857,0.0395 0.264583,0 0.111559,-0.0558 0.146259,-0.22514 0.264584,-0.26458 0.15051,-0.0502 1.073721,0 1.322916,0 0.08819,0 0.17639,0 0.264584,0 0.08819,0 0.215661,0.0734 0.264583,0 0.154704,-0.23205 0.109879,-0.5617 0.264583,-0.79375 0.04892,-0.0734 0.17639,0 0.264584,0 0.08819,-0.0882 0.208803,-0.15303 0.264583,-0.26458 0.182478,-0.36496 -0.320424,-0.23667 0.264583,-0.52917 0.07888,-0.0394 0.17639,0 0.264584,0 0.08819,0 0.176389,0 0.264583,0 0.457414,0 0.619979,0.0277 1.058333,-0.26458 0.30529,-0.20353 0.488461,-0.59023 0.79375,-0.79375 0.164087,-0.10939 0.371401,-0.14626 0.529167,-0.26459 0.199562,-0.14967 0.306051,-0.41761 0.529166,-0.52916 0.157766,-0.0789 0.358045,0.0428 0.529167,0 0.470371,-0.1176 0.676159,-0.32338 0.79375,-0.79375 0.0503,-0.20121 0,-1.10136 0,-1.32292 0,-0.0882 0.06236,-0.20222 0,-0.26458 -0.06236,-0.0624 -0.202221,0.0624 -0.264583,0 -0.06236,-0.0624 0.03944,-0.1857 0,-0.26459 -0.05578,-0.11155 -0.208804,-0.15302 -0.264584,-0.26458 -0.03944,-0.0789 0.06236,-0.20222 0,-0.26458 -0.06236,-0.0624 -0.225141,0.0789 -0.264583,0 -0.105833,-0.21167 0.105833,-0.58209 0,-0.79375 -0.05578,-0.11156 -0.208804,-0.15303 -0.264583,-0.26459 -0.03944,-0.0789 0.06236,-0.20222 0,-0.26458 -0.06236,-0.0624 -0.202221,0.0624 -0.264584,0 -0.06236,-0.0624 0,-0.17639 0,-0.26458 0,-0.14768 -0.04037,-1.2018 0,-1.32292 0.03944,-0.11833 0.208804,-0.15303 0.264584,-0.26458 0.03944,-0.0789 -0.07888,-0.22514 0,-0.26459 0.157766,-0.0789 0.371401,0.0789 0.529166,0 0.07888,-0.0394 -0.06236,-0.20222 0,-0.26458 0.124725,-0.12473 0.404443,0.12473 0.529167,0 0.06236,-0.0624 -0.06236,-0.20222 0,-0.26458 0.322257,-0.32226 0.591135,-0.12394 0.79375,-0.52917 0.03944,-0.0789 -0.02138,-0.17902 0,-0.26458 0.550566,-2.20227 -0.01826,0.31938 0.529167,-1.32292 0.02789,-0.0837 -0.06236,-0.20222 0,-0.26458 0.06236,-0.0624 0.202221,0.0624 0.264583,0 0.06236,-0.0624 -0.02789,-0.18092 0,-0.26459 0.06236,-0.18708 0.125135,-0.38972 0.264583,-0.52916 0.06236,-0.0624 0.17639,0 0.264584,0 0.08819,0 0.17639,0 0.264583,0 1.146527,0 2.293058,0 3.439588,0 0.0882,0 0.17639,0 0.26458,0 0.17639,0 0.45028,0.15776 0.52917,0 0.52916,-1.05834 -0.26459,-0.79375 0,-1.5875 0.0394,-0.11833 0.23433,-0.14358 0.26458,-0.26459 0.0521,-0.20825 0,-1.84589 0,-2.11666 0,-0.026 0.0136,-1.56022 0,-1.5875 -0.0394,-0.0789 -0.20222,0.0624 -0.26458,0 -0.0624,-0.0624 0.0624,-0.20222 0,-0.26459 -0.13945,-0.13944 -0.36007,-0.16312 -0.52917,-0.26458 -0.39314,-0.23589 -1.04598,-0.64293 -1.32292,-1.05833 -0.0489,-0.0734 0.0394,-0.1857 0,-0.26459 -0.0558,-0.11155 -0.1954,-0.1608 -0.26458,-0.26458 -0.10939,-0.16409 -0.17639,-0.35278 -0.26458,-0.52917 -0.0882,-0.17639 -0.20223,-0.34208 -0.26459,-0.52916 -0.0554,-0.16607 0,-0.84534 0,-1.05834 0,-0.18402 0.0478,-1.22723 0,-1.32291 -0.0558,-0.11156 -0.14626,-0.30403 -0.26458,-0.26459 -0.236653,0.0789 -0.352778,0.35278 -0.529168,0.52917 -0.08819,0.0882 -0.208804,0.15303 -0.264583,0.26458 -0.03944,0.0789 0,0.17639 0,0.26459 0,0.17639 0.09784,0.3824 0,0.52916 -0.109392,0.16409 -0.389718,0.12514 -0.529167,0.26459 -0.06236,0.0624 0.02789,0.18091 0,0.26458 -0.06236,0.18709 -0.155191,0.36508 -0.264583,0.52917 -0.06919,0.10378 -0.225142,0.14625 -0.264584,0.26458 -0.05578,0.16734 0.07888,0.3714 0,0.52917 -0.03944,0.0789 -0.176389,0 -0.264583,0 -0.08819,0.0882 -0.225142,0.14625 -0.264583,0.26458 -0.05578,0.16734 0.07888,0.3714 0,0.52917 -0.03944,0.0789 -0.185701,-0.0395 -0.264584,0 -0.111558,0.0558 -0.153024,0.2088 -0.264583,0.26458 -0.07888,0.0394 -0.17639,0 -0.264583,0 -0.08819,0 -0.17639,0 -0.264584,0 -0.08819,0 -0.176389,0 -0.264583,0 -0.08819,0 -0.202221,0.0624 -0.264583,0 -0.06236,-0.0624 0.03944,-0.1857 0,-0.26458 -0.05578,-0.11156 -0.208804,-0.15303 -0.264584,-0.26459 -0.106153,-0.2123 0.08853,-0.57243 0,-0.79375 -0.146483,-0.36621 -0.352776,-0.70555 -0.529166,-1.05833 z"
       id="path19489"
       inkscape:connector-curvature="0" />
    <path
       style="fill:none;stroke:#000000;stroke-width:1;stroke-linecap:butt;stroke-linejoin:miter;stroke-opacity:1;stroke-miterlimit:4;stroke-dasharray:none"
       d="m 127,191.16667 c -2.19094,1.09547 -1.08786,0.21575 -2.11667,1.5875 -0.0748,0.0998 -0.22514,0.14626 -0.26458,0.26458 -0.0558,0.16734 0,0.35278 0,0.52917 0,0.0882 0.0394,0.1857 0,0.26458 -0.0558,0.11156 -0.20881,0.15303 -0.26458,0.26459 -0.0395,0.0789 0.0394,0.1857 0,0.26458 -0.0558,0.11156 -0.20881,0.15303 -0.26459,0.26458 -0.0394,0.0789 0.0394,0.1857 0,0.26459 -0.0558,0.11155 -0.22514,0.14625 -0.26458,0.26458 -0.0558,0.16734 0,0.35278 0,0.52917 0,0.0882 -0.0279,0.18091 0,0.26458 0.0624,0.18709 0.44097,0.44097 0.26458,0.52917 -0.17639,0.0882 -0.26458,-0.72638 -0.26458,-0.52917 0,0.36363 0.12953,0.72071 0.26458,1.05833 0.0463,0.11581 0.22514,0.14626 0.26459,0.26459 0.0558,0.16733 -0.0558,0.36183 0,0.52916 0.0394,0.11833 0.2088,0.15303 0.26458,0.26459 0.0394,0.0789 0,0.17639 0,0.26458 0,0.0882 0,0.17639 0,0.26458 0,0.26459 0.11832,0.5571 0,0.79375 -0.0394,0.0789 -0.18092,-0.0279 -0.26458,0 -0.18709,0.0624 -0.36508,0.1552 -0.52917,0.26459 -0.10378,0.0692 -0.16481,0.18974 -0.26458,0.26458 -0.2544,0.19079 -0.53936,0.33837 -0.79375,0.52917 -0.29935,0.2245 -0.50157,0.56 -0.79375,0.79375 -0.24831,0.19864 -0.54545,0.33052 -0.79375,0.52916 -0.19479,0.15583 -0.32162,0.3908 -0.52917,0.52917 -0.14677,0.0978 -0.3714,-0.0789 -0.52917,0 -0.11156,0.0558 -0.15302,0.20881 -0.26458,0.26458 -0.0789,0.0395 -0.20222,-0.0624 -0.26458,0 -0.0624,0.0624 0,0.17639 0,0.26459 0,0.4657 -0.21884,0.52916 0.26458,0.52916 0.0882,0 0.18091,0.0279 0.26458,0 0.17639,-0.0882 0.35278,-0.17639 0.52917,-0.26458 0,-0.0882 -0.0624,-0.20222 0,-0.26458 0.12472,-0.12473 0.3714,0.0789 0.52917,0 0.11155,-0.0558 0.15302,-0.20881 0.26458,-0.26459 0.0789,-0.0394 0.20222,0.0624 0.26458,0 0.0624,-0.0624 -0.0624,-0.20222 0,-0.26458 0.0624,-0.0624 0.17639,0 0.26459,0 0.22709,0 1.43269,0.0516 1.5875,0 0.11832,-0.0394 0.15302,-0.20881 0.26458,-0.26458 0.20665,-0.10333 1.09173,-0.29798 1.32292,-0.52917 0.0624,-0.0624 -0.0624,-0.20222 0,-0.26458 0.13944,-0.13945 0.38971,-0.12514 0.52916,-0.26459 0.0637,-0.0637 -0.0637,-0.99466 0,-1.05833 0.0624,-0.0624 0.20222,0.0624 0.26459,0 0.0624,-0.0624 -0.0395,-0.1857 0,-0.26458 0.11155,-0.22312 0.4176,-0.30605 0.52916,-0.52917 0.32583,-0.65166 -0.76801,0.23885 0.26459,-0.79375 0.0624,-0.0624 0.1857,0.0394 0.26458,0 0.11156,-0.0558 0.15302,-0.20881 0.26458,-0.26458 0.0789,-0.0394 0.17639,0 0.26459,0 0.14224,0 1.95138,0.0551 2.11666,0 0.11833,-0.0394 0.17639,-0.17639 0.26459,-0.26459 0.26458,-0.0882 0.52318,-0.19694 0.79375,-0.26458 0.0856,-0.0214 0.17638,0 0.26458,0 0.17639,-0.0882 0.34208,-0.20222 0.52917,-0.26458 0.0837,-0.0279 0.17638,0 0.26458,0 0.32583,0 0.48972,0.0394 0.79375,-0.26459 0.0624,-0.0624 -0.0624,-0.20222 0,-0.26458 0.0624,-0.0624 0.20222,0.0624 0.26458,0 0.0624,-0.0624 0,-0.17639 0,-0.26458 0,-0.17639 0,-0.35278 0,-0.52917 0,-0.26458 0.0642,-0.53707 0,-0.79375 -0.0302,-0.121 -0.1954,-0.1608 -0.26458,-0.26458 -0.10939,-0.16409 -0.21675,-0.33785 -0.26459,-0.52917 0,-0.17639 0,-0.35278 0,-0.52917 -0.0882,0 -0.22514,0.0789 -0.26458,0 -0.0789,-0.15776 0,-0.35277 0,-0.52916 0,-0.44098 0,-0.88195 0,-1.32292 0,-0.17639 0,-0.35278 0,-0.52917 0,-0.0882 0.0624,-0.20222 0,-0.26458 -0.13945,-0.13945 -0.38972,-0.12514 -0.52916,-0.26458 -0.0624,-0.0624 0,-0.17639 0,-0.26459 0,-0.0882 0,-0.17639 0,-0.26458 0,-0.52917 0,-1.05833 0,-1.5875 0,-0.0882 0,-0.17639 0,-0.26458 0,-0.0882 0.0394,-0.1857 0,-0.26459 -0.0558,-0.11155 -0.17639,-0.17639 -0.26459,-0.26458 0,-0.17639 0.0558,-0.36183 0,-0.52917 -0.0789,-0.23665 -0.39079,-0.32161 -0.52916,-0.52916 -0.1094,-0.16409 -0.20223,-0.34208 -0.26459,-0.52917 -0.1161,-0.34831 0.20261,-0.56015 -0.26458,-0.79375 -0.0789,-0.0394 -0.1857,-0.0394 -0.26458,0 -0.10948,0.0547 -0.71899,0.6816 -0.79375,0.79375 -0.1094,0.16409 -0.20223,0.34208 -0.26459,0.52917 -0.0279,0.0837 0,0.17639 0,0.26458 -0.0882,0.0882 -0.2088,0.15303 -0.26458,0.26458 -0.0789,0.15777 0.0558,0.36183 0,0.52917 -0.0624,0.18709 -0.20222,0.34208 -0.26458,0.52917 -0.0279,0.0837 0.0394,0.1857 0,0.26458 -0.0558,0.11156 -0.20881,0.15303 -0.26459,0.26458 -0.0297,0.0593 0,0.99547 0,1.05834 0,0.52916 0,1.05833 0,1.5875 0,0.0882 0,0.17639 0,0.26458 0,0.0882 0.0624,0.20222 0,0.26458 -0.26827,0.26827 -0.61812,-0.47138 -1.05833,-1.05833 z"
       id="path19491"
       inkscape:connector-curvature="0" />
    <path
       style="fill:none;stroke:#000000;stroke-width:1;stroke-linecap:butt;stroke-linejoin:miter;stroke-opacity:1;stroke-miterlimit:4;stroke-dasharray:none"
       d="m 174.625,109.14584 c -3.12036,1.20013 -3.77814,1.65772 -7.14375,2.11666 -0.69909,0.0953 -1.41233,-0.0414 -2.11667,0 -2.84647,0.16744 -1.80377,0.32193 -4.49792,0.52917 -0.79141,0.0609 -1.5875,0 -2.38125,0 -0.0882,0 -0.17639,0 -0.26458,0 -0.0882,0 -0.20222,-0.0624 -0.26458,0 -0.012,0.012 0,1.19817 0,1.32292 0,0.59775 -0.0394,-0.11833 0.26458,0.79375 0.0279,0.0837 -0.0624,0.20222 0,0.26458 0.0624,0.0624 0.22514,-0.0789 0.26458,0 0.0789,0.15777 0,0.35278 0,0.52917 0,0.0882 -0.0624,0.20222 0,0.26458 0.13945,0.13945 0.38972,0.12514 0.52917,0.26459 0.0624,0.0624 -0.0394,0.18569 0,0.26458 0.0558,0.11156 0.20881,0.15302 0.26458,0.26458 0.0395,0.0789 -0.0279,0.18092 0,0.26459 0.63883,1.91648 -0.0763,-0.41715 0.52917,0.79375 0.0394,0.0789 -0.0394,0.18569 0,0.26458 0.0558,0.11156 0.20881,0.15302 0.26458,0.26458 0.0831,0.1663 -0.0831,0.89204 0,1.05834 0.14439,0.28876 0.56357,0.39105 0.79375,0.52916 0.27268,0.1636 0.50148,0.4039 0.79375,0.52917 0.94883,0.40664 1.91299,0.79235 2.91042,1.05833 0.34087,0.0909 0.70556,0 1.05833,0 0.70556,0 1.41111,0 2.11667,0 0.17639,0 0.35278,0 0.52917,0 0.0882,0 0.20222,-0.0624 0.26458,0 0.0624,0.0624 0,0.17639 0,0.26459 0,0.11915 0.0403,0.71322 0,0.79375 -0.0558,0.11155 -0.17639,0.17638 -0.26458,0.26458 -0.0882,0.0882 -0.15763,0.20041 -0.26459,0.26458 -0.3382,0.20293 -0.72012,0.32624 -1.05833,0.52917 -0.10695,0.0642 -0.15302,0.2088 -0.26458,0.26458 -0.4248,0.2124 -0.89812,0.31677 -1.32292,0.52917 -0.28442,0.14221 -0.51766,0.3714 -0.79375,0.52917 -0.34245,0.19568 -0.70556,0.35277 -1.05833,0.52916 -0.17639,0.0882 -0.38972,0.12514 -0.52917,0.26459 -0.13945,0.13944 -0.12513,0.38971 -0.26458,0.52916 -0.13945,0.13945 -0.38972,0.12514 -0.52917,0.26459 -0.0624,0.0624 0,0.17638 0,0.26458 0,0.17639 0,0.35278 0,0.52917 0,0.70555 0,1.41111 0,2.11666 0,0.11916 -0.0403,0.71323 0,0.79375 0.0558,0.11156 0.20881,0.15303 0.26458,0.26459 0.0363,0.0726 0.0119,1.53977 0,1.5875 -0.0478,0.19132 -0.26458,0.33195 -0.26458,0.52916 0,0.21514 0.37105,0.34365 0.52917,0.26459 0.11156,-0.0558 0.14878,-0.21827 0.26458,-0.26459 0.75408,-0.30163 1.35052,-0.26458 2.11667,-0.26458 0.0882,0 0.20222,-0.0624 0.26458,0 0.0624,0.0624 0,0.17639 0,0.26458 0,0.0882 0,0.17639 0,0.26459 0,0.0882 0,0.17638 0,0.26458 0,0.0882 0.0394,0.1857 0,0.26458 -0.0558,0.11156 -0.17639,0.17639 -0.26458,0.26459 -0.17639,0.17638 -0.32161,0.39079 -0.52917,0.52916 -0.0734,0.0489 -0.1857,-0.0394 -0.26458,0 -0.32695,0.16347 -0.26459,0.25545 -0.26459,0.52917 0,0.0642 0.009,0.78524 0,0.79375 -0.13944,0.13944 -0.41977,0.10049 -0.52916,0.26458 -0.0676,0.10147 0.0757,1.43601 0,1.5875 -0.0558,0.11156 -0.20881,0.15303 -0.26459,0.26459 -0.0403,0.0805 0,0.67459 0,0.79375 0,0.20198 -0.0556,1.42079 0,1.5875 0.0624,0.18708 0.20223,0.34207 0.26459,0.52916 0.0837,0.25101 -0.0642,0.53707 0,0.79375 0.0478,0.19132 0.21675,0.33785 0.26458,0.52917 0.0428,0.17112 -0.0789,0.3714 0,0.52917 0.0394,0.0789 0.20222,-0.0624 0.26458,0 2.6e-4,2.5e-4 -5.2e-4,0.79254 0,0.79375 0.0394,0.11832 0.1954,0.1608 0.26459,0.26458 0.10939,0.16409 0.20222,0.34208 0.26458,0.52917 0.0279,0.0837 -0.0624,0.20221 0,0.26458 0.0327,0.0327 0.89242,0 1.05833,0 0.61736,0 1.23473,0 1.85209,0 0.17639,0 0.3562,0.0346 0.52916,0 1.16033,-0.23207 0.48552,-0.0996 1.05834,-0.52917 0.25439,-0.19079 0.52916,-0.35278 0.79375,-0.52916 0.26458,-0.17639 0.56889,-0.30432 0.79375,-0.52917 0.13945,-0.13945 0.20222,-0.34208 0.26458,-0.52917 0.95972,-2.87914 -0.19451,0.44337 0.26458,-1.85208 0.0387,-0.19338 0.19135,-0.34607 0.26459,-0.52917 0.10358,-0.25895 0.20989,-0.52027 0.26458,-0.79375 0.0346,-0.17296 -0.17639,-0.52916 0,-0.52916 0.36433,0 0.24592,0.94636 0.26458,1.05833 0.16543,0.99255 0.27753,0.97132 0.52917,1.85208 0.0999,0.34964 0.1601,0.71004 0.26458,1.05834 0.16028,0.53426 0.39389,1.04636 0.52917,1.5875 0.0428,0.17112 -0.0789,0.37139 0,0.52916 0.0789,0.15777 0.3714,-0.0789 0.52917,0 0.11156,0.0558 0.14878,0.21826 0.26458,0.26459 1.43163,0.57265 0.60985,0.0871 1.85208,0.26458 0.35999,0.0514 0.69836,0.21315 1.05834,0.26458 0.69846,0.0998 1.41656,-0.0875 2.11666,0 0.27675,0.0346 0.52028,0.20989 0.79375,0.26459 0.81825,0.16364 0.26869,-0.26185 1.05834,0.26458 0.22831,0.1522 0.58708,0.58709 0.79375,0.79375 0.0882,0.0882 0.15302,0.2088 0.26458,0.26458 0.0789,0.0394 0.1857,-0.0394 0.26458,0 0.21514,0.10757 0.21892,0.41971 0.52917,0.26459 0.12882,-0.0644 0.99121,-1.00464 1.05833,-1.05834 0.49662,-0.39729 1.07872,-0.67674 1.5875,-1.05833 0.0998,-0.0748 0.17639,-0.17639 0.26459,-0.26458 0.17639,-0.17639 0.37949,-0.32961 0.52916,-0.52917 0.11833,-0.15777 0.1552,-0.36508 0.26459,-0.52917 0.0692,-0.10378 0.2088,-0.15303 0.26458,-0.26458 0.0394,-0.0789 -0.0279,-0.18092 0,-0.26458 0.12473,-0.37418 0.43351,-0.6757 0.52917,-1.05834 0.0642,-0.25668 0,-0.52916 0,-0.79375 0,-0.79375 0,-1.5875 0,-2.38125 0,-0.11916 -0.0403,-0.71323 0,-0.79375 0.0558,-0.11156 0.17639,-0.17639 0.26458,-0.26458 0.0882,-0.0882 0.15303,-0.20881 0.26458,-0.26458 0.0789,-0.0394 0.20223,0.0624 0.26459,0 0.0624,-0.0624 -0.0394,-0.18571 0,-0.26459 0.0558,-0.11156 0.2088,-0.15303 0.26458,-0.26458 0.0394,-0.0789 -0.0624,-0.20222 0,-0.26458 0.0624,-0.0624 0.20222,0.0624 0.26458,0 0.0624,-0.0624 -0.0394,-0.18571 0,-0.26459 0.0558,-0.11156 0.22515,-0.14626 0.26459,-0.26458 0.0837,-0.25101 0,-0.52917 0,-0.79375 0,-0.79375 0,-1.5875 0,-2.38125 0,-0.26458 -0.11833,-0.5571 0,-0.79375 0.0394,-0.0789 0.20222,0.0624 0.26458,0 0.13945,-0.13945 0.12514,-0.38972 0.26458,-0.52917 0.0624,-0.0624 0.20223,0.0624 0.26459,0 0.0624,-0.0624 -0.0624,-0.20222 0,-0.26458 0.0624,-0.0624 0.1857,0.0394 0.26458,0 0.22312,-0.11156 0.29252,-0.45029 0.52917,-0.52917 0.16734,-0.0558 0.36183,0.0558 0.52916,0 0.11833,-0.0394 0.14626,-0.22514 0.26459,-0.26458 0.16734,-0.0558 0.35517,0.029 0.52916,0 0.35869,-0.0598 0.70176,-0.19327 1.05834,-0.26458 0.0865,-0.0173 0.17902,0.0214 0.26458,0 0.27057,-0.0676 0.52318,-0.19695 0.79375,-0.26459 0.0856,-0.0214 0.1857,0.0394 0.26458,0 0.11156,-0.0558 0.15303,-0.2088 0.26459,-0.26458 0.0789,-0.0394 0.20222,0.0624 0.26458,0 0.0624,-0.0624 -0.0624,-0.20222 0,-0.26458 0.13945,-0.13945 0.38972,-0.12514 0.52917,-0.26459 0.0624,-0.0624 0,-0.17639 0,-0.26458 0,-0.17639 -0.0655,-0.3654 0,-0.52917 0.1181,-0.29524 0.38696,-0.50933 0.52916,-0.79375 0.34826,-0.6965 0.26459,-0.84524 0.26459,-1.5875 0,-0.44097 -0.0725,-0.88794 0,-1.32291 0.0459,-0.27511 0.19694,-0.52319 0.26458,-0.79375 0.056,-0.224 0,-0.78363 0,-1.05834 0,-0.17639 0.0558,-0.36183 0,-0.52916 -0.0394,-0.11833 -0.17639,-0.17639 -0.26458,-0.26459 -0.40037,-0.40036 -0.77485,-0.8391 -1.32292,-1.05833 -0.69862,-0.27945 -0.40244,0.39131 -1.05833,-0.26458 -0.13945,-0.13945 -0.12514,-0.38973 -0.26459,-0.52917 -0.0624,-0.0624 -0.20222,0.0624 -0.26458,0 -0.0624,-0.0624 0.0624,-0.20222 0,-0.26458 -0.27889,-0.2789 -0.83955,-0.201 -1.05833,-0.52917 -0.0978,-0.14677 0.0789,-0.3714 0,-0.52917 -0.26459,-0.52916 -0.52917,-0.39687 -0.79375,-0.79375 -0.10939,-0.16409 -0.15519,-0.36508 -0.26459,-0.52916 -0.0692,-0.10378 -0.2088,-0.15303 -0.26458,-0.26459 -0.0394,-0.0789 0.0624,-0.20222 0,-0.26458 -0.0624,-0.0624 -0.20222,-0.0624 -0.26458,0 -0.0624,0.0624 0,0.17639 0,0.26458 0,2.55536 0.0692,-0.62267 -0.26459,2.38125 -0.0389,0.35062 0.11156,0.72366 0,1.05834 -0.59152,1.77458 -0.52916,-0.13856 -0.52916,0.79375 0,0.17638 0,0.70555 0,0.52916 0,-1.23472 0,-2.46944 0,-3.70416 0,-0.17027 0.0448,-1.67303 0,-1.85209 -0.31942,-1.27766 -0.12574,0.0131 -0.52917,-0.79375 -0.0394,-0.0789 0,-0.17639 0,-0.26458 0,-0.17639 0.0428,-0.35805 0,-0.52917 -0.0236,-0.0945 -0.74165,-1.5354 -0.79375,-1.5875 -0.0624,-0.0624 -0.1857,0.0394 -0.26458,0 -0.58501,-0.2925 -0.0821,-0.16421 -0.26459,-0.52917 -0.0558,-0.11155 -0.17639,-0.17638 -0.26458,-0.26458 -0.17639,-0.17639 -0.32161,-0.39079 -0.52917,-0.52917 -0.0734,-0.0489 -0.20222,0.0624 -0.26458,0 -0.0624,-0.0624 0.0624,-0.20222 0,-0.26458 -0.13945,-0.13945 -0.38972,-0.12513 -0.52917,-0.26458 -0.0624,-0.0624 0.0624,-0.20222 0,-0.26459 -0.0624,-0.0624 -0.1857,0.0395 -0.26458,0 -0.11156,-0.0558 -0.15302,-0.2088 -0.26458,-0.26458 -0.0789,-0.0394 -0.1857,0.0394 -0.26459,0 -1.10113,-0.55057 0.28285,0.0183 -0.26458,-0.52917 -0.12472,-0.12472 -0.3714,0.0789 -0.52917,0 -0.11155,-0.0558 -0.14625,-0.22514 -0.26458,-0.26458 -0.62875,-0.20958 -0.48054,0.31321 -1.05833,-0.26458 -0.0624,-0.0624 0.0624,-0.20222 0,-0.26459 -0.0624,-0.0624 -0.17639,0 -0.26459,0 -0.21656,0 -1.51008,0.0387 -1.5875,0 -0.10468,-0.0523 0.13161,-0.53053 0,-0.79375 -0.0394,-0.0789 -0.1857,0.0394 -0.26458,0 -1.10113,-0.55056 0.28285,0.0183 -0.26458,-0.52916 -0.0624,-0.0624 -0.17639,0 -0.26459,0 -0.0882,0 -0.17639,0 -0.26458,0 -0.17639,0 -0.36183,-0.0558 -0.52917,0 -0.37417,0.12472 -0.68415,0.40444 -1.05833,0.52916 -0.0837,0.0279 -0.1857,-0.0394 -0.26458,0 -0.11156,0.0558 -0.15303,0.20881 -0.26459,0.26459 -0.16629,0.0831 -0.89203,-0.0832 -1.05833,0 -0.11156,0.0558 -0.15302,0.2088 -0.26458,0.26458 -0.15777,0.0789 -0.40444,-0.12472 -0.52917,0 -0.0624,0.0624 0.0624,0.20222 0,0.26458 -0.13945,0.13945 -0.34208,0.20222 -0.52917,0.26459 -0.0837,0.0279 -0.20222,-0.0624 -0.26458,0 -0.0624,0.0624 0.0882,0.26458 0,0.26458 -0.36363,0 -0.70556,-0.17639 -1.05833,-0.26458 z"
       id="path19493"
       inkscape:connector-curvature="0" />
    <path
       style="fill:none;stroke:#000000;stroke-width:1;stroke-linecap:butt;stroke-linejoin:miter;stroke-opacity:1;stroke-miterlimit:4;stroke-dasharray:none"
       d="m 177.27083,122.37501 c -0.0882,0.0882 -0.17639,0.35277 -0.26458,0.26458 -0.0882,-0.0882 0.3109,-0.38039 0.26458,-0.26458 -0.21972,0.5493 -0.46557,1.09523 -0.79375,1.5875 -0.0489,0.0734 -0.1857,-0.0394 -0.26458,0 -0.11156,0.0558 -0.16081,0.19539 -0.26459,0.26458 -0.16408,0.10939 -0.38971,0.12513 -0.52916,0.26458 -0.0624,0.0624 0,0.17639 0,0.26459 0,0.0882 0,0.17638 0,0.26458 0,0.70555 0,1.41111 0,2.11667 0,0.0882 0,0.17638 0,0.26458 0,0.0882 -0.0624,0.20222 0,0.26458 0.0237,0.0237 0.78696,0.0136 0.79375,0 0.0789,-0.15777 0,-0.35278 0,-0.52916 0,-0.0882 0,0.17638 0,0.26458 0,0.13835 -0.0348,0.98876 0,1.05833 0.0558,0.11156 0.2088,0.15303 0.26458,0.26459 0.10583,0.21166 -0.10583,0.58208 0,0.79375 0.0394,0.0789 0.1857,-0.0394 0.26458,0 0.22312,0.11155 0.30606,0.4176 0.52917,0.52916 0.0789,0.0394 0.17639,0 0.26458,0 0.17639,0 0.35278,0 0.52917,0 0.85168,0 -0.45167,-0.0624 0.52917,0.26459 0.1516,0.0505 1.07452,0 1.32291,0 0.0882,0 0.17639,0 0.26459,0 0.0882,0 0.20222,0.0624 0.26458,0 0.0624,-0.0624 -0.0394,-0.18571 0,-0.26459 0.0558,-0.11156 0.2088,-0.15302 0.26458,-0.26458 0.0395,-0.0789 0,-0.17639 0,-0.26458 0,-0.0882 0,-0.17639 0,-0.26459 0,-0.52916 0,-1.05833 0,-1.5875 0,-0.0882 0,-0.17639 0,-0.26458 0,-0.0882 -0.0624,-0.20222 0,-0.26458 0.0624,-0.0624 0.22515,0.0789 0.26459,0 0.10583,-0.21167 -0.10584,-0.58209 0,-0.79375 0.19465,-0.38932 0.41514,-0.26459 0.79375,-0.26459 0.17639,0 0.35277,0 0.52916,0 0.0882,0 0.1857,0.0394 0.26459,0 0.11156,-0.0558 0.2088,-0.15302 0.26458,-0.26458 0.0379,-0.0757 0,-1.18157 0,-1.32292 0,-0.14768 0.0404,-1.2018 0,-1.32291 -0.0394,-0.11833 -0.22514,-0.14626 -0.26458,-0.26459 -0.0558,-0.16734 0.0789,-0.3714 0,-0.52916 -0.0394,-0.0789 -0.20222,0.0624 -0.26459,0 -0.0624,-0.0624 0.0624,-0.20223 0,-0.26459 -0.13944,-0.13945 -0.38971,-0.12514 -0.52916,-0.26458 -0.0624,-0.0624 0.0624,-0.20222 0,-0.26458 -0.0624,-0.0624 -0.20222,0.0624 -0.26459,0 -0.12472,-0.12473 0.0978,-0.38241 0,-0.52917 -0.13837,-0.20756 -0.39079,-0.32161 -0.52916,-0.52917 -0.0489,-0.0734 0.0279,-0.18091 0,-0.26458 -0.0624,-0.18709 -0.20222,-0.34208 -0.26459,-0.52917 -0.0279,-0.0837 -0.0882,-0.26458 0,-0.26458 0.0882,0 0.0882,0.26458 0,0.26458 -0.10332,0 -0.29798,-0.49577 -0.52916,-0.26458 -0.0624,0.0624 0.0394,0.1857 0,0.26458 -0.14221,0.28442 -0.38696,0.50933 -0.52917,0.79375 -0.0394,0.0789 0.0394,0.1857 0,0.26459 -0.0558,0.11155 -0.2088,0.15302 -0.26458,0.26458 -0.0394,0.0789 0.0394,0.1857 0,0.26458 -0.0558,0.11156 -0.16481,0.18975 -0.26459,0.26459 -0.91359,0.68519 -0.6942,0.50427 -1.85208,0.79375 z"
       id="path19495"
       inkscape:connector-curvature="0" />
    <path
       style="fill:none;stroke:#000000;stroke-width:1;stroke-linecap:butt;stroke-linejoin:miter;stroke-opacity:1;stroke-miterlimit:4;stroke-dasharray:none"
       d="m 161.39583,193.8125 c -0.44097,0.88195 -0.88194,1.76389 -1.32292,2.64584 -0.0882,0.17639 -0.2259,0.33578 -0.26458,0.52916 -0.0519,0.25945 0.0519,0.53431 0,0.79375 -0.0771,0.38525 -0.68689,1.05577 -0.79375,1.32292 -0.13102,0.32754 0.11156,0.72366 0,1.05833 -0.12522,0.37568 -0.51367,0.26459 -0.79375,0.26459 -0.0882,0 -0.22514,-0.0789 -0.26458,0 -0.0789,0.15776 0.0428,0.35804 0,0.52916 -0.0478,0.19132 -0.17639,0.35278 -0.26459,0.52917 -0.0882,0.17639 -0.15519,0.36508 -0.26458,0.52917 -0.0692,0.10378 -0.2088,0.15302 -0.26458,0.26458 -0.18248,0.36495 0.32042,0.23666 -0.26459,0.52917 -0.0789,0.0394 -0.20222,-0.0624 -0.26458,0 -0.12472,0.12472 0.12473,0.40444 0,0.52916 -0.0624,0.0624 -0.20222,-0.0624 -0.26458,0 -0.0724,0.0724 0.0718,0.9148 0,1.05834 -0.0558,0.11155 -0.20881,0.15302 -0.26459,0.26458 -0.0394,0.0789 0,0.17639 0,0.26458 0,0.44097 0,0.88195 0,1.32292 0,0.0882 0,0.17639 0,0.26458 0,0.0882 0.0394,0.1857 0,0.26459 -1.23396,2.46793 -0.0649,-0.73408 -0.52916,1.5875 -0.0449,0.22445 -0.70704,1.14504 -0.52917,1.32291 0.12473,0.12473 0.3714,-0.0789 0.52917,0 0.11156,0.0558 0.17639,0.17639 0.26458,0.26459 0.17639,0 0.36183,-0.0558 0.52917,0 0.23665,0.0789 0.30605,0.41761 0.52916,0.52916 0.0789,0.0395 0.20223,-0.0624 0.26459,0 0.13945,0.13945 0.20222,0.34208 0.26458,0.52917 0.0279,0.0837 0,0.17639 0,0.26458 0,0.17639 0,0.35278 0,0.52917 0,0.44097 0,0.88194 0,1.32292 0,0.20198 0.0556,1.4208 0,1.5875 -0.0624,0.18708 -0.21675,0.33784 -0.26458,0.52916 -0.0642,0.25669 0,0.52917 0,0.79375 0,0.79375 0,1.5875 0,2.38125 0,0.17096 -0.0631,0.99527 0,1.05834 0.37572,0.37572 0.87022,-0.34105 1.05833,-0.52917 0.98341,-0.9834 -1.30294,1.2051 1.5875,-0.52917 0.15125,-0.0907 -0.0789,-0.3714 0,-0.52916 0.0789,-0.15777 0.3714,0.0789 0.52917,0 0.585,-0.29251 0.0821,-0.16422 0.26458,-0.52917 0.29251,-0.58501 0.16421,-0.0821 0.52917,-0.26458 0.11156,-0.0558 0.14626,-0.22514 0.26458,-0.26459 0.16734,-0.0558 0.35278,0 0.52917,0 0.26458,0 0.53707,-0.0642 0.79375,0 0.0371,0.009 0.45233,0.47795 0.52916,0.52917 0.16409,0.10939 0.36508,0.15519 0.52917,0.26458 0.60545,0.40363 -0.16544,0.20944 0.79375,0.52917 0.0837,0.0279 0.20222,-0.0624 0.26458,0 0.0624,0.0624 -0.0394,0.1857 0,0.26458 0.11156,0.22312 0.45029,0.29252 0.52917,0.52917 0.0558,0.16734 -0.0655,0.36539 0,0.52917 -0.14668,0.65528 0.59654,0.66391 0.79375,1.05833 0.0524,0.10491 -0.0541,0.73966 0,0.79375 0.0624,0.0624 0.20222,-0.0624 0.26458,0 0.0624,0.0624 -0.0624,0.20222 0,0.26458 0.0373,0.0373 0.73948,0.0271 0.79375,0 0.22312,-0.11155 0.29252,-0.45028 0.52917,-0.52916 0.16734,-0.0558 0.36183,0.0558 0.52917,0 0.11832,-0.0395 0.15302,-0.20881 0.26458,-0.26459 0.0789,-0.0394 0.17639,0 0.26458,0 0.17639,0 0.35278,0 0.52917,0 0.35278,0 0.7091,-0.0499 1.05833,0 0.55219,0.0789 1.04054,0.41978 1.5875,0.52917 0.17297,0.0346 0.35278,0 0.52917,0 0.52917,0 1.05833,0 1.5875,0 0.35982,0 0.8548,0.14249 1.05833,-0.26458 0.0811,-0.16228 -0.21166,-0.76729 0.26459,-0.52917 0.23053,0.11527 0.48313,0.6096 0.52916,0.79375 0.0428,0.17112 -0.0789,0.3714 0,0.52917 0.0394,0.0789 0.20223,-0.0624 0.26459,0 0.0624,0.0624 -0.0624,0.20222 0,0.26458 0.0624,0.0624 0.17639,0 0.26458,0 0.0882,0 0.17639,0 0.26458,0 0.52917,0 1.05834,0 1.5875,0 0.0882,0 0.17639,0 0.26459,0 0.0882,0 0.1857,0.0394 0.26458,0 0.14131,-0.0707 0.65446,-0.65446 0.79375,-0.79375 0.16945,-0.16945 0.81073,-0.89327 1.05833,-1.05833 0.16409,-0.10939 0.36508,-0.1552 0.52917,-0.26459 0.10378,-0.0692 0.15303,-0.2088 0.26458,-0.26458 0.0789,-0.0394 0.17639,0 0.26459,0 0.0882,0 0.17639,0 0.26458,0 0.26458,0 0.54275,-0.0837 0.79375,0 0.11833,0.0394 0.15303,0.2088 0.26458,0.26458 0.0789,0.0395 0.18092,-0.0279 0.26459,0 0.18709,0.0624 0.33579,0.22591 0.52916,0.26459 0.25945,0.0519 0.52917,0 0.79375,0 0.0882,0 0.1857,0.0394 0.26459,0 0.11156,-0.0558 0.1608,-0.1954 0.26458,-0.26459 0.32818,-0.21878 0.73016,-0.31038 1.05833,-0.52916 0.10378,-0.0692 0.17639,-0.17639 0.26459,-0.26459 0.0882,-0.0882 0.2088,-0.15302 0.26458,-0.26458 0.0789,-0.15777 -0.0789,-0.3714 0,-0.52917 0.11156,-0.22311 0.41761,-0.30605 0.52917,-0.52916 0.0789,-0.15777 -0.0558,-0.36183 0,-0.52917 0.0624,-0.18709 0.19134,-0.34606 0.26458,-0.52917 0.21514,-0.53784 0.21892,-0.85754 0.52917,-1.32291 0.0692,-0.10378 0.18667,-0.16719 0.26458,-0.26459 0.27547,-0.34434 0.48194,-0.74651 0.79375,-1.05833 0.0624,-0.0624 0.17639,0 0.26458,0 0.0882,0 0.17639,0 0.26459,0 0.61736,0 1.23472,0 1.85208,0 0.17639,0 0.35278,0 0.52917,0 0.37861,0 0.59909,0.12473 0.79375,-0.26458 0.0348,-0.0696 0,-0.91998 0,-1.05834 0,-0.14783 0.052,-1.16678 0,-1.32291 -0.38524,-1.15573 -0.18994,0.1866 -0.79375,-1.32292 -0.27945,-0.69862 0.39131,-0.40244 -0.26459,-1.05833 -0.0624,-0.0624 -0.20222,0.0624 -0.26458,0 -0.0624,-0.0624 0.0394,-0.1857 0,-0.26459 -0.0558,-0.11155 -0.17639,-0.17639 -0.26458,-0.26458 -0.17639,-0.17639 -0.35278,-0.35278 -0.52917,-0.52917 -0.17639,-0.17639 -0.37949,-0.3296 -0.52917,-0.52916 -0.11832,-0.15777 -0.14625,-0.3714 -0.26458,-0.52917 -0.14967,-0.19956 -0.37949,-0.32961 -0.52917,-0.52917 -0.23665,-0.31553 -0.25027,-0.77943 -0.52916,-1.05833 -0.0624,-0.0624 -0.1857,0.0394 -0.26459,0 -0.11155,-0.0558 -0.15302,-0.20881 -0.26458,-0.26458 -0.0789,-0.0395 -0.18091,0.0279 -0.26458,0 -0.36935,-0.12312 -1.0814,-0.61261 -1.32292,-0.79375 -0.0998,-0.0748 -0.1608,-0.1954 -0.26458,-0.26459 -0.16409,-0.10939 -0.38972,-0.12513 -0.52917,-0.26458 -0.0624,-0.0624 0.0734,-0.21566 0,-0.26458 -0.23205,-0.15471 -0.56169,-0.10988 -0.79375,-0.26459 -0.0734,-0.0489 0.0624,-0.20222 0,-0.26458 -0.0624,-0.0624 -0.20222,0.0624 -0.26458,0 -0.0624,-0.0624 0.0624,-0.20222 0,-0.26458 -0.0624,-0.0624 -0.17639,0 -0.26459,0 -0.0972,0 -1.04768,-0.0107 -1.05833,0 -0.34347,0.34346 -0.26458,0.63916 -0.26458,1.05833 0,0.61736 0,1.23472 0,1.85208 0,0.27372 0.0624,0.3657 -0.26459,0.52917 -0.0789,0.0394 -0.22514,0.0789 -0.26458,0 -0.0789,-0.15777 0,-0.35278 0,-0.52917 0,-0.17639 0,-0.35278 0,-0.52916 0,-0.52917 0,-1.05834 0,-1.5875 0,-0.26459 0.0837,-0.54275 0,-0.79375 -0.0394,-0.11833 -0.2088,-0.15303 -0.26458,-0.26459 -0.0394,-0.0789 0,-0.17639 0,-0.26458 0,-0.32297 0.10267,-0.61012 -0.26459,-0.79375 -0.15776,-0.0789 -0.40444,0.12473 -0.52916,0 -0.0624,-0.0624 0.0624,-0.20222 0,-0.26458 -0.13945,-0.13945 -0.36508,-0.1552 -0.52917,-0.26459 -0.10378,-0.0692 -0.1608,-0.1954 -0.26458,-0.26458 -0.32818,-0.21878 -0.7428,-0.29252 -1.05834,-0.52917 -0.19956,-0.14967 -0.35277,-0.35277 -0.52916,-0.52916 -0.35278,-0.17639 -0.72013,-0.32624 -1.05834,-0.52917 -0.10695,-0.0642 -0.1608,-0.1954 -0.26458,-0.26458 -0.16409,-0.10939 -0.36006,-0.16312 -0.52917,-0.26459 -0.27267,-0.1636 -0.4985,-0.41107 -0.79375,-0.52916 -0.19249,-0.077 -1.43041,0.0785 -1.5875,0 -0.11155,-0.0558 -0.17639,-0.17639 -0.26458,-0.26459 -0.0882,-0.0882 -0.2088,-0.15302 -0.26458,-0.26458 -0.0394,-0.0789 0.0214,-0.17902 0,-0.26458 -0.0676,-0.27057 -0.13986,-0.5443 -0.26459,-0.79375 -0.0558,-0.11156 -0.22514,-0.14626 -0.26458,-0.26459 -0.0558,-0.16733 0.0558,-0.36183 0,-0.52916 -0.0394,-0.11833 -0.17639,-0.17639 -0.26458,-0.26459 -0.0882,-0.26458 -0.19694,-0.52318 -0.26459,-0.79375 -0.0889,-0.35549 0.1015,-1.28302 0,-1.5875 -0.0394,-0.11832 -0.17639,-0.17639 -0.26458,-0.26458 -0.0882,-0.0882 -0.14626,-0.22514 -0.26458,-0.26458 -0.25101,-0.0837 -0.52917,0 -0.79375,0 -0.52917,0 -1.05834,0 -1.5875,0 -0.61736,0 -1.23473,0 -1.85209,0 -0.17639,0 -0.35277,0 -0.52916,0 -0.0882,0 -0.18092,-0.0279 -0.26459,0 -0.18708,0.0624 -0.33784,0.21675 -0.52916,0.26458 -0.27408,0.0685 -0.75495,0 -1.05834,0 -0.213,0 -0.89226,0.0554 -1.05833,0 -1.40627,-0.46876 -0.17219,0.006 -0.52917,-0.52917 -0.13837,-0.20755 -0.35277,-0.35277 -0.52916,-0.52916 -0.0882,-0.26459 -0.13986,-0.5443 -0.26459,-0.79375 -0.0558,-0.11156 -0.13985,-0.26459 -0.26458,-0.26459 -0.0882,0 0.0882,0.26459 0,0.26459 -0.14993,0 0.29986,-1.23473 0,0.26458 -0.0547,0.27348 -0.20989,0.52027 -0.26458,0.79375 -0.002,0.0102 0.001,0.79245 0,0.79375 -0.0624,0.0624 -0.20222,-0.0624 -0.26459,0 -0.0624,0.0624 0.0624,0.20222 0,0.26458 -0.54743,0.54744 0.0214,-0.83654 -0.52916,0.26459 -0.0394,0.0789 0.0624,0.20222 0,0.26458 -0.0624,0.0624 -0.1781,-0.0173 -0.26459,0 -0.35657,0.0713 -0.70555,0.17639 -1.05833,0.26458 z"
       id="path19499"
       inkscape:connector-curvature="0" />
    <path
       style="fill:none;stroke:#000000;stroke-width:1;stroke-linecap:butt;stroke-linejoin:miter;stroke-opacity:1;stroke-miterlimit:4;stroke-dasharray:none"
       d="m 187.85416,183.22917 c -2.49957,-0.83319 -1.78962,-1.38538 -2.64583,-0.52917 -0.0882,0.0882 -0.1954,0.16081 -0.26458,0.26459 -0.10939,0.16408 -0.26459,0.33195 -0.26459,0.52916 0,0.12473 0.17639,0.17639 0.26459,0.26459 0.15561,0.15561 0.99707,0.93581 1.05833,1.05833 0.0565,0.113 0,1.21832 0,1.32292 0,0.2271 0.0516,1.4327 0,1.5875 -0.0789,0.23665 -0.41761,0.30605 -0.52917,0.52916 -0.20498,0.40997 0.58576,0.72442 0.79375,0.79375 0.25101,0.0837 0.54275,-0.0837 0.79375,0 0.11833,0.0394 0.15303,0.20881 0.26459,0.26459 0.113,0.0565 1.21832,0 1.32291,0 0.44098,0 0.88195,0 1.32292,0 0.0882,0 0.17639,0 0.26458,0 0.0882,0 0.19121,0.0489 0.26459,0 0.20755,-0.13837 0.32161,-0.3908 0.52916,-0.52917 0.0734,-0.0489 0.1857,0.0394 0.26459,0 0.30332,-0.15166 0.36804,-0.55206 0.52916,-0.79375 0.0692,-0.10378 0.22515,-0.14626 0.26459,-0.26458 0.0558,-0.16734 0,-0.35278 0,-0.52917 0,-0.61736 0,-1.23472 0,-1.85208 0,-0.47384 -0.13099,-1.19193 0.26458,-1.5875 0.13945,-0.13945 0.41978,-0.1005 0.52917,-0.26459 0.0978,-0.14676 -0.0789,-0.3714 0,-0.52916 0.0394,-0.0789 0.1912,0.0489 0.26458,0 0.41511,-0.27675 0.6121,-0.83522 1.05833,-1.05834 0.15777,-0.0789 0.3654,0.0655 0.52917,0 0.29525,-0.11809 0.50933,-0.38695 0.79375,-0.52916 0.36496,-0.18248 0.23666,0.32042 0.52917,-0.26459 0.0394,-0.0789 -0.0394,-0.1857 0,-0.26458 0.27158,-0.54316 0.72935,0.0357 0,-1.05833 -0.0489,-0.0734 -0.20222,0.0624 -0.26459,0 -0.54743,-0.54744 0.83655,0.0214 -0.26458,-0.52917 -0.0789,-0.0394 -0.17639,0 -0.26458,0 -0.0882,0 -0.17639,0 -0.26459,0 -0.35277,0 -0.70555,0 -1.05833,0 -0.0882,0 -0.17902,0.0214 -0.26458,0 -0.97214,-0.24303 -0.55982,-0.26458 -1.32292,-0.26458 -0.0882,0 -0.17639,0 -0.26458,0 -0.0882,0 -0.1857,-0.0394 -0.26459,0 -0.35277,0.17639 -0.62588,0.98719 -0.79375,1.32291 -0.43944,0.8789 -0.49737,1.10414 -1.05833,1.85209 -0.41332,0.55109 -0.44865,0.092 -0.79375,0.26458 -0.45996,0.22998 -0.88194,0.52917 -1.32292,0.79375 z"
       id="path19501"
       inkscape:connector-curvature="0" />
    <text
       xml:space="preserve"
       style="font-style:normal;font-weight:normal;font-size:10.58333302px;line-height:1.25;font-family:sans-serif;letter-spacing:0px;word-spacing:0px;fill:#000000;fill-opacity:1;stroke:none;stroke-width:1;stroke-miterlimit:4;stroke-dasharray:none"
       x="238.11986"
       y="244.08348"
       id="text19446-5"><tspan
         sodipodi:role="line"
         id="tspan19444-9"
         x="238.11986"
         y="244.08348"
         style="stroke-width:1;stroke-miterlimit:4;stroke-dasharray:none">#9</tspan></text>
    <rect
       style="opacity:0.975;fill:none;fill-opacity:1;stroke:#008080;stroke-width:1;stroke-linecap:round;stroke-linejoin:round;stroke-miterlimit:4;stroke-dasharray:none;stroke-opacity:1;paint-order:stroke fill markers"
       id="rect19413-5-4"
       width="58.208332"
       height="58.208332"
       x="216.95836"
       y="101.20831"
       ry="7.2760415" />
    <rect
       style="opacity:0.975;fill:none;fill-opacity:1;stroke:#008080;stroke-width:1;stroke-linecap:round;stroke-linejoin:round;stroke-miterlimit:4;stroke-dasharray:none;stroke-opacity:1;paint-order:stroke fill markers"
       id="rect19413-0-9-4"
       width="58.208332"
       height="58.208332"
       x="216.95836"
       y="169.99997"
       ry="7.2760415" />
    <path
       style="fill:none;stroke:#000000;stroke-width:1;stroke-linecap:butt;stroke-linejoin:miter;stroke-opacity:1;stroke-miterlimit:4;stroke-dasharray:none"
       d="m 248.70833,122.37501 c -0.64329,0.73519 -1.29513,2.0192 -2.38125,2.38125 -0.0837,0.0279 -0.20222,-0.0624 -0.26458,0 -0.0624,0.0624 0.0789,0.22513 0,0.26458 -0.15777,0.0789 -0.36183,-0.0558 -0.52917,0 -0.11832,0.0394 -0.16081,0.1954 -0.26458,0.26458 -0.16409,0.10939 -0.36508,0.15519 -0.52917,0.26459 -0.20755,0.13836 -0.35278,0.35277 -0.52917,0.52916 -0.26458,0.26459 -0.52916,0.52917 -0.79375,0.79375 -0.17639,0.17639 -0.30605,0.41761 -0.52916,0.52917 -0.15777,0.0789 -0.3714,-0.0789 -0.52917,0 -0.22311,0.11156 -0.3296,0.37949 -0.52917,0.52917 -0.15776,0.11832 -0.36508,0.15519 -0.52916,0.26458 -0.11003,0.0734 -1.01102,0.9637 -1.05834,1.05833 -0.0394,0.0789 0,0.17639 0,0.26459 0,0.17638 0,0.35277 0,0.52916 0,0.52917 0,1.05834 0,1.5875 0,1.01068 0.0558,0.0415 -0.26458,1.32292 -0.0521,0.20846 0,0.88574 0,1.05833 0,0.26459 0,0.52917 0,0.79375 0,0.0882 0.0882,0.26459 0,0.26459 -0.0882,0 0,-0.35278 0,-0.26459 0,0.17639 -0.17639,0.52917 0,0.52917 0.24945,0 0.3296,-0.3795 0.52917,-0.52917 0.15776,-0.11832 0.41977,-0.10049 0.52916,-0.26458 0.0978,-0.14677 -0.0789,-0.3714 0,-0.52917 0.0394,-0.0789 0.1857,0.0394 0.26459,0 0.11156,-0.0558 0.15302,-0.2088 0.26458,-0.26458 0.0684,-0.0342 1.39996,0 1.5875,0 0.0882,0 0.1857,0.0394 0.26458,0 1.10114,-0.55057 -0.28285,0.0182 0.26459,-0.52917 0.0624,-0.0624 0.17639,0 0.26458,0 0.26458,0 0.52917,0 0.79375,0 0.0882,0 0.17639,0 0.26458,0 0.0882,0 0.22515,-0.0789 0.26459,0 0.0789,0.15777 -0.0789,0.3714 0,0.52917 0.11156,0.22311 0.39079,0.32161 0.52916,0.52917 0.0978,0.14676 -0.0789,0.37139 0,0.52916 0.55057,1.10113 -0.0182,-0.28285 0.52917,0.26459 0.12472,0.12472 -0.12472,0.40443 0,0.52916 0.0373,0.0373 0.73948,0.0271 0.79375,0 0.11156,-0.0558 0.17639,-0.17639 0.26458,-0.26458 0.17639,-0.17639 0.35278,-0.35278 0.52917,-0.52917 0.0882,-0.0882 0.17639,-0.17639 0.26458,-0.26458 0.0882,-0.0882 0.20881,-0.15303 0.26459,-0.26458 0.0394,-0.0789 -0.0624,-0.20223 0,-0.26459 0.0624,-0.0624 0.20222,0.0624 0.26458,0 0.13945,-0.13945 0.15519,-0.36508 0.26458,-0.52916 0.0692,-0.10378 0.20881,-0.15303 0.26459,-0.26459 0.0394,-0.0789 -0.0279,-0.18091 0,-0.26458 0.0624,-0.18709 0.21675,-0.33785 0.26458,-0.52917 0.0428,-0.17112 -0.0978,-0.3824 0,-0.52916 0.10939,-0.16409 0.41977,-0.1005 0.52917,-0.26459 0.0978,-0.14676 -0.0789,-0.3714 0,-0.52916 0.0394,-0.0789 0.20222,0.0624 0.26458,0 0.13945,-0.13945 0.15519,-0.36508 0.26458,-0.52917 0.0692,-0.10378 0.22515,-0.14626 0.26459,-0.26458 0.0558,-0.16734 -0.0789,-0.37141 0,-0.52917 0.0394,-0.0789 0.22514,0.0789 0.26458,0 0.0789,-0.15777 0,-0.35278 0,-0.52917 0,-0.44097 0,-0.88194 0,-1.32291 0,-0.0882 -0.0394,-0.1857 0,-0.26459 0.0351,-0.0703 0.7235,-0.75862 0.79375,-0.79375 0.0789,-0.0394 0.20222,0.0624 0.26458,0 0.0624,-0.0624 -0.0394,-0.1857 0,-0.26458 0.0558,-0.11156 0.20881,-0.15303 0.26459,-0.26458 0.0394,-0.0789 -0.0624,-0.20223 0,-0.26459 0.0624,-0.0624 0.20222,0.0624 0.26458,0 0.12472,-0.12473 -0.0655,-0.36539 0,-0.52916 -2.34546,-1.20337 0.78636,-1.04355 0.79375,-1.05834 0.0789,-0.15777 -0.12472,-0.40444 0,-0.52916 0.12472,-0.12473 0.3714,0.0789 0.52917,0 0.0789,-0.0394 -0.0624,-0.20223 0,-0.26459 0.0624,-0.0624 0.20222,0.0624 0.26458,0 0.13945,-0.13945 0.12513,-0.38972 0.26458,-0.52916 0.13945,-0.13945 0.38972,-0.12514 0.52917,-0.26459 0.0624,-0.0624 -0.0489,-0.1912 0,-0.26458 0.13046,-0.19568 0.94951,-0.84068 1.05833,-1.05833 0.0403,-0.0805 0,-0.6746 0,-0.79375 0,-0.17639 0,-0.35278 0,-0.52917 0,-0.17639 0.0428,-0.35805 0,-0.52917 -0.31941,-1.27766 -0.12573,0.0131 -0.52916,-0.79375 -0.0394,-0.0789 0.0624,-0.20222 0,-0.26458 -0.13945,-0.13945 -0.38972,-0.12514 -0.52917,-0.26458 -0.13945,-0.13945 -0.12513,-0.38973 -0.26458,-0.52917 -0.0624,-0.0624 -0.20222,0.0624 -0.26459,0 -0.0624,-0.0624 0.0624,-0.20222 0,-0.26458 -0.012,-0.012 -1.19816,0 -1.32291,0 -0.17639,0 -0.35278,0 -0.52917,0 -0.0882,0 -0.20222,-0.0624 -0.26458,0 -0.0624,0.0624 0.0624,0.20221 0,0.26458 -0.32226,0.32226 -0.59114,0.12394 -0.79375,0.52917 -0.0394,0.0789 0.0394,0.18569 0,0.26458 -0.0558,0.11156 -0.20881,0.15302 -0.26459,0.26458 -0.0394,0.0789 0.0489,0.1912 0,0.26459 0.65289,0.80102 -0.71968,0.45509 -0.79375,0.52916 -0.0624,0.0624 0.0279,0.18092 0,0.26459 -0.0624,0.18708 -0.12513,0.38971 -0.26458,0.52916 -0.0624,0.0624 -0.1857,-0.0394 -0.26458,0 -0.40523,0.20261 -0.20691,0.47149 -0.52917,0.79375 -0.0624,0.0624 -0.17639,0 -0.26458,0 -0.17639,0.35278 -0.35278,0.70556 -0.52917,1.05834 z"
       id="path19539"
       inkscape:connector-curvature="0" />
    <path
       style="fill:none;stroke:#000000;stroke-width:1;stroke-linecap:butt;stroke-linejoin:miter;stroke-opacity:1;stroke-miterlimit:4;stroke-dasharray:none"
       d="m 232.83333,114.43751 c -0.17639,-0.26459 -0.79375,-0.61737 -0.52917,-0.79375 0.26459,-0.17639 0.62054,0.48917 0.52917,0.79375 -1.26816,4.2272 -1.32292,0.60195 -1.32292,2.38125 0,0.0882 0,0.17638 0,0.26458 0,0.0882 -0.0624,0.20222 0,0.26458 0.66831,0.66831 0.30501,0.10167 0.79375,0.26459 0.18709,0.0624 0.34208,0.20221 0.52917,0.26458 0.0837,0.0279 0.20222,-0.0624 0.26458,0 0.0624,0.0624 -0.0394,0.1857 0,0.26458 0.11156,0.22312 0.45029,0.29252 0.52917,0.52917 0,1.20446 -0.12472,0.0151 0.26458,0.79375 0.0394,0.0789 -0.0624,0.20222 0,0.26458 0.0624,0.0624 0.20222,-0.0624 0.26459,0 0.0624,0.0624 -0.0624,0.20222 0,0.26459 0.0624,0.0624 0.20222,-0.0624 0.26458,0 0.0624,0.0624 -0.0624,0.20221 0,0.26458 0.0624,0.0624 0.20222,-0.0624 0.26458,0 0.12473,0.12472 -0.15776,0.45028 0,0.52917 0.0414,0.0207 1.24895,0 1.32292,0 0.20682,0 1.70745,0.0482 1.85208,0 0.45361,-0.15121 0.94554,-0.56733 1.32292,-0.79375 0.16911,-0.10147 0.38972,-0.12514 0.52917,-0.26459 0.0624,-0.0624 -0.0394,-0.1857 0,-0.26458 0.40343,-0.80687 0.20975,0.48391 0.52916,-0.79375 0.0503,-0.20121 0,-1.10136 0,-1.32292 0,-0.70555 0,-1.41111 0,-2.11666 0,-0.44098 0,-0.88195 0,-1.32292 0,-0.0882 0.0624,-0.20222 0,-0.26458 -0.0624,-0.0624 -0.1857,0.0394 -0.26458,0 -1.10113,-0.55057 0.28285,0.0182 -0.26458,-0.52917 -0.0624,-0.0624 -0.18092,0.0279 -0.26459,0 -0.95919,-0.31973 -0.1883,-0.12554 -0.79375,-0.52917 -0.16408,-0.10939 -0.38971,-0.12513 -0.52916,-0.26458 -0.0624,-0.0624 0.0624,-0.20222 0,-0.26459 -0.009,-0.009 -0.72958,0 -0.79375,0 -0.17639,0 -0.35278,0 -0.52917,0 -0.62547,0 -0.52917,0.26362 -0.52917,0.79375 0,0.26459 0,0.52917 0,0.79376 0,0.0882 0.0395,0.18569 0,0.26458 -0.2925,0.58501 -0.16421,0.0821 -0.52916,0.26458 -0.11156,0.0558 -0.14626,0.22514 -0.26459,0.26459 -0.16733,0.0558 -0.52916,0.17638 -0.52916,0 0,-0.17639 0.70555,0 0.52916,0 -0.28222,0 -2.54,0 0,0"
       id="path19543"
       inkscape:connector-curvature="0" />
    <path
       style="fill:none;stroke:#000000;stroke-width:1;stroke-linecap:butt;stroke-linejoin:miter;stroke-opacity:1;stroke-miterlimit:4;stroke-dasharray:none"
       d="m 259.29166,135.60417 c 0.26459,0.88195 0.52917,1.76389 0.79375,2.64584 0.0882,0.17638 0.20222,0.34207 0.26459,0.52916 0.0279,0.0837 -0.0394,0.1857 0,0.26459 0.0558,0.11155 0.18975,0.1648 0.26458,0.26458 0.19079,0.25439 0.33837,0.53936 0.52917,0.79375 0.14967,0.19956 0.4176,0.30605 0.52916,0.52917 0.0394,0.0789 -0.0624,0.20221 0,0.26458 0.0624,0.0624 0.17639,0 0.26459,0 0.11969,0 1.51699,0.0353 1.5875,0 0.22311,-0.11156 0.30605,-0.41761 0.52916,-0.52917 0.15611,-0.078 0.61177,0.0607 0.79375,0 0.1764,-0.0882 0.35277,-0.17639 0.52917,-0.26458 0,-0.0882 -0.0624,-0.20222 0,-0.26458 0.0624,-0.0624 0.20222,0.0624 0.26458,0 0.13944,-0.13945 0.12515,-0.38973 0.26459,-0.52917 0.0624,-0.0624 0.20222,0.0624 0.26458,0 0.0624,-0.0624 -0.0624,-0.20222 0,-0.26458 0.0624,-0.0624 0.20222,0.0624 0.26458,0 0.18235,-0.18235 0.59973,-1.29649 0.79375,-1.5875 0.0692,-0.10378 0.21826,-0.14879 0.26459,-0.26459 0.13504,-0.33762 0.10197,-0.73309 0.26458,-1.05833 0.11155,-0.22312 0.41762,-0.30605 0.52917,-0.52917 0.0789,-0.15777 0,-0.35278 0,-0.52916 0,-0.44098 0,-0.88195 0,-1.32292 0,-0.0882 0.0624,-0.20222 0,-0.26458 -0.0624,-0.0624 -0.1764,0 -0.26459,0 -0.26458,0 -0.52916,0 -0.79375,0 -0.22452,0 -1.44163,-0.0486 -1.5875,0 -0.11832,0.0394 -0.14626,0.22513 -0.26458,0.26458 -0.16735,0.0558 -0.35803,-0.0428 -0.52917,0 -0.19132,0.0478 -0.35277,0.17639 -0.52916,0.26458 -0.17639,0.0882 -0.38972,0.12514 -0.52917,0.26459 -0.0624,0.0624 0.0394,0.18569 0,0.26458 -0.20262,0.40523 -0.47149,0.20691 -0.79375,0.52917 -0.15812,0.15812 0.28598,0.52916 -0.26458,0.52916 -0.20262,0 -0.52728,-0.79185 -0.52917,-0.79375 -0.0624,-0.0624 -0.1857,0.0394 -0.26458,0 -0.14131,-0.0707 -0.65446,-0.65446 -0.79375,-0.79375 -0.17639,-0.17639 -0.32161,-0.3908 -0.52917,-0.52916 -0.16409,-0.1094 -0.38972,-0.12514 -0.52917,-0.26459 -0.0624,-0.0624 -0.0882,-0.26458 0,-0.26458 0.0882,0 0,0.17639 0,0.26458 0,0.26459 0,0.52917 0,0.79375 0,0.85113 -0.006,0.5366 -0.79375,1.5875 z"
       id="path19545"
       inkscape:connector-curvature="0" />
    <path
       style="fill:none;stroke:#000000;stroke-width:1;stroke-linecap:butt;stroke-linejoin:miter;stroke-opacity:1;stroke-miterlimit:4;stroke-dasharray:none"
       d="m 251.35416,180.58334 c -3.5219,1.35457 -2.21117,1.32291 -3.70416,1.32291 -0.0882,0 -0.18092,-0.0279 -0.26459,0 -0.18709,0.0624 -0.34207,0.20222 -0.52916,0.26459 -0.0837,0.0279 -0.17639,0 -0.26459,0 -0.26458,0 -0.53706,-0.0642 -0.79375,0 -0.121,0.0302 -0.14626,0.22514 -0.26458,0.26458 -0.16734,0.0558 -0.35278,0 -0.52917,0 -0.0882,0 -0.1857,-0.0394 -0.26458,0 -0.80686,0.40343 0.48391,0.20975 -0.79375,0.52917 -0.17112,0.0428 -0.35278,0 -0.52917,0 -0.0882,0 -0.1857,-0.0394 -0.26458,0 -0.22311,0.11155 -0.32161,0.39079 -0.52917,0.52916 -0.16408,0.10939 -0.38971,0.12514 -0.52916,0.26459 -0.0624,0.0624 0.0279,0.18091 0,0.26458 -0.16018,0.48054 -0.22645,0.49103 -0.52917,0.79375 -0.0882,0.0882 -0.15302,0.20881 -0.26458,0.26458 -0.0964,0.0482 -1.17047,0 -1.32292,0 -1.05833,0 -2.11667,0 -3.175,0 -0.17639,0 -0.35278,0 -0.52917,0 -0.17639,0 -0.3714,-0.0789 -0.52916,0 -0.22312,0.11156 -0.35278,0.35278 -0.52917,0.52917 -0.0882,0.0882 -0.17639,0.17639 -0.26458,0.26458 -0.0882,0.0882 -0.22514,0.14626 -0.26459,0.26459 -0.0558,0.16733 0,0.35277 0,0.52916 0,0.0882 -0.0394,0.1857 0,0.26459 0.0558,0.11155 0.22515,0.14625 0.26459,0.26458 0.0558,0.16734 -0.0558,0.36183 0,0.52917 0.0394,0.11832 0.22514,0.14625 0.26458,0.26458 0.0558,0.16734 -0.0789,0.3714 0,0.52917 0.11156,0.22311 0.3908,0.32161 0.52917,0.52916 0.0489,0.0734 -0.0279,0.18092 0,0.26459 0.63883,1.91648 -0.0763,-0.41715 0.52916,0.79375 0.0789,0.15776 -0.12472,0.40444 0,0.52916 0.0624,0.0624 0.17639,0 0.26459,0 0.0882,0.17639 0.20222,0.34208 0.26458,0.52917 0.0279,0.0837 -0.0394,0.1857 0,0.26458 0.0558,0.11156 0.2088,0.15303 0.26458,0.26459 0.0394,0.0789 -0.0394,0.1857 0,0.26458 0.0558,0.11156 0.17639,0.17639 0.26459,0.26458 0.0882,0.0882 0.1608,0.1954 0.26458,0.26459 0.73244,0.48829 0.72982,0.12163 1.5875,0.26458 2.32256,0.38709 -0.40444,0.0973 1.32292,0.52917 0.17112,0.0428 0.36183,-0.0558 0.52916,0 0.11833,0.0394 0.15303,0.2088 0.26459,0.26458 0.0952,0.0476 1.31524,-0.002 1.32291,0 0.38676,0.0773 0.68416,0.40444 1.05834,0.52917 0.34497,0.11499 0.70751,0.1689 1.05833,0.26458 1.07003,0.29183 2.0731,0.65601 3.175,0.79375 0.26254,0.0328 0.53431,-0.0519 0.79375,0 0.19338,0.0387 0.34208,0.20222 0.52917,0.26458 0.034,0.0114 0.77183,0.011 0.79375,0 0.60756,-0.30378 0.11514,-1.02403 0.26458,-1.32291 0.0558,-0.11156 0.2088,-0.15303 0.26458,-0.26459 0.79901,-1.59802 -0.0381,-0.11202 0.26459,-1.32291 0.0478,-0.19132 0.20222,-0.34208 0.26458,-0.52917 0.0279,-0.0837 -0.0279,-0.18092 0,-0.26458 0.0624,-0.18709 0.20222,-0.34208 0.26458,-0.52917 0.0279,-0.0837 -0.0624,-0.20222 0,-0.26458 0.0457,-0.0457 1.17561,0.0368 1.32292,0 0.19132,-0.0478 0.34208,-0.20222 0.52917,-0.26459 0.0837,-0.0279 0.20222,0.0624 0.26458,0 0.0624,-0.0624 -0.0789,-0.22514 0,-0.26458 0.15777,-0.0789 0.36183,0.0558 0.52917,0 0.23665,-0.0789 0.29251,-0.45028 0.52916,-0.52917 0.16734,-0.0558 0.40445,0.12473 0.52917,0 0.1851,-0.1851 -0.12225,-0.81383 0,-1.05833 0.0558,-0.11156 0.2088,-0.15303 0.26458,-0.26458 0.0415,-0.083 0.022,-1.23488 0,-1.32292 -0.0478,-0.19132 -0.17639,-0.35278 -0.26458,-0.52917 -0.17639,-0.35277 -0.31038,-0.73016 -0.52917,-1.05833 -0.13837,-0.20756 -0.39079,-0.32161 -0.52916,-0.52917 -0.0489,-0.0734 0.0394,-0.1857 0,-0.26458 -0.0558,-0.11156 -0.20881,-0.15303 -0.26459,-0.26458 -0.0394,-0.0789 0.0394,-0.1857 0,-0.26459 -0.0558,-0.11155 -0.17639,-0.17639 -0.26458,-0.26458 -0.17639,-0.17639 -0.35278,-0.35278 -0.52917,-0.52917 -0.17639,-0.17639 -0.39079,-0.32161 -0.52916,-0.52916 -0.0489,-0.0734 0.0394,-0.1857 0,-0.26459 -0.0558,-0.11155 -0.20881,-0.15302 -0.26459,-0.26458 -0.0394,-0.0789 0.0624,-0.20222 0,-0.26458 -0.0624,-0.0624 -0.20222,0.0624 -0.26458,0 -0.0624,-0.0624 0.0279,-0.18092 0,-0.26459 -0.15019,-0.45056 -0.35278,-0.88194 -0.52917,-1.32291"
       id="path19547"
       inkscape:connector-curvature="0" />
    <path
       style="fill:none;stroke:#000000;stroke-width:1;stroke-linecap:butt;stroke-linejoin:miter;stroke-opacity:1;stroke-miterlimit:4;stroke-dasharray:none"
       d="m 240.77083,201.75 c -0.44097,0.26459 -0.92785,0.46453 -1.32292,0.79375 -0.1515,0.12625 -0.15519,0.36508 -0.26458,0.52917 -0.0692,0.10378 -0.2088,0.15303 -0.26458,0.26458 -0.0348,0.0696 0,0.91998 0,1.05834 0,0.0882 0,0.17638 0,0.26458 0,0.0882 0.0624,0.20222 0,0.26458 -0.0624,0.0624 -0.22514,-0.0789 -0.26459,0 -0.035,0.07 0,1.32749 0,1.5875 0,0.0972 -0.0106,1.04769 0,1.05834 0.0624,0.0624 0.17639,0 0.26459,0 0.52916,0 1.05833,0 1.5875,0 0.17639,0 0.35804,-0.0428 0.52916,0 0.19132,0.0478 0.34208,0.20222 0.52917,0.26458 0.18199,0.0607 0.63764,-0.078 0.79375,0 0.11156,0.0558 0.15302,0.2088 0.26458,0.26458 0.0789,0.0395 0.17639,0 0.26459,0 0.26458,0 0.54274,0.0837 0.79375,0 0.11832,-0.0394 0.15302,-0.2088 0.26458,-0.26458 0.0789,-0.0394 0.20222,0.0624 0.26458,0 0.0783,-0.0783 -0.0819,-0.89445 0,-1.05833 0.0558,-0.11156 0.20881,-0.15303 0.26459,-0.26459 0.0789,-0.15776 -0.12473,-0.40444 0,-0.52916 0.0624,-0.0624 0.22514,0.0789 0.26458,0 0.0207,-0.0414 0,-1.24895 0,-1.32292 0,-0.0882 0,-0.17639 0,-0.26458 0,-0.0882 0.0394,-0.1857 0,-0.26459 -0.0227,-0.0454 -0.76088,-0.78279 -0.79375,-0.79375 -0.16734,-0.0558 -0.3714,0.0789 -0.52917,0 -0.22311,-0.11155 -0.30605,-0.41761 -0.52916,-0.52916 -0.0595,-0.0297 -0.99744,0.0487 -1.05834,0 -0.38957,-0.31167 -0.70555,-0.70556 -1.05833,-1.05834 z"
       id="path19549"
       inkscape:connector-curvature="0" />
    <path
       style="fill:none;stroke:#000000;stroke-width:1;stroke-linecap:butt;stroke-linejoin:miter;stroke-opacity:1;stroke-miterlimit:4;stroke-dasharray:none"
       d="m 240.77083,214.97917 c -1.57542,1.8905 -0.70682,1.27945 -2.38125,2.11667 -0.17639,0.0882 -0.33579,0.2259 -0.52917,0.26458 -0.25944,0.0519 -0.52916,0 -0.79375,0 -0.0882,0 -0.20222,-0.0624 -0.26458,0 -0.0624,0.0624 0.0624,0.20222 0,0.26458 -0.0624,0.0624 -0.17639,0 -0.26458,0 -0.17639,0 -0.3714,-0.0789 -0.52917,0 -0.22824,0.11412 0.10127,0.36586 0.26458,0.52917 0.0882,0.0882 0.17639,0.17639 0.26459,0.26458 0.0882,0.0882 0.15302,0.20881 0.26458,0.26459 0.0789,0.0394 0.20222,-0.0624 0.26458,0 0.13945,0.13944 0.12514,0.38972 0.26459,0.52916 0.0624,0.0624 0.1857,-0.0394 0.26458,0 0.11156,0.0558 0.16081,0.1954 0.26458,0.26459 0.16409,0.10939 0.36508,0.15519 0.52917,0.26458 0.10378,0.0692 0.15302,0.2088 0.26458,0.26458 0.0789,0.0395 0.17639,0 0.26459,0 0.17639,0 0.35804,-0.0428 0.52916,0 0.19132,0.0478 0.34208,0.20222 0.52917,0.26459 0.0837,0.0279 0.1857,-0.0394 0.26458,0 0.22312,0.11155 0.30606,0.41761 0.52917,0.52916 0.0963,0.0482 1.05833,-0.0464 1.05833,0 0,0.0882 -0.32694,0.0624 -0.26458,0 0.13945,-0.13944 0.38972,-0.12513 0.52917,-0.26458 0.0624,-0.0624 -0.0489,-0.1912 0,-0.26458 1.22512,-1.83769 0.12524,0.55735 0.52916,-1.05834 0.0478,-0.19132 0.20222,-0.34208 0.26459,-0.52916 0.0279,-0.0837 -0.0394,-0.1857 0,-0.26459 0.0558,-0.11155 0.2088,-0.15302 0.26458,-0.26458 0.0394,-0.0789 -0.0624,-0.20222 0,-0.26458 0.0624,-0.0624 0.22514,0.0789 0.26458,0 0.0789,-0.15777 -0.0789,-0.3714 0,-0.52917 0.0394,-0.0789 0.20222,0.0624 0.26459,0 0.12472,-0.12473 -0.0789,-0.3714 0,-0.52917 0.11156,-0.22311 0.39079,-0.32161 0.52916,-0.52916 0.1094,-0.16409 0.20222,-0.34208 0.26459,-0.52917 0.0558,-0.16734 0,-0.35278 0,-0.52917 0,-0.17639 0.0789,-0.3714 0,-0.52916 -0.0394,-0.0789 -0.17639,0 -0.26459,0 -0.17639,0 -0.35277,0 -0.52916,0 -1.64425,0 -1.30765,-0.13611 -2.91042,0.26458 z"
       id="path19551"
       inkscape:connector-curvature="0" />
  </g>
</svg>
