<?xml version="1.0" encoding="UTF-8" standalone="no"?>
<!-- Created with Inkscape (http://www.inkscape.org/) -->

<svg
   xmlns:dc="http://purl.org/dc/elements/1.1/"
   xmlns:cc="http://creativecommons.org/ns#"
   xmlns:rdf="http://www.w3.org/1999/02/22-rdf-syntax-ns#"
   xmlns:svg="http://www.w3.org/2000/svg"
   xmlns="http://www.w3.org/2000/svg"
   xmlns:sodipodi="http://sodipodi.sourceforge.net/DTD/sodipodi-0.dtd"
   xmlns:inkscape="http://www.inkscape.org/namespaces/inkscape"
   width="297mm"
   height="210mm"
   viewBox="0 0 297 210"
   version="1.1"
   id="svg5661"
   inkscape:version="0.92.2 (5c3e80d, 2017-08-06)"
   sodipodi:docname="it_cortex.svg">
  <defs
     id="defs5655">
    <marker
       inkscape:stockid="Arrow2Mend"
       orient="auto"
       refY="0.0"
       refX="0.0"
       id="marker6675"
       style="overflow:visible;"
       inkscape:isstock="true">
      <path
         id="path6673"
         style="fill-rule:evenodd;stroke-width:0.625;stroke-linejoin:round;stroke:#ff7f2a;stroke-opacity:1;fill:#ff7f2a;fill-opacity:1"
         d="M 8.7185878,4.0337352 L -2.2072895,0.016013256 L 8.7185884,-4.0017078 C 6.9730900,-1.6296469 6.9831476,1.6157441 8.7185878,4.0337352 z "
         transform="scale(0.6) rotate(180) translate(0,0)" />
    </marker>
    <marker
       inkscape:stockid="Arrow2Mend"
       orient="auto"
       refY="0.0"
       refX="0.0"
       id="marker6645"
       style="overflow:visible;"
       inkscape:isstock="true">
      <path
         id="path6643"
         style="fill-rule:evenodd;stroke-width:0.625;stroke-linejoin:round;stroke:#37abc8;stroke-opacity:1;fill:#37abc8;fill-opacity:1"
         d="M 8.7185878,4.0337352 L -2.2072895,0.016013256 L 8.7185884,-4.0017078 C 6.9730900,-1.6296469 6.9831476,1.6157441 8.7185878,4.0337352 z "
         transform="scale(0.6) rotate(180) translate(0,0)" />
    </marker>
    <marker
       inkscape:stockid="Arrow2Mend"
       orient="auto"
       refY="0.0"
       refX="0.0"
       id="Arrow2Mend"
       style="overflow:visible;"
       inkscape:isstock="true">
      <path
         id="path3904"
         style="fill-rule:evenodd;stroke-width:0.625;stroke-linejoin:round;stroke:#008080;stroke-opacity:1;fill:#008080;fill-opacity:1"
         d="M 8.7185878,4.0337352 L -2.2072895,0.016013256 L 8.7185884,-4.0017078 C 6.9730900,-1.6296469 6.9831476,1.6157441 8.7185878,4.0337352 z "
         transform="scale(0.6) rotate(180) translate(0,0)" />
    </marker>
  </defs>
  <sodipodi:namedview
     id="base"
     pagecolor="#ffffff"
     bordercolor="#666666"
     borderopacity="1.0"
     inkscape:pageopacity="0.0"
     inkscape:pageshadow="2"
     inkscape:zoom="2.6603939"
     inkscape:cx="482.15007"
     inkscape:cy="316.62837"
     inkscape:document-units="mm"
     inkscape:current-layer="layer1"
     showgrid="false" />
  <metadata
     id="metadata5658">
    <rdf:RDF>
      <cc:Work
         rdf:about="">
        <dc:format>image/svg+xml</dc:format>
        <dc:type
           rdf:resource="http://purl.org/dc/dcmitype/StillImage" />
        <dc:title></dc:title>
      </cc:Work>
    </rdf:RDF>
  </metadata>
  <g
     inkscape:label="Layer 1"
     inkscape:groupmode="layer"
     id="layer1"
     transform="translate(0,-87)">
    <path
       id="path5663"
       d="m 143.79278,172.54926 -0.15888,8.6e-4 c -0.55671,0.003 -1.12352,0.0194 -1.7023,0.053 -0.70614,0.041 -1.41606,-0.0331 -2.14174,-1.2e-4 -6.13206,0.27856 -11.86502,1.75898 -16.37485,3.85709 -2.50994,1.16765 -4.85722,2.0427 -6.95042,3.41336 -2.20164,1.44128 -4.26268,3.10449 -5.91895,4.96693 -4.12398,0.43062 -6.35588,3.28669 -8.35829,5.84014 -0.28435,0.36316 -0.67714,0.70173 -0.94824,1.0756 -0.39657,0.54537 -0.62607,1.17837 -1.00877,1.70167 -0.668816,0.91609 -1.428609,1.71806 -2.141242,2.6455 -1.439638,1.87379 -2.884576,4.94297 -3.107828,7.70384 -0.06809,0.0536 -0.121556,0.1179 -0.14665,0.18789 -0.03266,0.0921 -0.03701,0.18221 -0.04073,0.26669 -0.0075,0.16897 -0.01041,0.30515 -0.102455,0.40729 l -0.03215,0.0353 -4.77e-4,0.0479 c -0.01413,1.41543 -0.501616,2.78484 -0.44121,4.48146 0.02135,0.59896 0.173383,1.19413 0.189017,1.76409 0.06097,2.22118 0.21304,4.00166 0.827507,5.65163 0.813195,2.18272 1.754377,4.08362 2.849333,5.76133 l 0.0058,0.009 0.0072,0.008 c 1.8306,1.9816 4.189225,3.87304 7.911275,3.82323 0.51132,-0.007 1.01696,-0.13997 1.50811,-0.1261 1.62475,0.0454 3.38442,0.99301 5.23488,1.00814 2.11211,0.0177 4.09434,-0.92617 5.26263,-2.18335 0.12798,-0.13745 0.19229,-0.30326 0.26858,-0.42747 0.017,-0.0277 0.0366,-0.0448 0.0536,-0.0675 -0.42432,1.37823 -0.80702,3.00235 -0.90789,4.5899 -0.10845,1.70923 0.10403,3.36866 0.95707,4.59116 0.51699,0.74019 1.19098,1.11658 1.93116,1.54657 2.51625,1.47533 5.64343,2.52193 9.7176,2.2256 0.95644,-0.0693 1.37508,-0.40981 2.09887,-0.56743 0.70488,-0.15762 1.57179,-0.1324 2.39583,-0.31524 1.42993,-0.32155 3.35857,-1.10334 4.81183,-1.7105 0.59833,-0.24967 1.49298,-0.6929 2.2174,-1.07686 0.51952,-0.27552 1.0176,-0.66137 1.4747,-0.87258 0.22823,-0.10592 0.44322,-0.16708 0.64119,-0.16015 0.19797,0.007 0.38334,0.0769 0.57563,0.25661 0.488,0.4571 1.03714,1.27735 1.35806,1.97782 0.29443,0.63994 0.4634,1.43434 0.82404,2.09004 0.34613,0.62418 0.94509,1.179 1.69914,1.50055 l -0.006,0.0126 0.11979,0.0441 c 0,0 0.69227,0.2585 1.12604,0.30894 0.21185,0.0252 0.55924,0.006 0.87448,-0.006 0.244,-0.0126 0.39027,-0.0252 0.47223,-0.0315 1.95197,4.15487 5.25379,6.96051 8.9213,9.36895 2.06798,1.68968 3.80811,3.73244 5.85717,5.47888 l 0.22697,0.19544 -0.0189,-0.30263 c -0.0126,-0.25219 -0.15762,-0.45394 -0.32155,-0.61156 -0.16392,-0.15762 -0.34676,-0.29002 -0.46655,-0.40981 -2.14994,-2.14994 -4.28727,-4.41968 -6.95421,-6.00218 -1.90153,-1.43119 -3.98085,-3.46134 -5.45302,-5.57976 -0.51952,-0.75027 -1.27799,-1.53207 -1.43056,-2.22559 -0.10844,-0.49178 -0.006,-0.83855 0.22571,-1.09704 0.23202,-0.25219 0.61031,-0.42873 1.06299,-0.517 0.0719,-0.0189 0.215,0.0252 0.37766,0.0315 0.0813,0 0.17275,-0.006 0.25976,-0.0504 0.087,-0.0504 0.16014,-0.1324 0.20995,-0.24589 l 0.0731,-0.17023 -0.18158,-0.006 h -0.002 0.002 c -7.1e-4,0 -0.005,-0.006 -0.0202,-0.0126 -0.0334,-0.0252 -0.11601,-0.0631 -0.19797,-0.0504 l -0.002,0.006 h -0.002 c -0.51636,0.10718 -1.07938,0.17653 -1.5245,0.40981 -0.4281,0.22067 -0.73199,0.62418 -0.71875,1.27988 -0.0498,0.0315 -0.11601,0.0567 -0.2068,0.0693 -0.10907,0.0126 -0.23832,0.0189 -0.36631,0.0378 -0.26543,0.0126 -0.54284,0.0126 -0.64561,0 -0.18725,-0.0189 -0.52897,-0.11979 -0.76603,-0.19545 -0.63994,-0.27111 -1.15505,-0.66831 -1.63106,-1.11595 -0.69037,-1.42489 -1.20296,-3.20537 -2.28423,-4.29862 -0.12925,-0.13051 -0.30074,-0.21878 -0.44512,-0.31083 -0.0971,-0.0618 -0.16582,-0.12357 -0.21751,-0.1841 2.41726,-1.17584 4.7595,-2.69026 7.00275,-3.8371 -0.0763,0.38396 -0.0372,0.70361 0.1015,0.9577 0.1715,0.31587 0.47349,0.52582 0.81459,0.68785 0.65443,0.31083 1.47217,0.47097 1.96962,0.76478 -0.20617,1.02263 -0.006,1.83091 0.37072,2.52444 0.38901,0.7156 0.95266,1.31707 1.43434,1.95575 0.31713,0.42242 0.62228,0.86376 0.91987,1.22944 0.29948,0.37198 0.58319,0.67461 0.89213,0.82593 0.85746,0.42242 1.81578,0.15762 2.67324,-0.10088 -0.30263,0.71875 -0.74397,1.41228 -0.59896,2.33909 0.0883,0.58634 0.42873,0.98985 0.84485,1.29248 0.3972,0.29633 0.85745,0.50439 1.24835,0.73136 0.35937,1.94819 1.92927,3.73245 4.08552,3.63157 0.81332,-0.0378 1.48793,-0.36568 2.17515,-0.72505 0.082,0.0946 0.13241,0.20175 0.16393,0.34046 0.0378,0.16392 0.0504,0.35937 0.12609,0.55482 0.22698,0.62417 0.66201,1.14748 1.02138,1.66447 0.16393,0.24589 0.31524,0.56743 0.517,0.84484 0.19545,0.27742 0.45394,0.52961 0.82593,0.59896 l 0.29002,0.0504 -0.16393,-0.24589 c -0.60526,-0.92681 -1.73382,-2.01123 -2.04906,-3.24067 0.66201,0.45394 1.58251,0.7944 2.6228,0.97094 1.18531,0.20175 2.50301,0.20806 3.70092,-0.0567 1.12226,-0.2522 2.358,-0.82593 3.55592,-1.39967 1.27987,-0.61157 2.53453,-1.12856 3.19654,-1.99232 0.59265,-0.76919 0.90158,-1.92297 1.3177,-2.56606 0.59896,-0.34676 1.40597,-0.64939 2.03015,-1.12856 0.61156,-0.46025 1.03399,-1.12856 0.85115,-2.1058 0.58004,-0.27111 0.82593,-0.76919 0.97094,-1.31771 0.15762,-0.58256 0.22697,-1.23826 0.51699,-1.85487 0.16393,-0.34109 0.42242,-0.61094 0.56743,-0.95014 0.82593,-1.93746 0,-3.91339 -1.09073,-5.22038 0.22698,-0.27993 0.29002,-0.65381 0.24589,-1.01129 -0.0441,-0.34866 -0.17654,-0.67903 -0.35937,-0.92366 0.31524,-0.27615 0.55482,-0.55986 0.64939,-1.00057 0.10718,-0.54536 0.0315,-1.01066 -0.18284,-1.39462 -0.21436,-0.38396 -0.55482,-0.6847 -0.95202,-0.9287 -0.61157,-0.37829 -1.34923,-0.60778 -2.03015,-0.8026 1.40597,-0.17149 2.69215,-0.41801 4.07921,-0.74838 1.38706,-0.33164 3.13979,-0.65444 4.02877,-1.54657 0.97094,-0.97221 1.55729,-3.07423 1.61403,-4.74941 0.10088,-2.97398 -0.46656,-5.77962 -1.26726,-7.92893 -0.76289,-2.02826 -1.48794,-3.97834 -2.27604,-5.80484 -0.41612,-0.97283 -0.69984,-2.03519 -1.41858,-2.69089 l -0.0252,-0.0271 -0.0378,-0.005 c -0.2648,-0.0353 -0.51069,-0.0921 -0.75027,-0.1551 0.24588,-0.88204 0.0694,-1.64114 -0.29002,-2.32143 -0.37199,-0.71308 -0.93312,-1.35112 -1.39967,-2.00998 -0.75027,-1.06488 -1.37445,-1.8782 -2.08059,-2.89895 -0.70614,-1.02831 -1.27357,-2.04149 -2.01754,-2.97019 -0.56112,-0.69857 -1.03399,-1.46902 -1.63925,-2.09194 -0.55482,-0.57437 -1.23574,-1.01633 -2.18146,-1.14117 0.22697,-0.29569 0.29632,-0.65128 0.24589,-0.99427 -0.0631,-0.41927 -0.27741,-0.82403 -0.5233,-1.13171 -0.81963,-1.00309 -2.18147,-1.81578 -3.37307,-2.61019 -1.22314,-0.81773 -2.41475,-1.5356 -3.93421,-2.09363 -1.41858,-0.52072 -2.95695,-0.93324 -4.47641,-1.45099 -0.83223,-0.28284 -1.85992,-0.69051 -2.8813,-0.94339 -0.94572,-0.23353 -1.88513,-0.33441 -2.68584,-0.0678 0.0378,-0.26537 0.0567,-0.54121 -0.10719,-0.77146 l -0.0126,-0.0121 -0.0126,-0.01 c -0.69353,-0.59328 -1.7023,-0.84705 -2.78672,-0.99162 -1.09073,-0.14457 -2.25587,-0.1771 -3.26589,-0.29841 l -0.01,-0.001 -0.01,2.6e-4 c -3.85476,0.10561 -7.2354,-0.49666 -11.0662,-0.49246 l 7.1e-4,-0.003 z m -0.0889,0.36882 c 2.38007,-0.005 4.93036,0.32489 7.05004,0.50388 3.39136,0.28636 7.28205,-0.0948 9.86702,1.16513 0.13871,0.32924 0.0946,0.54751 -0.0378,0.76546 -0.1324,0.22755 -0.37198,0.4433 -0.58634,0.70041 l 0.15762,0.19166 c 0.67461,-0.35723 1.09703,-0.863 1.96079,-0.86804 0.34046,-0.002 0.63679,0.16991 1.0466,0.24986 0.68723,0.13643 1.32401,0.16922 1.93558,0.37406 0.50438,0.16878 0.95202,0.54606 1.50685,0.755 1.20422,0.45092 2.47148,0.65059 3.79549,1.01224 1.26096,0.34317 2.66063,1.28731 3.87746,2.00417 1.24205,0.73262 2.50301,1.56422 3.37938,2.43933 0.3972,0.39468 0.90789,0.94194 0.84484,1.75841 -0.34676,0.51258 -1.09704,0.6866 -1.7086,1.07119 l -0.18284,0.11664 0.19545,0.10214 c 0.16392,0.0857 0.33415,0.0883 0.49808,0.0498 0.16392,-0.0385 0.32154,-0.11348 0.47916,-0.1904 0.32785,-0.1551 0.67462,-0.32029 1.08443,-0.28687 0.69983,0.0561 1.27988,0.55356 1.80948,1.1935 0.5296,0.64057 0.98985,1.41228 1.4501,1.97593 1.02138,1.25844 2.03646,2.87814 3.0137,4.34023 0.32155,0.47853 0.73136,0.90411 1.07813,1.38958 0.30263,0.42872 0.71874,0.9577 1.07812,1.48982 0.35307,0.5315 0.6557,1.06993 0.72505,1.48479 0.10088,0.57121 0.0126,0.87573 -0.17653,1.09514 -0.18284,0.22004 -0.48547,0.36253 -0.82593,0.53591 l -0.34677,0.1759 0.3846,0.0612 c 0.42242,0.0668 0.75657,-0.0876 1.04659,-0.1696 0.29002,-0.082 0.517,-0.11474 0.85115,0.14438 0.2522,0.2005 0.54852,0.79 0.80071,1.42552 0.2585,0.63615 0.47917,1.31707 0.67462,1.74265 0.50438,1.10775 0.98985,2.4469 1.3177,3.33272 0.63048,1.69788 1.19792,3.19149 1.51316,5.07726 l -0.14501,-0.0662 c -0.92681,-0.4344 -1.75274,-0.9577 -2.34539,-1.69914 -0.59896,-0.74145 -0.97094,-1.70293 -0.98355,-3.04207 v -0.053 l -0.0378,-0.0366 c -0.30894,-0.29759 -0.59896,-0.63301 -0.93311,-0.93311 -0.35307,-0.57815 -0.68723,-1.17711 -1.05921,-1.74328 -0.14501,-0.3184 -0.22698,-0.72254 -0.31524,-1.12793 -0.082,-0.3682 -0.17023,-0.73578 -0.33416,-1.04912 0.11349,-0.1034 0.17654,-0.24715 0.20806,-0.39468 0.0441,-0.186 0.0567,-0.38901 0.0757,-0.57311 l 0.006,-0.0826 -0.0693,-0.041 c -1.46271,-0.82656 -2.61019,-1.90026 -2.83716,-3.93861 l -0.0126,-0.0933 -0.0883,-0.017 c -0.56743,-0.10592 -1.07812,-0.32658 -1.41858,-0.67146 -0.34046,-0.34487 -0.51699,-0.80954 -0.43503,-1.45767 l 0.0126,-0.0933 -0.0883,-0.0385 c -1.36184,-0.60778 -2.16886,-1.79624 -3.15241,-2.86112 -0.96463,-1.04723 -2.11841,-1.96143 -4.11073,-1.998 -0.17654,-0.68092 -0.6494,-1.06866 -1.08443,-1.43371 -0.44764,-0.3764 -0.85745,-0.73073 -0.96463,-1.40093 0.006,-0.0296 0.0126,-0.0441 0.0378,-0.0624 0.0315,-0.0214 0.082,-0.0422 0.14501,-0.0668 0.0631,-0.0246 0.1324,-0.0523 0.20176,-0.11159 0.0631,-0.0593 0.11349,-0.15762 0.11349,-0.26922 v -0.0744 l -0.0631,-0.0372 c -0.36568,-0.20932 -0.73766,-0.2358 -1.10334,-0.20743 -0.35938,0.029 -0.71245,0.1097 -1.0466,0.12799 -3.51178,0.19229 -7.42707,-0.6267 -10.66774,-0.12484 -1.45641,0.22572 -2.80564,0.66138 -4.03255,1.11911 0.8234,-1.08254 1.6115,-2.23128 1.97088,-3.80307 l 0.0315,-0.14753 -0.14501,-0.006 c 0,0.001 -0.006,0 -0.006,0 h 0.006 c 0,-0.001 -0.006,-0.005 -0.0252,-0.0164 -0.0315,-0.0233 -0.11348,-0.0593 -0.19545,-0.0454 l -0.10087,0.0183 v 0.0681 c -0.0126,0.005 -0.0252,0.009 -0.0504,0.0227 -0.0252,0.0208 -0.0631,0.063 -0.0757,0.11348 l 0.006,-0.0177 c -0.6683,1.71554 -2.00366,3.34848 -3.55843,4.67754 -2.17957,1.86307 -5.0451,3.93735 -8.6111,3.75262 l -0.1261,-0.007 -0.006,0.12673 c -0.099,2.01565 -0.819,3.38757 -1.83218,4.48524 -1.01318,1.09767 -2.32521,1.91666 -3.59815,2.7924 l -0.0599,0.0416 0.006,0.0725 c 0.008,0.0895 -0.004,0.21562 -0.004,0.34046 -7.2e-4,0.1242 7.1e-4,0.25912 0.10088,0.36631 l 0.0561,0.0599 0.0776,-0.0271 c 1.58881,-0.55482 2.8277,-1.54972 3.89258,-2.6146 1.10019,-1.09956 1.80633,-2.45194 2.58498,-3.83648 0.40287,-0.16582 0.92113,-0.43566 1.43308,-0.59265 0.49871,-0.15384 0.96022,-0.1841 1.29879,0.053 -0.19608,1.09325 -0.86817,2.0333 -0.99175,3.07422 l -0.0145,0.11853 0.11727,0.0208 c 0.16203,0.0284 0.30578,0.001 0.41486,-0.0681 0.10907,-0.0687 0.18032,-0.1715 0.23138,-0.27616 0.10214,-0.20932 0.14123,-0.45016 0.18473,-0.54852 0.48169,-1.09388 1.17207,-1.85361 1.81516,-2.75141 1.4003,-1.95386 3.23815,-3.24068 5.61821,-4.2444 1.69599,-0.71244 3.89006,-1.24078 6.07783,-1.37697 1.3051,-0.0813 2.65433,0.0883 4.07921,0.18914 0.62418,0.0441 1.35554,-0.0529 2.00493,0.0618 1.07812,0.19104 2.90022,0.95644 3.7955,1.55603 0.64939,0.43251 1.10965,1.28303 1.01507,2.27919 -0.10088,1.09451 -0.84484,2.7243 -1.3114,3.6757 -0.58004,1.18846 -1.48793,2.16759 -1.89144,3.09377 l -0.17654,0.39657 0.35938,-0.24084 c 1.27357,-0.8543 2.24451,-2.96137 3.00739,-4.59053 0.16393,-0.34677 0.27111,-0.82593 0.40351,-1.26097 0.1324,-0.43566 0.30263,-0.81773 0.50438,-0.95832 0.34047,-0.23896 0.74397,-0.20554 1.20422,-0.0738 0.44134,0.12799 0.9142,0.34676 1.36815,0.45962 0.88267,0.70551 1.33031,1.46839 2.24451,2.37376 0.23328,0.23391 0.58004,0.48925 0.88267,0.74081 0.30894,0.25094 0.58004,0.50691 0.66831,0.67714 0.0441,0.0794 0.0567,0.18473 0.063,0.30326 0.0126,0.1179 0.0126,0.24778 0.0567,0.37514 0.32785,0.90474 1.16009,1.46082 1.9608,1.80633 0.0946,0.96968 0.49177,1.65249 1.00877,2.19848 0.51699,0.54663 1.13486,0.96527 1.68969,1.43498 -0.0567,2.80186 1.21682,4.31438 2.45887,5.78277 0.006,0.23202 -0.0189,0.49997 0,0.7509 -0.77549,-0.49619 -1.73382,-0.76919 -2.64171,-0.76288 -1.01508,0.006 -1.98602,0.36063 -2.56606,1.15441 -0.1261,0.17338 -0.32155,0.44701 -0.42873,0.74964 -0.10718,0.302 -0.12609,0.65948 0.11979,0.92429 l 0.0946,0.0952 0.0883,-0.0933 c 0.20176,-0.20113 0.34677,-0.48926 0.50439,-0.76288 0.15762,-0.27363 0.33415,-0.52898 0.54852,-0.66958 0.5296,-0.34676 1.51315,-0.46466 1.93557,-0.42116 1.29249,0.13177 2.23821,1.07119 3.23437,1.98097 0.98985,0.90979 2.04276,1.78931 3.53069,1.67519 l 0.22067,-0.0164 c 0.10088,0.66389 0.17654,1.37697 0.21436,2.16633 0.082,1.82903 -0.0126,3.33524 -0.43503,4.6189 -0.42872,1.28429 -1.17269,1.98287 -2.20038,2.46014 -1.02137,0.47727 -2.32647,0.72001 -3.82071,1.04975 -2.90652,0.6412 -5.45366,0.68344 -8.49258,0.8171 -2.74259,0.12042 -5.18885,0.99679 -7.83057,1.38832 -2.42105,0.35875 -4.89883,0.49997 -7.30097,0.69227 -3.70092,0.29696 -6.91385,1.11721 -9.51142,2.66504 -0.84107,0.5006 -1.57747,1.09389 -2.3952,1.57557 -1.45389,0.8562 -2.9538,1.65628 -4.41337,2.52193 -1.4583,0.86502 -3.02567,1.58692 -4.53378,2.39267 -2.86617,1.53144 -5.86663,3.02253 -9.30149,3.58365 2.15057,-1.25276 3.52124,-3.26904 5.04511,-5.09365 l -0.14816,-0.19608 c -0.74397,0.32974 -1.13235,1.10397 -1.62034,1.67203 -1.24079,1.44318 -2.53327,2.85482 -4.43417,3.75011 -1.99926,0.94572 -5.74557,0.78179 -8.03737,-0.006 -1.54846,-0.5296 -2.90211,-1.1853 -4.19522,-1.87631 -1.94314,-1.45452 -2.43429,-4.37554 -1.77417,-7.55947 0.34235,-1.64996 1.08947,-3.38946 1.63546,-5.09302 0.57815,-1.80317 1.31203,-3.3529 2.35359,-4.28853 1.06425,-0.56869 1.71364,-1.54026 2.87373,-2.06546 0.5977,-0.27047 1.28366,-0.29191 1.95008,-0.56554 0.84169,-0.3455 1.72688,-0.77738 2.32395,-1.42614 0.60085,0.19923 1.13108,0.15888 1.62538,0.005 0.51762,-0.16078 1.00309,-0.43188 1.53711,-0.66012 1.28997,-0.55041 2.42042,-1.04533 3.60509,-1.70797 1.0384,-0.58067 1.94314,-1.04029 2.53075,-2.00556 0.32911,-0.009 0.6185,-0.0422 0.86943,-0.13871 0.26922,-0.10339 0.49619,-0.27867 0.67714,-0.54221 0.1614,-0.23517 0.20112,-0.52582 0.273,-0.65381 0.0366,-0.0643 0.053,-0.0794 0.10214,-0.082 0.0498,-0.003 0.16077,0.0265 0.33415,0.13997 l 0.0353,0.0227 0.0416,-0.003 c 3.66247,-0.22887 6.33886,-1.49614 7.62504,-4.14415 0.65885,0.36946 1.55918,0.53401 2.47968,0.52203 0.97409,-0.012 1.9608,-0.2276 2.70539,-0.63174 0.15195,0.20049 0.28939,0.43377 0.45521,0.65822 -0.27237,0.3619 -0.56932,0.77423 -0.47475,1.53081 l 0.012,0.0984 0.0984,0.0113 c 0.45205,0.0523 0.78116,-0.0479 1.01759,-0.23769 0.2131,-0.17149 0.34362,-0.4054 0.45773,-0.64183 0.40981,0.0271 0.72505,-0.0517 0.93689,-0.20239 0.2276,-0.1614 0.33352,-0.40729 0.29569,-0.63931 -0.0378,-0.23138 -0.21562,-0.43692 -0.49177,-0.5359 -0.25093,-0.0895 -0.58572,-0.0902 -0.98985,0.0265 -0.0864,-0.23139 -0.20679,-0.44134 -0.38396,-0.60337 2.05221,-1.53838 3.7709,-4.15865 3.20977,-7.68494 0.19545,-0.62228 0.25219,-1.42047 0.25219,-2.08878 l -0.006,-0.14816 -0.14501,0.0246 c -0.1324,0.0214 -0.23328,0.0883 -0.30894,0.17023 -0.0694,0.0826 -0.11348,0.17653 -0.15131,0.26669 -0.0567,0.1406 -0.10719,0.25408 -0.17023,0.33415 -0.0378,-0.0378 -0.0694,-0.0864 -0.11349,-0.15446 -0.0631,-0.10845 -0.15762,-0.2522 -0.33416,-0.29948 l -0.0189,-0.004 h -0.0126 c -0.1696,-7.2e-4 -0.28498,0.0612 -0.37261,0.0984 -0.0883,0.0366 -0.15195,0.0599 -0.29885,0.0303 l -0.34172,-0.0687 0.21877,0.2711 c 1.02138,1.26412 1.07182,3.65427 0.36001,5.3572 0.0157,-0.0372 -0.007,-0.003 -0.0624,0.0252 -0.0549,0.0277 -0.13934,0.0555 -0.18788,0.15951 -0.0454,0.0977 -0.0233,0.19166 -0.0107,0.24652 0.0126,0.0555 0.0107,0.0694 0.0126,0.0649 -0.52834,1.05668 -1.40471,2.1222 -2.54714,2.78987 -1.13612,0.66327 -2.53201,0.93753 -4.14352,0.43251 -0.15635,-0.15446 -0.29317,-0.34865 -0.47349,-0.52456 -0.18788,-0.18283 -0.43251,-0.33983 -0.78116,-0.37135 l -0.10403,-0.009 -0.0284,0.10088 c -0.93059,3.264 -4.37491,5.11068 -8.49006,4.26079 l -0.20175,-0.0416 0.0548,0.1986 c 0.16014,0.58004 0.0132,0.89906 -0.29065,1.12162 -0.30389,0.22256 -0.79378,0.32722 -1.29753,0.35812 l -0.0984,0.006 -0.0177,0.0971 c -0.12799,0.69164 -0.6267,1.25024 -1.31518,1.73382 -0.68849,0.48358 -1.55981,0.8852 -2.3952,1.26286 -0.62103,0.28119 -1.18972,0.54473 -1.8265,0.81899 -0.57626,0.24841 -1.15505,0.49745 -1.66195,0.55987 -0.50691,0.0618 -0.92744,-0.0422 -1.27546,-0.51826 l -0.14123,-0.19355 -0.0794,0.22571 c -0.31524,0.89591 -1.30825,1.50244 -2.47023,1.69599 -1.16197,0.19293 -2.474,-0.0309 -3.38442,-0.7446 -0.58635,-0.45962 -1.15189,-1.27924 -1.5617,-2.18524 -0.40981,-0.90537 -0.66579,-1.89838 -0.65948,-2.69468 0.002,-0.25913 0.12609,-0.55734 0.25597,-0.84169 0.12925,-0.28435 0.27111,-0.54915 0.24778,-0.80954 -0.0227,-0.24904 -0.1923,-0.3827 -0.30452,-0.46403 -0.0561,-0.041 -0.0984,-0.0744 -0.1179,-0.10151 -0.0202,-0.0265 -0.0284,-0.0429 -0.0202,-0.0984 l 0.0385,-0.25724 -0.22571,0.12925 c -0.41423,0.23706 -0.61535,0.66705 -0.75406,1.13234 -0.11475,-0.11159 -0.24273,-0.22382 -0.40225,-0.30956 -0.23327,-0.12484 -0.52455,-0.18537 -0.83916,-0.0757 l -0.0838,0.029 -0.001,0.0883 c -0.004,0.39405 0.15573,0.65885 0.34991,0.85052 0.18789,0.18662 0.39847,0.31902 0.54915,0.48168 0.41675,1.05858 0.47601,2.25397 1.0031,3.4481 0.48232,1.09452 1.21619,2.08879 1.3776,2.99731 0.0479,0.26669 -0.003,0.4943 -0.0965,0.73451 -0.0876,0.22445 -0.21247,0.46151 -0.31714,0.72568 -1.5762,0.80702 -3.93672,1.3486 -5.22038,2.52256 -0.13492,0.12294 -0.31965,0.31271 -0.44133,0.54662 -0.12232,0.23391 -0.17969,0.52898 -0.0252,0.80513 l 0.0631,0.11348 0.11096,-0.0662 c 0.24967,-0.14753 0.41549,-0.36315 0.57185,-0.5731 0.15699,-0.20932 0.30578,-0.41423 0.51132,-0.56933 0.26228,-0.19671 0.82025,-0.48988 1.29438,-0.6765 0.88456,-0.34803 2.0333,-0.89024 3.04396,-0.7591 -0.007,0.0385 -0.0208,0.0794 -0.0467,0.12609 -0.046,0.0845 -0.12358,0.17843 -0.21626,0.27552 -0.18599,0.19293 -0.42809,0.39153 -0.59391,0.60337 -1.1872,1.51568 -1.3549,3.81315 -2.21929,5.50473 -0.96779,1.89397 -3.30562,3.28102 -6.24618,3.08368 -1.42173,-0.0952 -2.68269,-0.81773 -4.22233,-0.94572 -0.92113,-0.0763 -1.81894,0.12925 -2.64802,0.0631 -1.56989,-0.12483 -2.77159,-0.67398 -3.92033,-1.18278 -1.998929,-1.25272 -3.409378,-3.0994 -4.546955,-5.23547 -0.59385,-1.95071 -1.73874,-3.84341 -1.881103,-6.13458 -0.08978,-1.44506 -0.128113,-2.90021 -0.168715,-4.39256 0.02604,0.11286 0.05687,0.23013 0.118341,0.35748 0.184919,0.3827 0.484776,0.66957 0.775807,0.93375 0.291029,0.26417 0.57361,0.5069 0.743651,0.7799 0.28895,0.4653 0.462017,1.10586 0.760044,1.63358 0.148983,0.26354 0.332517,0.5006 0.586349,0.66515 0.253894,0.16393 0.575502,0.24904 0.976425,0.21941 l 0.02118,-0.24841 c -0.61869,-0.15384 -0.938535,-0.48988 -1.195834,-0.93311 -0.257361,-0.44323 -0.436797,-0.99364 -0.742454,-1.52828 -0.20106,-0.35245 -0.515418,-0.6141 -0.808403,-0.86503 -0.292982,-0.2503 -0.563271,-0.48988 -0.70103,-0.76792 -0.490011,-0.98923 -0.282646,-2.29117 0.0098,-3.5723 0.471348,-2.06483 1.957138,-4.18577 3.803501,-5.73108 1.810486,-1.51504 3.584666,-3.20032 5.871416,-3.69272 0.15006,-0.0322 0.37892,-0.058 0.54221,-0.0599 0.25094,-0.003 0.60022,0.10592 0.93501,0.21247 0.33478,0.10655 0.64939,0.21878 0.91735,0.16267 0.1469,-0.0303 0.26669,-0.12799 0.38459,-0.24967 0.11727,-0.12106 0.23202,-0.27048 0.3455,-0.42621 0.22761,-0.31146 0.46026,-0.64939 0.64688,-0.79882 0.37135,-0.29696 0.8833,-0.58634 1.39714,-0.72253 0.51321,-0.13618 1.01823,-0.12105 1.41417,0.15951 l 0.11853,0.0845 0.0662,-0.12988 c 0.68155,-1.3259 1.38643,-2.69594 2.39457,-3.71417 1.00814,-1.01822 2.31071,-1.69158 4.23557,-1.63861 l 0.053,0.001 0.0385,-0.0372 c 0.46151,-0.44954 0.71875,-1.06678 1.02957,-1.60268 l 0.001,-0.003 0.001,-0.003 c 1.21809,-2.31638 4.3188,-4.58296 7.48571,-5.42087 0.64183,-0.17023 1.52071,-0.30263 2.34475,-0.2875 0.82404,0.0151 1.58945,0.18473 2.01313,0.57374 0.10214,0.0933 0.17212,0.23832 0.25787,0.4035 0.0788,0.15132 0.18157,0.31588 0.3455,0.44954 0.67146,1.89648 -0.32155,4.1473 -0.76541,5.70144 l -0.0845,0.29632 0.26796,-0.15194 c 0.46466,-0.26291 0.52393,-0.82593 0.62544,-1.14307 0.37576,-1.17395 0.68974,-2.17389 0.76225,-3.49853 0.0221,-0.40288 -0.14123,-0.84611 -0.0649,-1.24394 0.13492,-0.70866 0.67903,-1.36626 1.35112,-1.97215 0.67209,-0.60526 1.46524,-1.1563 2.07365,-1.67519 0.40098,-0.34108 0.79819,-0.91797 1.19791,-1.26083 1.09452,-0.93828 2.56795,-1.56063 3.88944,-2.31903 l 0.0599,-0.0344 0.003,-0.0688 c 0.004,-0.0732 0.0277,-0.12004 0.0624,-0.1969 0.0341,-0.0769 0.0738,-0.18385 0.0637,-0.32293 l -0.0208,-0.27855 -0.16456,0.16872 c -0.01,-0.008 -0.008,-0.006 -0.0214,-0.0198 -0.0618,-0.0635 -0.15951,-0.17792 -0.31965,-0.23252 l -0.0372,-0.0126 -0.0372,0.0105 c -2.2918,0.63956 -4.20972,1.67323 -5.47446,3.37023 -1.1954,0.88602 -2.08311,1.72582 -3.89385,1.85759 -0.42558,0.0315 -0.8852,-0.024 -1.32149,0 -3.15304,0.17464 -5.44546,1.35553 -7.49957,2.66756 -1.01823,0.65003 -2.04339,1.38706 -2.80312,2.29496 -0.78117,0.93374 -1.26285,1.99925 -2.04969,2.92353 -1.84542,0.11538 -3.15997,0.78369 -4.17189,1.7395 -1.00562,0.95077 -1.71617,2.17894 -2.39394,3.42666 -1.89586,-0.0265 -3.28733,0.96338 -4.19207,2.12283 -2.10769,-0.66263 -4.18828,0.43756 -5.69828,1.42489 -2.416132,1.57999 -4.362741,3.88376 -5.759256,6.4246 0.08013,-0.79567 0.335984,-1.55666 0.649081,-2.2981 v -7.2e-4 c 0.364543,-0.86376 0.708281,-1.78426 1.12982,-2.57425 0.825994,-1.54783 2.08954,-2.82581 3.142445,-4.27151 2.08185,-2.85734 3.9405,-5.98831 7.08093,-7.65403 0.90222,-0.47854 1.84226,-0.8272 3.09692,-0.86755 l 0.0536,-0.002 0.0353,-0.0391 c 1.56548,-1.71365 3.3529,-3.28355 5.45996,-4.64412 2.04781,-1.32212 4.26521,-2.39079 6.66482,-3.45806 5.16552,-2.29716 10.7686,-3.9139 17.35398,-4.213 1.11406,-0.0506 2.34791,-0.0605 3.46133,-0.0629 z m -5.60056,1.43542 c -2.76718,0.0103 -5.04384,1.23435 -6.67049,2.65936 -0.59139,-0.0323 -1.29752,-0.10251 -1.92107,-0.06 -4.82066,0.32867 -8.09285,2.39848 -10.97352,4.56418 -0.43692,0.32785 -0.80954,0.76856 -1.24394,0.99742 -0.26984,0.14249 -0.59517,0.18158 -0.92491,0.24084 -0.32975,0.0593 -0.67147,0.14375 -0.93438,0.41297 l -0.20742,0.21247 0.29695,0.002 c 0.74523,0.004 1.37571,-0.29948 1.8864,-0.39846 -0.14564,0.22571 -0.31083,0.47727 -0.44827,0.75909 -0.18599,0.37955 -0.3102,0.79882 -0.1696,1.19477 l 0.1551,0.43629 0.0876,-0.45458 c 0.41738,-2.16633 2.03393,-3.17762 3.72677,-4.26772 2.87499,-1.85173 6.90881,-3.82532 11.25913,-3.13356 l 0.14564,0.0231 7.1e-4,-0.1474 c 0,-0.12856 -0.0454,-0.20737 -0.0738,-0.25012 0.007,-0.009 0.006,-0.009 0.0353,-0.0379 l 7.2e-4,-7.1e-4 7.1e-4,-9.6e-4 c 1.48731,-1.49474 3.80874,-2.1877 6.54376,-2.48523 l -0.007,-0.25118 c -0.1904,-0.0106 -0.37829,-0.0154 -0.56428,-0.0147 z m 17.81045,0.24399 c -0.0429,0.001 -0.0832,0.008 -0.12042,0.0181 -0.14942,0.0401 -0.27237,0.13227 -0.29821,0.14614 -1.32464,0.7197 -3.2949,1.55805 -4.71978,2.20227 l -0.0221,0.0102 -0.017,0.0179 c -1.34986,1.41991 -2.71611,2.76157 -5.15608,3.05096 l -0.0952,0.0107 -0.0145,0.0952 c -0.5214,3.42981 -2.32269,5.52616 -5.27397,6.51854 l -0.082,0.0277 -0.004,0.0864 c -0.0876,1.97466 -0.83286,3.40144 -1.9671,4.48019 -1.13486,1.07812 -2.66441,1.80381 -4.31312,2.33972 l -0.11537,0.0378 0.0334,0.11664 c 0.33478,1.179 0.0233,2.16697 -0.57942,2.98849 -0.60274,0.82214 -1.50243,1.46649 -2.32206,1.90909 l -0.11159,0.0605 0.0605,0.11096 c 0.94005,1.72311 1.32842,4.52181 0.68281,6.77641 -0.0965,0.33731 -0.29507,0.66768 -0.44638,1.01633 -0.15132,0.34866 -0.25408,0.72821 -0.11916,1.13802 l 0.0353,0.10782 0.11096,-0.024 c 0.52645,-0.11412 0.84296,-0.52519 1.04093,-0.99427 0.19734,-0.46845 0.29065,-1.00751 0.37955,-1.43561 0.42431,-2.03456 0.41864,-4.19206 -0.47602,-6.1661 1.4892,-1.22313 2.90778,-2.45194 2.99605,-4.99719 3.00487,-1.23196 5.39061,-3.14043 6.10431,-6.68751 1.66699,-1.01319 3.17132,-2.11211 4.09813,-3.86485 0.53528,-1.01192 0.81899,-1.92486 1.30131,-2.97398 1.09767,-0.13996 1.725,-0.52078 2.55975,-1.01129 1.0983,-0.64498 1.67708,-1.62456 2.58308,-2.14237 0.78621,-0.44909 1.61845,-0.70211 2.41979,-1.00877 0.80071,-0.30661 1.57178,-0.66926 2.21109,-1.34665 l 0.0933,-0.099 -0.10592,-0.0856 c -0.0101,-0.009 -0.008,-0.007 -0.017,-0.0147 0.0233,-0.0272 0.0441,-0.06 0.0574,-0.099 l 0.0208,-0.0611 -0.0372,-0.0525 c -0.0675,-0.095 -0.15383,-0.15749 -0.24336,-0.18448 -0.0448,-0.0135 -0.0895,-0.0183 -0.13177,-0.0172 z m 0.23959,0.33334 c 0.002,0.001 0.004,0.003 0.006,0.006 -7.2e-4,-5.7e-4 -0.004,-0.003 -0.006,-0.005 0,-2.6e-4 0,-4.5e-4 7.2e-4,-6.9e-4 z m 13.83653,4.03911 c -0.97725,0.0334 -1.81578,0.41296 -2.59758,0.83602 -0.7818,0.42368 -1.51946,0.89023 -2.28865,1.12351 -0.45394,0.13619 -1.03399,0.0826 -1.55098,0.46025 l -0.35307,0.25472 0.43503,-0.0271 c 1.72752,-0.10907 2.7552,-0.75847 3.89007,-1.33725 0.81962,-0.41612 1.58881,-0.73136 2.50931,-1.06551 z m -42.35192,6.05072 c -0.0101,0 -0.0208,0.001 -0.0309,0.003 l -0.0668,0.0113 -0.0271,0.0624 c -0.52708,1.2162 -1.10523,2.5711 -1.64114,3.97707 -0.59644,1.56297 -1.39841,3.2659 -1.4583,5.02052 -0.0643,1.87947 0.3455,3.92285 0.25786,5.98327 -0.55608,-0.28246 -1.3114,-0.50061 -2.11337,-0.58761 -0.85115,-0.0921 -1.73634,-0.0334 -2.44942,0.26039 -1.46523,-2.01943 -3.55591,-3.77847 -6.91889,-3.69714 l -0.0265,0.24841 c 2.74889,0.65002 4.95432,1.80065 6.04631,4.06282 -1.52261,1.06614 -2.6373,2.43996 -3.11395,4.42156 -0.2938,1.2225 -0.58634,2.49355 -1.17521,3.60257 -0.8108,0.63867 -1.66699,1.06551 -2.66883,1.02894 -1.80759,-0.0656 -3.5578,-1.62664 -4.78598,-2.4986 l -0.31335,-0.22192 0.12042,0.36441 c 0.28498,0.8625 0.86376,1.67582 1.68024,2.32837 0.71307,0.56995 1.80885,0.96653 2.5402,1.50811 0.36568,0.27047 0.63427,0.56995 0.7364,0.93059 0.10214,0.35811 0.0473,0.79251 -0.27741,1.3631 -0.42809,0.53654 -1.12225,0.80954 -1.86307,1.09451 -0.74396,0.28561 -1.5327,0.58509 -2.09761,1.22566 -1.24583,1.41354 -1.66068,3.58617 -0.58067,5.38115 0.49177,0.8171 1.6361,1.54783 2.84221,1.3196 l 0.40981,-0.0776 -0.38396,-0.16266 c -0.94194,-0.39847 -1.59008,-0.69921 -2.02006,-1.45894 -0.79315,-1.40282 -0.51763,-2.68774 0.24084,-3.70596 0.74523,-1.00247 1.97151,-1.72437 3.0862,-1.95702 0.60968,0.54474 1.73761,0.82341 2.76592,0.76225 0.52898,-0.0315 1.0321,-0.15509 1.42111,-0.39972 0.389,-0.24463 0.662,-0.62229 0.69731,-1.12163 l 0.0158,-0.22319 -0.19923,0.10214 c -0.43251,0.22256 -0.68849,0.59896 -1.22187,0.68092 -0.79819,0.12232 -1.65186,-0.20554 -2.15751,-0.57311 0.51069,-0.40161 0.74145,-1.06551 1.00625,-1.63294 0.14501,-0.31146 0.30011,-0.59391 0.50123,-0.79504 0.20112,-0.20175 0.4426,-0.32911 0.79945,-0.34172 0.49367,-0.017 0.85619,0.16582 1.23889,0.39279 0.38271,0.22761 0.77991,0.50123 1.31519,0.61346 l 0.13114,0.0277 0.0195,-0.1324 c 0.0429,-0.28372 -0.0612,-0.49367 -0.18662,-0.64309 -0.12547,-0.15005 -0.26228,-0.25787 -0.33227,-0.3827 -0.54978,-0.97914 -0.74523,-2.47905 -0.65318,-3.93736 0.0927,-1.45767 0.47476,-2.87562 1.0258,-3.6839 0.57058,-0.83727 1.69851,-1.65816 2.92417,-2.06041 1.22565,-0.40224 2.53579,-0.38963 3.5124,0.38586 0.74649,0.59265 0.93438,1.64177 0.93942,2.88697 0.005,1.2452 -0.17212,2.66504 -0.10466,3.95564 l 0.003,0.0605 0.0504,0.0353 c 0.1923,0.13618 0.42747,0.2648 0.76225,0.27552 l 0.11538,0.004 0.0139,-0.11538 c 0.0303,-0.2648 0.1696,-0.62418 0.30389,-0.97661 0.13493,-0.35307 0.26859,-0.69732 0.26418,-0.99427 -0.0259,-1.69284 -0.3392,-4.11767 -0.56807,-6.25248 -0.11222,-1.04281 0.0347,-1.95953 7.2e-4,-2.9538 -0.0195,-0.55987 -0.1633,-1.36941 -0.26102,-2.22686 -0.0977,-0.85746 -0.14816,-1.75904 0.006,-2.47023 0.55671,-2.56984 1.51126,-5.47194 2.20479,-7.87155 l 0.0441,-0.15384 -0.15825,-0.007 c 0.001,0.001 -0.002,0 -0.002,0 h 0.002 c -7.2e-4,-0.001 -0.004,-0.005 -0.0202,-0.0164 -0.029,-0.0202 -0.0958,-0.0504 -0.16708,-0.0479 z m -17.67994,1.25781 -0.23265,0.075 c 0.058,0.95707 -0.14816,1.87694 -0.81647,2.33782 -1.97971,0.52519 -3.32201,1.70798 -4.24566,3.28481 -1.16135,0.28939 -2.06609,0.82656 -2.78421,1.59638 -0.6475,0.69478 -0.90789,1.69473 -1.3984,2.40969 -0.34361,0.50124 -0.726883,0.70614 -1.010158,1.13739 l -0.179751,0.27363 0.316817,-0.0826 c 0.688992,-0.17906 1.090602,-0.65822 1.390082,-1.19792 0.29885,-0.53969 0.51006,-1.14558 0.82719,-1.62853 0.67084,-1.02327 1.80444,-1.8347 3.0591,-1.96143 l 0.0643,-0.006 0.0322,-0.0555 c 0.52014,-0.89528 1.20043,-1.80128 2.11022,-2.45383 0.91041,-0.65318 2.0478,-1.05732 3.50799,-0.9514 0.23769,0.0177 0.50754,0.10655 0.76477,0.15825 0.12862,0.0259 0.25535,0.0422 0.37955,0.029 0.12421,-0.0139 0.24904,-0.063 0.34362,-0.16266 l 0.11727,-0.1242 -0.15321,-0.0757 c -0.34614,-0.17149 -0.83665,-0.2295 -1.33725,-0.25346 -0.40351,-0.0195 -0.77171,-0.0113 -1.10208,-0.009 0.17842,-0.24525 0.34739,-0.56995 0.45205,-0.92365 0.13808,-0.46719 0.16267,-0.99049 -0.10529,-1.41543 z m 51.53298,3.15493 c -0.0126,0 -0.0189,0.001 -0.0315,0.003 l -0.0252,0.004 -0.0252,0.0151 c -0.0757,0.0517 -0.11349,0.12799 -0.13871,0.19419 -0.0189,0.0662 -0.0315,0.12925 -0.0504,0.17843 -0.0126,0.0498 -0.0252,0.082 -0.0378,0.0939 -0.0126,0.008 -0.0315,0.008 -0.0441,0.0107 -0.063,-0.0378 -0.11349,-0.10592 -0.18284,-0.1986 -0.082,-0.10403 -0.21437,-0.22634 -0.40981,-0.23706 l -0.13871,-0.008 0.006,0.13808 c 0.006,0.31713 0.15762,0.58572 0.30893,0.848 0.15762,0.26228 0.31524,0.52141 0.38459,0.81584 0.2585,1.07119 0.6494,2.4015 0.86376,3.7129 0.20176,1.26979 0.22698,2.51562 -0.18914,3.48341 -0.0315,-0.0101 -0.0504,-0.0177 -0.0946,-0.0271 -0.082,-0.0177 -0.20806,10e-4 -0.29633,0.0902 l -0.0694,0.0712 0.0567,0.0839 c 0.19545,0.30767 0.5233,0.46403 0.88898,0.5586 l 0.1387,0.0341 0.0189,-0.13556 c 0.0189,-0.0876 0.006,-0.16707 -0.0189,-0.23201 -0.0315,-0.0649 -0.0757,-0.10971 -0.11348,-0.14186 -0.063,-0.0523 -0.082,-0.0719 -0.10088,-0.0996 0.73766,-1.43876 0.42242,-3.03639 0.0378,-4.59053 -0.3972,-1.57999 -0.85115,-3.12403 -0.43503,-4.43795 l 0.0441,-0.15699 -0.15762,-0.007 c 0,0.001 -0.006,0 -0.006,0 h 0.006 c 0,-0.001 -0.006,-0.004 -0.0252,-0.0157 -0.0252,-0.0208 -0.0946,-0.0511 -0.16392,-0.0486 z m 4.4638,1.57746 -0.11979,0.003 -0.006,0.11979 c 0,0.15699 0.0567,0.28687 0.14501,0.36946 0.0883,0.0826 0.19545,0.12294 0.29632,0.15636 0.10088,0.0328 0.19545,0.0599 0.26481,0.0933 0.063,0.0334 0.10087,0.0662 0.11979,0.11916 1.76534,6.54124 -1.9671,11.55483 -6.97312,13.0125 l -0.16393,0.0473 0.0946,0.14186 c 0.1324,0.20995 0.0946,0.41044 0.0378,0.62229 -0.0315,0.10592 -0.0694,0.20995 -0.0883,0.31587 -0.0189,0.10592 -0.0189,0.2276 0.0504,0.32911 l 0.063,0.0857 0.0946,-0.0479 c 0.23958,-0.11727 0.35307,-0.34992 0.39089,-0.58761 0.0252,-0.19545 0,-0.39594 -0.0441,-0.58004 1.29249,-0.45332 2.4904,-1.05795 3.71353,-1.99674 0.5296,-0.41107 0.96464,-0.94572 1.5636,-1.31644 0.56112,-0.34992 1.39966,-0.80512 2.01123,-0.80071 0.3909,0.003 0.68092,0.16455 0.95202,0.39405 0.26481,0.22256 0.50439,0.50691 0.76919,0.74901 0.33416,0.70992 0.25219,1.35553 0.0946,2.05095 -0.16392,0.68723 -0.3972,1.4148 -0.35937,2.24641 -0.0378,0.0492 -0.17023,0.12735 -0.30894,0.21625 -0.0757,0.0467 -0.15131,0.10025 -0.20175,0.19167 -0.0504,0.0914 -0.0441,0.21815 0.0189,0.32785 l 0.0567,0.10025 0.10088,-0.0467 c 0.30263,-0.13303 0.53591,-0.31335 0.76919,-0.44197 0.23327,-0.12861 0.46655,-0.21247 0.80701,-0.17779 l 0.16393,0.0164 -0.0252,-0.16329 c -0.0189,-0.12421 -0.11349,-0.22004 -0.21437,-0.26165 -0.0946,-0.0422 -0.20805,-0.0479 -0.31524,-0.0441 -0.14501,0.005 -0.28371,0.029 -0.3972,0.0498 0.11979,-2.06671 1.179,-3.63724 2.33908,-4.86416 0.88268,-0.67966 1.696,-1.41606 2.57867,-2.1367 1.07182,-0.87447 2.00493,-1.99673 3.19023,-2.56858 l 0.11979,-0.0599 -0.0694,-0.11727 c -0.24588,-0.42053 -0.58004,-0.7156 -0.81962,-1.07749 l -0.18915,-0.28877 -0.0441,0.34299 c -0.10718,0.91104 -0.28372,1.38958 -0.7881,1.94818 -0.56744,0.63553 -1.5699,1.27231 -2.50932,2.06861 -0.54221,0.4634 -1.00877,0.96148 -1.51315,1.33158 -0.50438,0.37009 -1.04029,0.61472 -1.74013,0.59265 -1.22944,-0.0391 -1.86622,-0.60211 -2.20668,-1.46839 -0.34676,-0.86565 -0.35937,-2.04465 -0.2585,-3.2495 0.16393,-1.88388 0.15132,-3.75577 -0.31524,-5.34206 l -0.0315,-0.0958 -0.10088,0.006 c -0.20175,0.012 -0.30263,-0.0504 -0.43503,-0.13366 -0.13871,-0.0832 -0.30894,-0.18915 -0.56743,-0.18158 z m 14.12277,7.24675 c -0.0441,-7.1e-4 -0.0883,0 -0.1324,0.003 l -0.11349,0.008 -0.006,0.11096 v 0.003 -0.003 c 0,0.001 -0.006,0.005 -0.0126,0.0208 -0.0252,0.0284 -0.0504,0.0946 -0.0504,0.16455 0,-0.006 0,-0.012 0.006,-0.0177 l -0.006,0.0504 v -0.0328 c -0.26481,1.07686 -0.97725,1.56926 -1.72122,2.25081 -1.61403,1.47155 -2.96326,3.54078 -3.44242,6.12197 -0.19545,1.02579 -0.27111,2.17642 -0.73136,2.71296 -0.42242,0.46593 -1.02138,0.69227 -1.72752,0.84106 -0.70614,0.1488 -1.51946,0.21626 -2.3643,0.37955 -0.86376,0.16834 -1.5762,0.53528 -2.26343,0.87763 -0.69353,0.34298 -1.35553,0.66201 -2.13733,0.76036 -0.90159,0.11286 -1.5699,0.0359 -2.30125,-0.14564 0.31524,-0.51384 0.36568,-1.16576 0.39089,-1.82776 0.0252,-0.73199 0.0126,-1.48289 0.21437,-2.08437 0.0946,-0.26543 0.24589,-0.45017 0.40351,-0.64435 0.15762,-0.19482 0.31524,-0.40414 0.35937,-0.7011 l 0.0189,-0.13303 -0.1324,-0.012 c -0.1387,-0.012 -0.2585,0.0397 -0.35937,0.11664 -0.0946,0.0769 -0.17654,0.17717 -0.24589,0.28372 -0.0757,0.11475 -0.14501,0.23454 -0.21437,0.34424 -0.0189,-0.12609 -0.0378,-0.24652 -0.063,-0.37324 -0.0441,-0.22887 -0.11979,-0.45521 -0.30894,-0.59833 l -0.15762,-0.11916 -0.0441,0.19293 c -0.0568,0.27174 0,0.54915 0.0756,0.82152 0.0694,0.26732 0.15132,0.53086 0.17024,0.7736 -0.27111,0.8026 -0.31525,1.6424 -0.39721,2.40087 -0.0883,0.76981 -0.21436,1.44821 -0.64309,1.93683 -0.67461,0.77612 -1.80948,0.87953 -3.08305,1.15757 -1.53837,0.3373 -2.86806,1.12225 -4.5155,1.19476 -1.39967,0.0618 -2.3788,-0.12295 -3.36046,-0.43566 -0.27237,-0.0864 -0.546,-0.24463 -0.82593,-0.36947 -0.27994,-0.12483 -0.57626,-0.21877 -0.88394,-0.13618 l -0.10214,0.0271 0.009,0.10466 c 0.0246,0.30705 0.17969,0.51699 0.36631,0.65696 0.046,0.0353 0.0965,0.0593 0.14564,0.0889 -0.73135,0.0422 -1.26159,0.27804 -1.85046,0.42747 0.17465,-0.19734 0.40477,-0.38019 0.62481,-0.57942 0.31335,-0.28371 0.60526,-0.62354 0.58698,-1.1128 l -0.004,-0.11474 -0.11412,-0.007 c -0.32974,-0.0183 -0.55356,0.16204 -0.69731,0.36442 -0.14438,0.20238 -0.24021,0.42999 -0.35181,0.56302 -0.84295,1.00057 -1.97215,1.77669 -3.06288,2.57803 -0.62354,-0.39405 -1.44065,-0.52582 -2.29368,-0.58571 -0.86061,-0.0599 -1.75653,-0.0492 -2.52508,-0.13808 -0.0605,-0.14375 -0.0857,-0.29758 -0.10277,-0.45962 -0.0183,-0.1841 -0.0315,-0.37766 -0.13051,-0.55545 l -0.0347,-0.0624 -0.0719,-0.002 c -0.45962,-0.0139 -0.74019,0.16141 -0.92618,0.39216 -0.18662,0.23013 -0.29884,0.49934 -0.49618,0.7219 -2.81699,3.19087 -7.24612,5.40638 -12.16009,6.38993 -0.24967,0.0504 -0.56428,0.058 -0.85682,0.10592 -0.29254,0.0473 -0.5813,0.1387 -0.7383,0.39279 l -0.0933,0.15131 0.17339,0.0378 c 0.3764,0.0832 0.79566,-0.002 1.19287,-0.0914 0.31398,-0.0706 0.61408,-0.14186 0.85241,-0.15699 -0.0902,0.17212 -0.23328,0.33605 -0.3764,0.50439 -0.18725,0.22003 -0.38081,0.45394 -0.38081,0.75594 v 0.17717 l 0.16771,-0.058 c 0.39972,-0.13933 0.6248,-0.45394 0.80638,-0.76666 0.17528,-0.30263 0.32218,-0.60715 0.53843,-0.81143 1.75904,-0.24841 3.3239,-0.89213 4.64665,-1.3858 1.54026,-0.57499 2.83716,-1.16639 4.11577,-1.90027 0.49872,-0.2856 1.13613,-0.61598 1.65376,-1.01822 0.57563,-0.44701 1.11469,-0.99553 1.5327,-1.1128 0.39846,-0.1116 1.44569,-0.15573 2.44563,-0.11223 0.49997,0.0214 0.99301,0.0637 1.39652,0.12421 0.40413,0.0611 0.72568,0.14942 0.84862,0.22571 0.24778,0.15447 0.32407,0.37072 0.40919,0.62733 0.0851,0.25723 0.17527,0.55608 0.46844,0.75658 l 0.0675,0.046 0.0693,-0.0422 c 0.16078,-0.0971 0.21373,-0.27363 0.24274,-0.43756 0.0271,-0.1532 0.0372,-0.30641 0.0624,-0.43061 1.07623,-1.16009 2.4904,-2.23254 4.49344,-2.39205 1.52765,-0.12168 3.20662,0.23832 4.85281,0.1261 1.50306,-0.10214 2.70476,-0.73199 3.80179,-1.01192 0.64309,-0.1633 1.3051,-0.21058 1.95449,-0.37829 1.01508,-0.26039 1.82209,-0.84358 2.46518,-1.31519 0.68092,0.10214 1.62664,0.22193 2.56606,0.12043 1.4375,-0.15636 2.38952,-1.0321 3.74506,-1.51946 0.96463,-0.34551 2.11841,-0.39027 3.12718,-0.57752 0.51069,-0.0939 0.97725,-0.22382 1.36814,-0.45647 0.27111,-0.15762 0.49178,-0.36946 0.66831,-0.63931 0.0504,0.29948 0.15763,0.57689 0.32785,0.78873 0.2522,0.3184 0.6494,0.48547 1.07182,0.31524 l 0.0694,-0.0303 0.006,-0.0794 c 0.0252,-0.44575 -0.11979,-0.74901 -0.2585,-1.02579 -0.14501,-0.27742 -0.28371,-0.5315 -0.30893,-0.9432 -0.0252,-0.40792 0.0189,-0.87196 0.0631,-1.30321 0.4035,-3.86358 2.79933,-7.18559 6.26697,-7.89551 l 0.0883,-0.0183 0.0126,-0.0889 c 0.0504,-0.39847 -0.10088,-0.6349 -0.20175,-0.83224 l -0.0378,-0.0624 -0.0694,-0.004 c -0.28371,-0.017 -0.54851,0.0681 -0.77549,0.15257 -0.0946,0.0359 -0.17653,0.0687 -0.2585,0.0971 0.0504,-0.0832 0.10088,-0.16708 0.15132,-0.26039 0.10088,-0.17906 0.18284,-0.39468 0.18284,-0.68344 v -0.10529 l -0.10088,-0.0183 c -0.22067,-0.0385 -0.42873,-0.12483 -0.71875,-0.13051 z m -13.18335,0.63237 c 0,0.0933 0,0.18536 0.0126,0.27111 0.082,0.5977 0.40982,1.10775 0.5233,1.5535 -0.64939,-0.0133 -1.21052,0.24589 -1.74012,0.47476 0.49177,-0.67147 0.93311,-1.40093 1.20421,-2.29937 z m -53.19493,2.41979 c -0.26039,7.1e-4 -0.51889,0.0473 -0.73073,0.10718 -0.91672,0.26039 -2.15939,0.95707 -2.86932,1.40093 -0.21436,0.13492 -0.36189,0.2875 -0.49366,0.40224 -0.13177,0.11475 -0.24085,0.18915 -0.40099,0.20996 -0.52078,0.0681 -1.00435,-0.22193 -1.52513,-0.56303 -0.52015,-0.34045 -1.07056,-0.7282 -1.73067,-0.76162 -0.50312,-0.0252 -0.9514,0.0662 -1.36184,0.13997 -0.40981,0.0738 -0.78054,0.12799 -1.13991,0.0517 -0.13177,-0.0277 -0.23328,-0.0984 -0.36883,-0.17464 -0.13555,-0.0763 -0.30768,-0.15069 -0.54411,-0.14312 l -0.1387,0.005 0.0183,0.13808 c 0.10214,0.76099 -0.12358,1.25528 -0.50943,1.63862 -0.38648,0.3827 -0.94509,0.64498 -1.49487,0.87573 l -0.0328,0.0139 -0.0202,0.0284 c -0.0618,0.0858 -0.0788,0.19104 -0.0593,0.27742 0.0195,0.0857 0.0637,0.15383 0.10781,0.21499 0.0864,0.12105 0.16771,0.22697 0.17843,0.2875 -0.017,0.90159 -0.43882,1.58503 -0.905435,2.26595 -0.468888,0.6847 -0.983927,1.36373 -1.109584,2.24262 -0.209003,1.46334 0.539378,2.72305 1.30724,3.33209 0.686339,0.5441 1.644039,0.80702 2.267589,1.32212 0.0971,0.0807 0.16518,0.18851 0.2585,0.30389 0.0927,0.11475 0.22003,0.23391 0.41927,0.28813 l 0.15383,0.0416 0.005,-0.15951 c 0.0126,-0.37892 -0.18914,-0.65822 -0.43629,-0.85556 -0.24715,-0.19671 -0.54284,-0.33101 -0.76225,-0.45584 -0.68849,-0.39279 -1.45452,-0.79378 -1.998373,-1.35743 -0.544105,-0.56428 -0.875864,-1.27861 -0.712884,-2.35989 0.128554,-0.85241 0.702607,-1.51567 1.208187,-2.29495 0.48926,-0.75468 0.89718,-1.63231 0.69795,-2.86427 0.58508,-0.13556 1.0239,-0.43125 1.34922,-0.82593 0.32533,-0.39468 0.54348,-0.88141 0.73073,-1.39021 0.67146,0.17906 1.31834,0.10529 1.91099,0.0309 0.6267,-0.0788 1.19035,-0.14501 1.68275,0.0662 0.72569,0.31146 1.35491,1.03336 2.15436,1.30384 0.1614,0.36063 0.0681,1.0094 0.0385,1.60457 -0.0158,0.30641 -0.0114,0.59959 0.0889,0.84611 0.10087,0.24651 0.31839,0.43503 0.65128,0.47853 l 0.26165,0.0341 -0.13744,-0.22508 c -0.58509,-0.95834 -0.41801,-1.84921 0.0725,-2.61776 0.48925,-0.76667 1.31203,-1.3921 2.01312,-1.73887 0.40225,-0.0889 0.75532,-0.31019 1.12604,-0.43881 0.18095,-0.0624 0.40855,-0.0902 0.63363,-0.14438 0.22509,-0.0536 0.45584,-0.13808 0.61977,-0.33542 l 0.13114,-0.15762 -0.19986,-0.0454 c -0.0952,-0.0221 -0.19356,-0.0347 -0.29255,-0.0397 -0.0372,-0.002 -0.0744,-0.003 -0.11159,-0.003 z m 56.93998,0.5441 c -0.11348,0.16519 -0.23327,0.34424 -0.35307,0.53276 -0.15762,0.23895 -0.32784,0.46466 -0.49808,0.66327 -0.0252,-0.49115 -0.16392,-0.87953 -0.37828,-1.19161 0.3972,0.07 0.84484,0.0801 1.22943,-0.004 z m -67.65059,5.54697 -0.006,0.11979 c -0.0139,0.26418 -0.099,0.43693 -0.22508,0.58383 -0.12547,0.1469 -0.29759,0.26543 -0.4779,0.3909 l -0.13241,0.0921 0.12169,0.10592 c 0.86754,0.76099 1.51504,1.77606 2.39835,2.58749 -0.23643,0.63994 -0.24337,1.16702 -0.0895,1.6071 0.16077,0.45962 0.48168,0.82025 0.84169,1.14621 0.72064,0.65255 1.59511,1.18342 1.85487,2.04024 l 0.24652,-0.0296 c 0.0322,-0.5687 -0.18536,-1.0031 -0.49808,-1.35239 -0.31209,-0.34865 -0.71559,-0.62291 -1.07812,-0.90789 -0.3619,-0.28561 -0.68029,-0.57941 -0.84358,-0.95013 -0.15258,-0.34677 -0.1715,-0.77423 0.0416,-1.36247 0.3228,0.11159 0.73388,0.2793 1.16891,0.3909 0.48358,0.12294 0.99237,0.17401 1.39966,-0.0662 l 0.31714,-0.18726 -0.36505,-0.0466 c -1.24394,-0.15825 -2.28676,-0.50502 -3.0219,-1.13739 -0.73577,-0.63237 -1.17836,-1.54972 -1.21809,-2.9021 l -0.003,-0.12232 z m -4.3326,6.27014 -0.314736,0.10339 c -0.498332,0.1633 -0.846422,0.5397 -1.05221,1.0031 -0.205852,0.4634 -0.276214,1.0157 -0.233844,1.56359 0.04237,0.54726 0.197782,1.09073 0.456215,1.53585 0.258433,0.44449 0.623798,0.79441 1.086004,0.92933 l 0.202321,0.0593 -0.04363,-0.20617 c -0.05031,-0.23832 -0.209634,-0.38712 -0.364102,-0.50502 -0.154468,-0.11853 -0.308431,-0.21751 -0.413785,-0.36252 -0.371983,-0.51195 -0.613078,-1.43687 -0.481812,-2.23821 0.05599,-0.34172 0.210454,-0.58698 0.400796,-0.82656 0.190342,-0.23958 0.417946,-0.46908 0.592464,-0.76919 z m 82.90193,0.95202 -0.40351,0.23391 c -1.60142,0.93185 -3.58744,1.47974 -6.11567,1.49613 l -0.0252,0.24967 c 1.63925,0.31776 3.18393,-0.087 4.41967,-0.5088 0.69353,-0.23895 1.55099,-0.45142 1.89775,-1.06614 z m 3.9468,0.8316 -0.0441,0.0788 c -0.40351,0.69415 -1.3114,1.40534 -2.40213,1.92801 -1.08443,0.52203 -2.33908,0.85934 -3.41721,0.84547 -0.75658,-0.009 -1.46902,-0.34109 -2.29495,-0.18662 l -0.40981,0.0769 0.38459,0.16266 c 1.59512,0.67335 3.37308,0.56996 4.95558,0.082 1.54468,-0.47538 2.90021,-1.31329 3.75136,-2.18209 0.84485,0.57437 2.03015,0.50502 3.18393,0.43377 1.19161,-0.0738 2.3517,-0.14123 3.08936,0.39216 l 0.18284,0.13303 0.0189,-0.22697 c 0.006,-0.13934 -0.0441,-0.26543 -0.1261,-0.36568 -0.082,-0.0996 -0.18284,-0.17969 -0.29633,-0.25282 -0.22697,-0.14501 -0.48547,-0.26354 -0.63678,-0.37514 l -0.0252,-0.0177 -0.0315,-0.004 c -0.95834,-0.13934 -1.76535,0.10213 -2.4841,0.12483 -1.23574,0.0391 -2.19407,-0.40288 -3.31002,-0.62796 z m -13.60577,0.88961 c -0.0315,0.001 -0.063,0.004 -0.0946,0.0107 l -0.10719,0.0189 v 0.10907 c 0.006,0.0536 -0.006,0.0662 -0.0378,0.11601 l -0.006,0.007 -0.006,0.007 c -0.35307,0.73514 -0.93942,1.22187 -1.66447,1.61529 -0.72506,0.39342 -1.58882,0.68911 -2.4904,1.03273 -3.56852,1.36688 -8.34126,2.91786 -12.43056,2.76592 -0.17212,-0.006 -0.56996,-0.0958 -0.935,-0.10719 -0.18284,-0.006 -0.3619,0.006 -0.517,0.0719 -0.1551,0.0649 -0.28498,0.20175 -0.3165,0.39279 l -0.008,0.046 0.0246,0.0397 c 0.0883,0.14628 0.24022,0.21689 0.39153,0.23769 0.15132,0.0208 0.31083,0.003 0.47097,-0.0177 0.24084,-0.0315 0.48106,-0.0643 0.66327,-0.0359 -0.0977,0.10466 -0.21815,0.22508 -0.31966,0.36883 -0.0719,0.10277 -0.13177,0.22004 -0.12924,0.35559 0.002,0.13493 0.075,0.27111 0.2112,0.38397 l 0.0776,0.0643 0.0794,-0.0611 c 0.273,-0.20995 0.44197,-0.46025 0.60464,-0.65822 0.16203,-0.19797 0.30704,-0.3392 0.54284,-0.39027 1.17395,-0.25282 2.44122,-0.20175 3.64544,-0.37703 2.14363,-0.31019 4.42597,-1.09388 6.39308,-1.77039 1.39966,-0.48295 3.05152,-1.07686 4.42597,-1.70671 0.60526,-0.28056 1.02138,-0.59265 1.40597,-0.61913 0.15132,-0.0107 0.3846,0.0574 0.62418,0.10844 0.23328,0.0511 0.49808,0.0883 0.70614,-0.0719 l 0.0315,-0.0284 0.0126,-0.0448 c 0.0315,-0.16834 -0.0441,-0.32596 -0.17023,-0.40603 -0.11979,-0.0801 -0.27111,-0.11538 -0.43504,-0.14312 -0.24588,-0.0422 -0.49807,-0.0731 -0.68091,-0.11727 0.20806,-0.24084 0.45394,-0.48295 0.5296,-0.91483 l 0.0126,-0.0738 -0.0567,-0.046 c -0.082,-0.0631 -0.19545,-0.14312 -0.35937,-0.15951 -0.0315,-0.003 -0.0568,-0.004 -0.0883,-0.003 z m -71.34521,0.3392 c -0.0637,0.001 -0.12673,0.004 -0.18915,0.009 -0.24967,0.0202 -0.483765,0.0719 -0.672658,0.17275 -0.188829,0.10151 -0.337054,0.2648 -0.364102,0.48106 l -0.02055,0.16392 0.16361,-0.024 c 0.19217,-0.0271 0.361266,-0.12358 0.526073,-0.20806 0.164617,-0.0845 0.323497,-0.15762 0.474187,-0.16897 0.75531,-0.058 1.16134,0.29254 1.52828,0.78684 0.36694,0.49492 0.66138,1.1336 1.15126,1.5762 0.36379,0.32911 0.82404,0.40098 1.27546,0.44071 0.45143,0.0391 0.90159,0.0498 1.28114,0.21247 0.0883,0.0372 0.24085,0.15194 0.37703,0.28119 0.13618,0.12925 0.26354,0.27552 0.3247,0.36631 0.0404,0.0605 0.0996,0.26039 0.17464,0.45269 0.075,0.19229 0.1759,0.4054 0.39342,0.47916 l 0.17338,0.0586 -0.007,-0.18284 c -0.0328,-0.90096 -0.72946,-1.81074 -1.61088,-2.00934 -0.44575,-0.10088 -0.82277,-0.0996 -1.14936,-0.13682 -0.32659,-0.0372 -0.5977,-0.10592 -0.87763,-0.34109 -0.35307,-0.29632 -0.55293,-0.64498 -0.77801,-1.01886 -0.22509,-0.3745 -0.47602,-0.77234 -0.92744,-1.12729 l -0.009,-0.007 -0.01,-0.005 c -0.27174,-0.14501 -0.65255,-0.23139 -1.03651,-0.24841 -0.0643,-0.003 -0.12799,-0.004 -0.19167,-0.003 z m 82.10121,5.06087 c 0.61157,0.006 1.21052,0.0624 1.80948,0.215 0.50439,0.12798 1.07182,0.35243 1.53837,0.62354 0.47287,0.27111 0.83854,0.59518 0.96464,0.88015 0.0567,0.14564 0.10718,0.40603 0.11349,0.65949 0.0126,0.25408 -0.0126,0.50879 -0.0567,0.63615 -0.17653,0.49997 -0.74396,0.84232 -1.51946,1.08821 -0.77549,0.24526 -1.74643,0.39027 -2.66693,0.53087 -1.69599,0.25849 -3.84593,0.44133 -5.40952,0.56617 -2.95066,0.23517 -5.74369,0.0429 -8.27191,0.50627 -2.47149,0.45143 -4.4575,1.31645 -6.21655,2.7199 -0.57373,0.12925 -1.02137,0.38207 -1.46901,0.6122 -0.31525,-0.0952 -0.64309,-0.12358 -0.88898,-0.19293 -0.1324,-0.0372 -0.23328,-0.0851 -0.30263,-0.15006 -0.063,-0.0649 -0.10719,-0.14627 -0.11349,-0.28876 -0.0126,-0.11537 0.0567,-0.26921 0.20175,-0.43818 0.13871,-0.16897 0.34677,-0.3474 0.58005,-0.517 0.46025,-0.33919 1.01507,-0.64435 1.35553,-0.81584 2.66693,-1.36499 6.12827,-2.11715 9.29959,-2.82581 2.20038,-0.49241 4.50794,-0.97094 6.85963,-1.25907 2.39583,-0.29381 4.93667,-0.56743 7.01095,-1.07371 l -0.0441,-0.24778 c -6.65788,0.79251 -14.41279,1.76976 -20.4528,3.91466 -1.00247,0.35433 -1.87253,0.65506 -2.91913,1.20484 -0.35937,0.18789 -0.90789,0.45773 -1.38706,0.77171 -0.23958,0.15699 -0.46025,0.3247 -0.63048,0.50439 -0.17023,0.17905 -0.29632,0.37324 -0.31524,0.58824 -0.0441,0.41737 0.14501,0.74396 0.45395,0.92869 0.20806,0.12169 0.46025,0.186 0.74397,0.21058 -1.02769,0.53402 -2.40844,0.52898 -3.82702,0.26229 -0.44575,-0.0839 -0.84296,-0.10719 -1.19035,-0.18789 -0.68596,-0.16014 -1.62538,-0.63048 -2.37628,-0.93942 -0.40414,-0.16644 -0.90348,-0.32343 -1.31329,-0.50627 -0.40918,-0.18347 -0.70488,-0.39784 -0.75595,-0.60526 -0.0574,-0.23517 -0.029,-0.42999 0.0574,-0.6122 0.0857,-0.18284 0.23454,-0.35118 0.42053,-0.50754 0.37136,-0.31271 0.88709,-0.56995 1.29438,-0.8234 0.89339,-0.5542 1.59007,-1.11785 2.37691,-1.44002 1.94063,-0.79504 4.0086,-1.31203 6.27203,-1.63106 2.20668,-0.31019 4.55207,-0.3537 7.30727,-0.62985 2.39583,-0.23958 4.50794,-0.88456 6.69571,-1.26222 1.05921,-0.18221 2.2382,-0.26921 3.51177,-0.31335 1.16009,-0.0397 2.23191,-0.16708 3.25959,-0.15573 z m 1.14748,0.28183 c -4.62143,0.0895 -8.72586,0.9495 -12.9816,1.93179 l -0.1198,-0.0813 c -0.22697,-0.15384 -0.45394,-0.1841 -0.6557,-0.16834 -0.20806,0.0157 -0.39089,0.0687 -0.56112,0.0838 -3.58113,0.302 -8.05125,1.65249 -11.1343,2.90841 -0.73766,0.30011 -1.65501,0.64562 -2.34854,1.16009 -0.34676,0.25723 -0.63867,0.55923 -0.8171,0.92365 -0.17779,0.36505 -0.23643,0.79252 -0.12483,1.27673 l 0.01,0.0416 0.0334,0.0271 c 0.47915,0.39594 1.1481,0.57184 1.89206,0.65822 l 0.3909,0.0454 -0.29002,-0.26417 c -0.28372,-0.2585 -0.7137,-0.3165 -1.06677,-0.42494 -0.17717,-0.0542 -0.33416,-0.11853 -0.44702,-0.2068 -0.11285,-0.0876 -0.18536,-0.19356 -0.2112,-0.36505 -0.0416,-0.27552 0.0397,-0.51762 0.21058,-0.75027 0.17086,-0.23265 0.43251,-0.44827 0.73261,-0.63994 0.59896,-0.3827 1.34923,-0.66894 1.81579,-0.87069 3.46764,-1.49298 7.50903,-2.66694 11.64498,-3.11332 -0.41612,0.0977 -0.83224,0.19104 -1.25466,0.29002 -2.16885,0.50313 -4.37553,1.07498 -6.39307,2.02637 -0.95833,0.45205 -1.70861,0.89465 -2.66063,1.52135 -0.37829,0.24463 -0.92051,0.5605 -1.37445,0.92366 -0.45395,0.36378 -0.83854,0.7799 -0.82593,1.26474 0.006,0.45899 0.24589,0.81962 0.62418,1.03021 0.37828,0.21058 0.88897,0.28434 1.46902,0.22697 l 0.47286,-0.0467 -0.43504,-0.19356 c -0.34045,-0.15068 -0.78179,-0.19229 -1.12856,-0.31461 -0.17023,-0.0611 -0.30893,-0.13996 -0.40981,-0.24714 -0.0946,-0.10781 -0.15762,-0.244 -0.15131,-0.4571 0,-0.13934 0.0756,-0.31083 0.22067,-0.49367 0.14501,-0.18284 0.35306,-0.37324 0.58004,-0.55608 0.46025,-0.36568 1.00877,-0.70047 1.34923,-0.92618 0.95833,-0.63805 1.78426,-1.07308 2.7552,-1.50307 3.20914,-1.42488 6.557,-1.76408 10.06878,-2.76781 3.37937,-0.96526 7.38293,-1.21935 11.14059,-1.69788 z m -32.34241,0.62544 v 0.006 h -0.003 c -0.0631,0.003 -0.0952,0.0422 -0.1097,0.0631 -0.0139,0.0208 -0.0189,0.0359 -0.024,0.0504 -0.01,0.0284 -0.0151,0.0542 -0.0202,0.0788 -0.002,0.0132 -0.004,0.0214 -0.007,0.0322 -1.30509,0.58887 -2.73629,1.4646 -4.20531,1.7313 -1.13549,0.20617 -2.14868,-0.007 -3.13286,-0.18536 -0.93248,-0.16897 -1.84478,-0.30137 -2.78609,0.0151 -0.0145,-0.10971 -0.0347,-0.2131 -0.0523,-0.30074 -0.0214,-0.1034 -0.0246,-0.18032 -0.0126,-0.24652 0.0599,-0.0107 0.12672,-0.0101 0.21688,-0.0195 0.0593,-0.006 0.13303,-0.0265 0.19167,-0.082 0.0586,-0.0555 0.0921,-0.13366 0.11096,-0.23076 l 0.006,-0.0277 -0.007,-0.0277 c -0.0681,-0.26228 -0.26354,-0.42557 -0.49177,-0.48862 -0.22887,-0.0631 -0.49115,-0.046 -0.75658,0.004 -0.53086,0.10087 -1.0756,0.34172 -1.3259,0.46592 l -0.0694,0.0347 -7.1e-4,0.0775 c -7.2e-4,0.15699 0.0504,0.28813 0.13555,0.37892 0.0851,0.0914 0.19356,0.14185 0.30137,0.17842 0.19356,0.0649 0.38648,0.10025 0.5151,0.16077 0.008,0.0757 0.0271,0.1406 0.0435,0.1778 0.0189,0.0422 0.0252,0.0668 0.0202,0.11159 -1.92486,1.64556 -4.39634,3.56285 -7.22972,4.41967 -1.36373,0.41297 -3.13475,0.68155 -4.68195,0.56239 -1.35112,-0.10403 -2.50868,-0.59895 -3.62337,-1.0012 l -0.19798,-0.0712 0.0303,0.20806 c 0.0643,0.43944 -0.0965,0.74459 -0.331,1.04785 -0.23391,0.3039 -0.54411,0.58761 -0.72884,0.9577 l -0.12483,0.25157 0.27111,-0.0731 c 0.44259,-0.12042 0.71622,-0.42368 0.91861,-0.75721 0.18221,-0.30074 0.32091,-0.62417 0.48799,-0.90221 3.44242,1.79056 8.36648,0.54158 11.22634,-0.93501 0.85556,-0.44196 1.57999,-0.89528 2.3435,-1.39336 0.77423,-0.50502 1.55729,-1.07623 2.31827,-1.44191 0.90916,-0.43755 2.27478,-0.55419 3.43487,-0.29948 0.58067,0.12736 1.10901,0.34677 1.50685,0.65444 0.39783,0.3083 0.66452,0.6992 0.74144,1.18972 0.0952,0.60652 -0.0624,1.30005 -0.36127,1.82839 -0.29821,0.52835 -0.72694,0.87511 -1.14936,0.86313 -0.1551,-0.004 -0.18347,-0.0359 -0.25976,-0.10025 -0.0769,-0.0637 -0.19356,-0.16329 -0.40981,-0.21184 l -0.0694,-0.0158 -0.0492,0.0517 c -0.12168,0.12673 -0.18851,0.25849 -0.19671,0.38963 -0.008,0.13115 0.0435,0.24904 0.11664,0.34299 0.13429,0.17338 0.33793,0.28876 0.50564,0.3827 0.034,0.15825 0.07,0.29632 0.11475,0.39468 0.0504,0.11286 0.11033,0.19734 0.1986,0.24463 0.0883,0.0473 0.19671,0.0353 0.27615,-0.006 0.0794,-0.041 0.14375,-0.10403 0.2068,-0.17843 0.1261,-0.14817 0.24463,-0.34866 0.35811,-0.54158 0.11412,-0.19293 0.22446,-0.37956 0.3102,-0.48358 0.47917,-0.57815 1.02894,-0.70993 1.44632,-0.96212 0.26544,0.0215 0.46025,-0.053 0.60527,-0.1469 l 0.0719,-0.0466 -0.0164,-0.0839 c -0.0504,-0.25156 -0.18663,-0.40918 -0.30768,-0.52582 -0.12105,-0.11601 -0.21941,-0.19671 -0.26606,-0.31524 -0.22635,-0.57374 -0.0794,-1.1645 0.21625,-1.6941 0.2957,-0.52898 0.74019,-0.98418 1.0693,-1.25088 1.1046,-0.89402 2.76907,-1.41543 3.64796,-2.0106 l -0.0838,-0.23012 c -0.26417,0.0271 -0.44449,-0.053 -0.74207,-0.0643 z m -0.16645,0.24462 c -0.001,0.004 -0.002,0.0107 -0.003,0.0139 -0.001,0.006 -0.003,0.0101 -0.001,0.006 7.2e-4,-0.002 -0.002,-0.009 0.004,-0.0202 z m 15.47957,0.94383 -0.37198,0.0145 c -3.58744,0.1406 -7.58469,1.14243 -10.50823,2.27793 -1.01885,0.39594 -2.24955,0.88456 -2.81383,1.41227 -0.30705,0.2875 -0.47602,0.58635 -0.51826,0.88016 -0.0429,0.29317 0.0435,0.57373 0.215,0.80953 0.34361,0.47223 1.01255,0.78747 1.76408,0.86061 l 0.31776,0.0309 -0.21121,-0.23958 c -0.28245,-0.32154 -0.73388,-0.41107 -1.08569,-0.54852 -0.17653,-0.0694 -0.32659,-0.14753 -0.42683,-0.25156 -0.10025,-0.1034 -0.16014,-0.2295 -0.15825,-0.43945 0.001,-0.0946 0.0643,-0.2566 0.15825,-0.40792 0.0939,-0.15194 0.21499,-0.29758 0.30704,-0.38396 0.94635,-0.89087 3.12277,-1.59322 4.99719,-2.17768 1.9671,-0.61472 4.10443,-1.07245 5.95805,-1.25592 0.30893,-0.0303 0.70614,-0.0189 1.08442,-0.0454 0.37829,-0.0265 0.74397,-0.0851 1.00247,-0.29822 z m 18.41004,0.89717 c -6.6894,0.21878 -13.20227,0.87259 -18.56136,2.71549 v 7.1e-4 c -0.006,7.2e-4 -0.006,7.2e-4 -0.006,0.001 l 0.0757,0.24022 c 5.23299,-1.56549 12.19349,-2.24956 18.50461,-2.70603 z m 1.23574,1.15631 c 0.29633,0.28749 0.3909,0.55671 0.36568,0.82467 -0.0315,0.28497 -0.20175,0.58193 -0.46656,0.86754 -0.51699,0.57121 -1.36814,1.07812 -1.88513,1.39336 -2.84347,1.71806 -6.43721,3.25265 -9.64636,4.26205 -1.82209,-0.63048 -3.7955,-1.15441 -5.87608,-1.51441 6.07153,-0.33605 11.23517,-1.58503 15.2135,-4.0458 l 0.34677,-0.21562 -0.40982,-0.017 v -7.1e-4 7.1e-4 c 0,-0.001 -0.006,-0.005 -0.0189,-0.0164 -0.0315,-0.0233 -0.11348,-0.0599 -0.19545,-0.0454 l -0.0946,0.0157 -0.006,0.046 c -0.0126,7.1e-4 -0.0315,0.002 -0.063,0 l -0.0441,-0.003 -0.0378,0.0271 c -0.96464,0.70929 -2.2256,1.25529 -3.56222,1.74833 -2.2319,0.82277 -4.62143,1.36877 -7.22531,1.75904 -1.3051,0.19608 -2.70476,0.14942 -4.04769,0.50691 l 0.0378,0.22066 c -2.28234,-0.38711 -4.70339,-0.56239 -7.23161,-0.43944 2.1058,-0.97283 3.73244,-2.33341 6.31741,-3.06855 2.7552,-0.78495 5.94544,-0.59076 9.36264,-0.81458 3.04523,-0.19924 6.78398,-0.44323 9.1672,-1.49109 z m -0.0694,0.79125 -0.0441,0.0378 c -3.22175,2.83906 -7.8684,4.28727 -12.80506,5.45681 l 0.0441,0.24715 c 0.006,-7.2e-4 0.006,-0.001 0.0126,-0.002 5.01863,-0.81773 9.63375,-2.59001 12.97529,-5.32063 l 0.0504,-0.0441 -0.006,-0.07 c -0.006,-0.0183 0,-0.0631 -0.006,-0.1198 -0.006,-0.0284 -0.0126,-0.0637 -0.0378,-0.1015 -0.0252,-0.0372 -0.082,-0.0694 -0.1261,-0.0763 z m -3.54961,0.32028 c -0.006,7.2e-4 -0.0189,0.002 -0.0252,0.003 l -0.0189,0.003 -0.0126,0.005 c -4.16748,1.7231 -9.60223,3.39514 -15.15046,3.64733 -0.12609,0.006 -0.34046,-0.0353 -0.55482,-0.0347 -0.21437,0.001 -0.46025,0.0574 -0.61157,0.27804 l -0.14501,0.20995 0.25219,-0.0126 c 6.45613,-0.30831 11.80261,-1.72752 16.49969,-3.79297 l -0.0441,-0.24085 c 0,0 0.0126,0.008 -0.0189,-0.0164 -0.0315,-0.0202 -0.0946,-0.0504 -0.17022,-0.0486 z m -3.61896,0.25598 c -1.09703,0.20238 -2.04906,0.35622 -3.10196,0.63237 -0.82593,0.21689 -1.63925,0.52015 -2.45258,0.69164 -2.2382,0.47349 -4.68447,0.84547 -6.97311,0.88015 l -0.006,0.25156 c 4.75383,0.2957 8.71955,-1.24267 12.5844,-2.20983 z m 7.38293,0.66894 c 1.179,1.04975 1.92927,3.04522 1.09704,4.82318 -0.0567,0.11727 -0.15762,0.23076 -0.2648,0.35055 -0.11349,0.11979 -0.22698,0.24525 -0.30263,0.40602 -0.26481,0.575 -0.34046,1.21116 -0.48547,1.76031 -0.14501,0.55482 -0.34677,1.00246 -0.84485,1.26726 -0.63678,0.34046 -1.4438,0.34677 -2.27603,0.21437 -0.82593,-0.13871 -1.67078,-0.40981 -2.36431,-0.59896 -0.95202,-0.2648 -1.91666,-0.46655 -2.4967,-0.75027 -1.11595,-0.54348 -2.06167,-1.41354 -3.23437,-1.94819 4.21161,-1.34544 8.10168,-3.01937 11.17212,-5.52427 z m -0.1387,1.47469 c -0.89529,0.19356 -2.14364,0.55861 -3.10197,0.88646 l 0.0504,0.24463 c 1.21052,-0.12799 2.24451,-0.43693 3.13349,-0.89529 z m 0.22066,1.1727 -0.29632,0.0914 c -1.34293,0.41612 -2.98848,0.55356 -4.52055,0.81521 l 0.006,0.24967 c 0.97094,0.11412 1.89144,-0.0927 2.80564,-0.25282 0.32784,-0.0574 0.72505,-0.11034 1.07181,-0.19545 0.34046,-0.0851 0.6494,-0.18915 0.7881,-0.43693 z m -32.24846,0.50438 c 0.24526,0.0832 0.4634,0.21121 0.7301,0.30705 -0.0662,0.0221 -0.13303,0.0435 -0.20554,0.0656 -0.19734,0.0618 -0.41359,0.13933 -0.53969,0.33857 l -0.0561,0.0889 0.0769,0.0713 c 0.0757,0.0693 0.17716,0.10151 0.26417,0.0883 0.0876,-0.0132 0.15447,-0.0555 0.21689,-0.0984 0.12357,-0.0864 0.2358,-0.18536 0.33352,-0.2131 1.01192,-0.29255 1.64429,0.0933 2.23064,0.63426 0.58004,0.52519 1.08442,1.20359 1.79056,1.47974 0.30263,1.01823 0.63048,2.00619 0.89529,3.05279 -0.44764,0.19545 -0.94572,0.33415 -1.42489,0.34046 -0.51069,0 -0.98355,-0.1324 -1.36184,-0.48547 -0.18284,-0.17654 -0.44764,-0.62418 -0.74145,-0.99616 -0.28308,-0.36568 -0.7427,-0.92933 -1.16828,-1.49046 -0.4262,-0.56176 -0.81962,-1.12667 -0.95895,-1.44632 -0.19923,-0.45647 -0.19356,-1.20359 -0.0813,-1.73698 z m 8.10735,0.45206 c 1.99232,-0.0151 4.20531,0.31461 5.7689,0.57752 2.11842,0.35685 4.05399,0.66579 5.77521,1.31707 1.48793,0.56176 2.76781,1.53649 4.24944,2.25776 -3.83333,-1.47029 -8.30974,-2.28613 -12.29438,-3.56727 l -0.0378,-0.012 -0.0378,0.0107 c 0,0 -0.0315,7.2e-4 -0.0756,0.0126 -0.0252,0.006 -0.0568,0.0164 -0.0883,0.0466 -0.0315,0.0296 -0.0504,0.0801 -0.0567,0.12169 v 0.0895 l 0.082,0.0315 c 3.49917,1.32023 8.02602,2.05221 11.5441,3.27913 0.44134,0.15762 0.92681,0.54221 1.50685,0.44764 l 0.3909,-0.0631 c 0.71244,0.24589 1.50685,0.42242 2.26973,0.62418 1.39967,0.37829 2.66693,0.69353 4.16748,0.40351 0.0946,0.29002 0.0441,0.51699 -0.0757,0.71875 -0.1387,0.23327 -0.37829,0.42872 -0.60526,0.61156 -1.47533,1.179 -3.38568,2.20668 -6.09675,2.05537 -2.0932,-0.11349 -4.35032,-0.73136 -6.46873,-1.19161 -2.02385,-0.44764 -4.00986,-1.19791 -5.71847,-1.94819 -3.51808,-1.55728 -6.8218,-3.32011 -9.11675,-5.44861 0.517,0.12168 1.0466,0.21625 1.7086,0.1406 0.42873,-0.0492 0.71875,-0.25661 1.01508,-0.3165 0.66201,-0.1343 1.41228,-0.19293 2.19407,-0.19861 z m -6.36974,0.35874 c -0.0215,7.2e-4 -0.0429,10e-4 -0.0637,0.003 -0.17086,0.0132 -0.34046,0.07 -0.49367,0.14816 -0.30767,0.15636 -0.56617,0.39972 -0.69542,0.63931 l -0.12862,0.23832 0.26544,-0.0548 c 0.331,-0.0681 0.53842,-0.25787 0.73955,-0.40036 0.20049,-0.14312 0.38837,-0.2503 0.73955,-0.2276 l 0.0719,-0.23454 c -0.13745,-0.0807 -0.28561,-0.11349 -0.43503,-0.1116 z m 30.67478,0.28309 -0.0189,0.006 c -2.20668,0.6847 -5.49779,0.48484 -7.97558,0.62481 l -0.006,0.25156 c 2.42105,0.2503 5.51671,0.13366 7.60991,-0.38081 -0.0126,0.002 0.0567,-0.004 0.12609,-0.005 0.0694,-7.2e-4 0.15132,-0.003 0.22698,-0.0145 0.082,-0.0126 0.17023,-0.0284 0.23327,-0.11097 0.0378,-0.041 0.0567,-0.10214 0.0504,-0.15762 -0.006,-0.0555 -0.0252,-0.10466 -0.0567,-0.15447 l -0.0378,-0.0586 h -0.0693 z m -24.39961,0.006 -0.11979,0.21752 c 0.68722,0.56869 1.79057,0.70677 2.7489,1.03083 5.08798,1.71996 9.79136,3.63031 15.65484,4.41841 0.91419,0.1198 1.841,0.35938 2.79933,0.31524 l 0.0126,-0.25219 c -3.99095,-0.59265 -7.57208,-1.24835 -10.94515,-2.38952 -3.4046,-1.14811 -6.79659,-2.2773 -10.15074,-3.34029 z m -5.5041,0.55861 c -0.0378,7.1e-4 -0.082,0.002 -0.12609,0.004 -0.11034,0.006 -0.22193,0.0189 -0.33038,0.0385 -0.43377,0.0782 -0.8316,0.26102 -1.0012,0.59643 l -0.18662,0.3682 0.36,-0.20112 c 0.40982,-0.22887 1.2969,-0.49052 2.0724,-0.42621 l 0.0567,-0.24336 c -0.25219,-0.0946 -0.54852,-0.13934 -0.84485,-0.13682 z m 3.82702,0.0157 -0.006,0.17212 c 0,0.075 0.0189,0.14753 0.063,0.20365 0.0378,0.0555 0.0946,0.0889 0.15132,0.10844 4.9871,1.78363 9.8355,3.9777 15.52244,5.11257 1.89144,0.37198 3.86484,0.71875 5.95174,0.69352 l 0.0126,-0.25219 c -8.5304,-0.63048 -14.72173,-3.59374 -21.53092,-5.98137 z m 17.52737,0.68029 -0.0252,0.2503 c 2.18146,0.37009 5.13842,1.10082 7.49011,0.43818 l -0.0504,-0.24588 c -2.48409,0.34172 -5.15102,-0.32344 -7.41445,-0.4426 z m -17.90566,0.0631 v 0.12231 c -0.006,0.075 0.0126,0.14753 0.0567,0.20364 0.0315,0.046 0.0756,0.0744 0.11979,0.0946 3.66309,2.40906 8.55562,3.79612 13.40402,5.05708 2.33909,0.61157 4.77274,1.37445 7.30097,0.95203 l -0.0189,-0.25219 c -2.95696,0.082 -5.05646,-0.56113 -7.40815,-1.19161 -1.64556,-0.44764 -3.28481,-0.83224 -4.78535,-1.26096 -3.10197,-0.88898 -5.87608,-2.24956 -8.29083,-3.7066 l -0.0315,-0.0183 z m -2.6291,0.0864 c -0.0441,-7.1e-4 -0.082,-7.1e-4 -0.1261,0.001 -0.10718,0.004 -0.21436,0.0151 -0.32154,0.0328 -0.42243,0.0725 -0.81584,0.25345 -1.00625,0.57121 l -0.1841,0.30705 0.33605,-0.12358 c 0.42557,-0.15762 1.33977,-0.50249 2.01438,-0.37324 l 0.082,-0.2358 c -0.23327,-0.11853 -0.51069,-0.17527 -0.7944,-0.17969 z m 2.08059,0.67525 c 3.99724,2.32647 8.64389,4.73491 14.26147,5.85716 2.67954,0.52961 5.87608,1.31771 8.44214,0.29002 -0.25219,0.66831 -0.67461,1.19161 -0.95202,1.89775 -2.16256,1.80318 -5.46627,3.68832 -9.47613,3.48656 -1.56359,-0.082 -2.78673,-0.57374 -3.56222,-1.53207 l -0.0252,-0.0252 -0.0378,-0.0126 c -1.10334,-0.34046 -1.91666,-1.20422 -2.79933,-1.87253 -0.90159,-0.68722 -1.74013,-1.38075 -2.50301,-2.19407 h -0.006 c -1.5762,-1.50685 -2.76781,-3.38569 -3.34154,-5.895 z m 18.6244,0.24651 -0.0189,0.005 c -0.0504,0.0139 -0.10718,0.0511 -0.1324,0.10339 -0.0252,0.053 -0.0315,0.10845 -0.0252,0.16141 l 0.006,0.009 v 0.008 c 0.0126,0.0492 0.0504,0.1034 0.10088,0.13114 0.0504,0.0252 0.10088,0.029 0.15132,0.024 h -0.006 l 0.0189,-0.001 c -0.006,7.1e-4 -0.0126,7.1e-4 -0.0126,0.001 1.1853,-0.0202 2.2319,0.30137 3.29741,0.56617 1.06551,0.2648 2.15625,0.47286 3.4046,0.18915 l -0.0315,-0.25219 c -2.55975,0.16392 -4.21161,-0.8335 -6.73353,-0.94446 z m -20.57259,0.17717 c -0.21436,0.006 -0.42242,0.0391 -0.60526,0.12231 -0.17654,0.0826 -0.32155,0.22761 -0.36568,0.43125 l -0.0883,0.3909 0.29633,-0.27111 c 0.20806,-0.18914 0.54852,-0.23328 0.90789,-0.22697 0.35937,0.006 0.71875,0.0631 0.98985,0.006 l 0.35938,-0.0782 -0.33416,-0.16077 c -0.2711,-0.12862 -0.72505,-0.22508 -1.16008,-0.21373 z m 2.91913,0.71749 z m 0,0 0.15131,0.35307 c 0.1324,0.30263 0.47917,0.54221 0.88898,0.78179 0.40351,0.24589 0.87637,0.47286 1.24835,0.66831 4.81057,2.52193 10.52903,4.99341 17.52106,4.61512 h 0.006 l -0.006,-0.25219 c -8.3917,-0.0883 -14.14168,-2.80564 -19.47555,-5.97065 z m -2.01124,0.20175 c -0.11979,0 -0.23958,0.0126 -0.35307,0.0441 -0.30263,0.0694 -0.58634,0.23959 -0.69983,0.517 l -0.0946,0.23958 0.24588,-0.0757 c 0.15762,-0.0441 0.37199,-0.1387 0.61788,-0.22067 0.24588,-0.0883 0.52329,-0.15131 0.7944,-0.15131 l 0.0568,-0.23958 c -0.13241,-0.0631 -0.29003,-0.10088 -0.44765,-0.11349 z m 3.63788,2.05537 0.2648,0.22067 c 0.95202,0.81332 2.52192,1.46271 3.87115,2.03645 3.71984,1.59512 8.49258,3.24698 13.42294,2.91282 l -0.006,-0.25219 c -6.67048,-0.1261 -12.48982,-2.26973 -16.95363,-4.89884 l -0.0315,-0.0189 z m -1.84101,0.11979 c 1.84101,2.64802 4.27466,4.69708 6.92268,6.52548 -0.17023,0.20805 -0.42873,0.35937 -0.73136,0.46025 -0.34676,0.11348 -0.75027,0.15131 -1.10334,0.14501 -1.94188,-0.0504 -3.20915,-1.70861 -3.47395,-3.48656 l -0.006,-0.0757 -0.0694,-0.0252 c -0.54852,-0.20175 -1.08443,-0.47286 -1.45641,-0.86376 -0.36568,-0.39089 -0.58005,-0.90159 -0.48547,-1.64555 0.0504,-0.38459 0.22697,-0.66831 0.4035,-1.03399 z m 3.4109,1.51315 -0.0441,0.006 c -0.0189,0.006 -0.0631,0 -0.11979,0.006 -0.0315,0.006 -0.0631,0.0126 -0.10088,0.0378 -0.0378,0.0315 -0.0694,0.082 -0.0757,0.1261 l -0.0126,0.0756 0.0631,0.0441 c 0.67461,0.50438 1.56359,1.02138 2.47779,1.46271 0.7881,0.3846 1.65816,0.75658 2.46518,1.07813 1.7086,0.67461 3.66309,1.40597 5.60497,1.26726 l 0.006,-0.25219 c -4.16118,-0.5233 -7.32619,-2.03645 -10.2264,-3.82702 z m 0.71245,1.51946 -0.0441,0.15762 c -0.0126,0.0631 -0.0189,0.1261 0.006,0.17654 0.0252,0.0567 0.063,0.0883 0.0883,0.10087 0.0189,0.0126 0.0252,0.0189 0.0252,0.0189 l 0.006,0.0631 0.0631,0.0378 c 0.84484,0.43503 1.74012,0.97094 2.72367,1.38706 0.92051,0.3972 1.99232,0.93311 3.08305,0.83223 l 0.0189,-0.25219 c -2.26342,-0.48547 -4.04138,-1.46271 -5.83194,-2.43996 z m -2.2319,0.75658 h -0.0378 l -0.1261,0.0189 0.0189,0.1261 c 0.1387,0.93941 0.57374,1.77165 1.24835,2.31386 0.67462,0.53591 1.59512,0.7818 2.67955,0.56743 l -0.0315,-0.25219 c -1.00246,0.082 -1.77796,-0.16392 -2.358,-0.63048 -0.58634,-0.46655 -0.97724,-1.16008 -1.16639,-1.98601 -0.0126,-0.0504 -0.0504,-0.10718 -0.10718,-0.1324 -0.0378,-0.0189 -0.0757,-0.0252 -0.11979,-0.0252 z m -0.0189,0.22067 v 0.006 z m 1.179,0.34676 -0.23328,0.0757 c 0.0567,0.53591 0.38459,0.97724 0.7881,1.27357 0.3972,0.30263 0.86376,0.46656 1.24204,0.41612 l 0.0252,-0.24589 c -0.84484,-0.27741 -1.41227,-0.80701 -1.82208,-1.51946 z"
       inkscape:connector-curvature="0"
       style="stroke-width:0.06304808;fill:#4d4d4d" />
    <path
       style="fill:none;stroke:#37abc8;stroke-width:0.1;stroke-linecap:butt;stroke-linejoin:miter;stroke-miterlimit:4;stroke-dasharray:none;stroke-opacity:1"
       d="m 131.4014,229.86189 c -6.68729,0.92533 -8.61331,6.70883 -3.4884,7.1082"
       id="path5680"
       inkscape:connector-curvature="0"
       sodipodi:nodetypes="cc" />
    <path
       style="fill:none;stroke:#37abc8;stroke-width:0.1;stroke-linecap:butt;stroke-linejoin:miter;stroke-miterlimit:4;stroke-dasharray:none;stroke-opacity:1"
       d="m 173.10346,218.2805 c -0.69886,1.94074 -0.65269,2.91026 1.14356,3.7621"
       id="path6225"
       inkscape:connector-curvature="0"
       sodipodi:nodetypes="cc" />
    <path
       style="fill:none;stroke:#37abc8;stroke-width:0.1;stroke-linecap:butt;stroke-linejoin:miter;stroke-opacity:1;stroke-miterlimit:4;stroke-dasharray:none"
       d="m 152.41676,222.9501 0.86877,-0.51977"
       id="path6227"
       inkscape:connector-curvature="0" />
    <path
       style="opacity:1;fill:#37abc8;fill-opacity:1;fill-rule:nonzero;stroke:#37abc8;stroke-width:0.09544748;stroke-linecap:butt;stroke-linejoin:round;stroke-miterlimit:4;stroke-dasharray:none;stroke-dashoffset:0;stroke-opacity:1;paint-order:stroke fill markers"
       d="m 481.33338,566.25894 c -6.32464,-1.41654 -9.23575,-4.67779 -8.45541,-9.47241 0.76487,-4.6995 4.97975,-9.43535 11.27566,-12.66934 3.32672,-1.70882 6.21217,-2.65371 11.38009,-3.72661 11.92211,-2.47513 17.23957,-4.79814 29.9603,-13.08858 2.48169,-1.61737 5.21912,-3.27809 6.08319,-3.69047 6.16412,-2.94186 15.55771,-1.97147 19.54863,2.01944 1.42276,1.42277 1.90053,2.65089 1.91398,4.91998 0.0205,3.45633 -1.57277,6.8856 -3.77987,8.13564 -1.3003,0.73646 -1.81896,0.72102 -3.2839,-0.0978 l -1.20713,-0.67468 -0.59244,0.68876 c -0.92877,1.07977 -0.77536,1.85193 0.63046,3.17311 0.70672,0.66417 1.35701,1.55643 1.5406,2.11383 0.32034,0.97262 1.068,1.49593 1.76047,1.23221 0.2318,-0.0883 0.29121,-0.0294 0.16933,0.16782 -0.10328,0.1671 -1.74132,1.08224 -3.6401,2.03364 -1.89878,0.95139 -5.72516,2.91928 -8.50308,4.37308 -11.41113,5.9719 -19.05798,9.07413 -27.32233,11.0843 -1.71877,0.41807 -3.29878,0.7241 -3.51112,0.68006 -0.22903,-0.0475 0.41396,-0.64509 1.5806,-1.46902 2.87605,-2.03119 7.50119,-6.77485 12.02158,-12.32965 3.40603,-4.18542 3.9339,-4.94922 3.70983,-5.36791 -0.24056,-0.44949 -0.31808,-0.45876 -0.97891,-0.11703 -1.25236,0.64762 -2.22854,1.61843 -4.28208,4.25854 -4.11563,5.2912 -9.19815,10.32378 -13.16332,13.034 -5.39679,3.68874 -9.61943,4.98481 -16.92038,5.19345 -3.02312,0.0864 -4.05823,0.0159 -5.93465,-0.40441 z"
       id="path6235"
       inkscape:connector-curvature="0"
       transform="matrix(0.26458333,0,0,0.26458333,0,87)" />
    <path
       style="opacity:1;fill:#37abc8;fill-opacity:1;fill-rule:nonzero;stroke:#37abc8;stroke-width:0.06749156;stroke-linecap:butt;stroke-linejoin:round;stroke-miterlimit:4;stroke-dasharray:none;stroke-dashoffset:0;stroke-opacity:1;paint-order:stroke fill markers"
       d="m 548.4364,545.18737 c 0,-0.0618 0.26331,-0.40373 0.58513,-0.75995 0.32182,-0.35622 0.98093,-1.29006 1.46469,-2.07521 1.16501,-1.89083 1.65497,-2.47998 2.74119,-3.29615 1.1932,-0.89656 3.66793,-2.08098 4.64738,-2.22427 0.97633,-0.14284 1.81161,-0.56585 1.81161,-0.91745 0,-0.56694 -0.53375,-1.5016 -1.41018,-2.46938 -0.50119,-0.55343 -0.91171,-1.02547 -0.91228,-1.04898 -5.7e-4,-0.0235 -0.079,-0.51904 -0.17436,-1.10117 -0.60318,-3.6834 2.72338,-8.62563 7.83294,-11.6373 0.74817,-0.44098 3.77103,-1.99823 6.71746,-3.46055 2.94642,-1.46232 5.87469,-2.97607 6.50724,-3.3639 0.98083,-0.60136 1.18656,-0.66868 1.39785,-0.45739 0.5831,0.5831 0.98368,0.65026 3.12976,0.52473 l 2.13151,-0.12468 -0.42247,0.56338 c -1.28604,1.71498 -1.36922,2.329 -0.4512,3.33073 l 0.59627,0.65064 0.87695,-0.88281 c 0.48232,-0.48555 1.35909,-1.41495 1.94837,-2.06532 0.96096,-1.06059 1.17168,-1.2032 2.04376,-1.38318 1.72238,-0.35547 3.23428,-0.52636 7.15267,-0.80848 4.73755,-0.3411 6.41085,-0.53824 9.375,-1.10455 5.97156,-1.14086 12.62415,-3.13768 24.73214,-7.4235 6.04474,-2.13964 10.42019,-3.90934 14.28572,-5.77804 3.85572,-1.86395 3.96548,-1.88812 6.34294,-1.39645 0.75963,0.1571 1.62045,0.23777 1.91294,0.17927 0.43428,-0.0869 0.51203,-0.0549 0.42401,0.17451 -0.40801,1.06327 -1.03925,3.62594 -1.21153,4.91848 -0.48874,3.66686 1.00064,6.25261 4.75037,8.24725 0.54419,0.28948 0.78245,0.50152 0.625,0.55624 -0.13994,0.0486 -2.30355,0.52909 -4.80802,1.06768 -8.2888,1.78252 -13.47072,2.42282 -29.82143,3.68484 -8.16909,0.63053 -10.75983,0.89717 -14.82143,1.52545 -10.13538,1.56781 -19.22924,4.57792 -26.18902,8.66868 -0.86836,0.5104 -3.26633,2.06573 -5.32883,3.45629 -2.0625,1.39056 -6.28125,3.96124 -9.375,5.71263 -3.09375,1.75139 -7.39286,4.20688 -9.55357,5.45665 -3.99709,2.31194 -9.21478,5.17355 -9.43317,5.17355 -0.0662,0 -0.12041,-0.0505 -0.12041,-0.11229 z"
       id="path6237"
       inkscape:connector-curvature="0"
       transform="matrix(0.26458333,0,0,0.26458333,0,87)" />
    <path
       style="fill:none;stroke:#ff7f2a;stroke-width:0.1;stroke-linecap:butt;stroke-linejoin:miter;stroke-miterlimit:4;stroke-dasharray:none;stroke-opacity:1"
       d="m 173.10346,218.2805 c 0.86008,-1.19884 0.85936,-1.98119 1.93538,-1.92746"
       id="path6239"
       inkscape:connector-curvature="0"
       sodipodi:nodetypes="cc" />
    <path
       style="fill:none;stroke:#ff7f2a;stroke-width:0.1;stroke-linecap:butt;stroke-linejoin:miter;stroke-miterlimit:4;stroke-dasharray:none;stroke-opacity:1"
       d="m 181.55802,214.623 c 2.19719,1.19794 2.27616,0.91634 2.10626,2.51353"
       id="path6241"
       inkscape:connector-curvature="0"
       sodipodi:nodetypes="cc" />
    <path
       style="fill:none;stroke:#ff7f2a;stroke-width:0.1;stroke-linecap:butt;stroke-linejoin:miter;stroke-miterlimit:4;stroke-dasharray:none;stroke-opacity:1"
       d="m 183.56405,217.98845 c -0.022,1.135 -2.28997,1.78786 -0.88533,3.19053"
       id="path6243"
       inkscape:connector-curvature="0"
       sodipodi:nodetypes="cc" />
    <path
       style="opacity:1;fill:#ff7f2a;fill-opacity:1;fill-rule:nonzero;stroke:#ff7f2a;stroke-width:0.03374578;stroke-linecap:butt;stroke-linejoin:round;stroke-miterlimit:4;stroke-dasharray:none;stroke-dashoffset:0;stroke-opacity:1;paint-order:stroke fill markers"
       d="m 658.62632,510.34545 c 0.0324,-0.0845 -0.22585,-0.2694 -0.8183,-0.58584 -1.75081,-0.93513 -3.15109,-2.07197 -3.90831,-3.17303 -0.45752,-0.66525 -0.82645,-1.70076 -0.94754,-2.65955 -0.19249,-1.52396 0.14166,-3.53533 1.04801,-6.30855 0.34207,-1.04664 0.50161,-1.38565 1.01615,-2.15922 0.33571,-0.5047 0.97353,-1.54742 1.41739,-2.31715 1.08411,-1.88004 1.38056,-2.33269 1.8714,-2.85743 0.71613,-0.76561 1.57991,-1.1416 2.62763,-1.14379 l 0.50826,-0.001 0.0275,0.37947 0.0275,0.37946 1.02679,0.16364 c 1.48013,0.23589 5.38323,0.25061 7.00892,0.0264 2.69441,-0.37154 5.00014,-0.93795 8.48215,-2.08367 3.75967,-1.23709 4.85117,-1.70611 5.98214,-2.57055 0.71029,-0.5429 1.10316,-1.02431 1.6954,-2.07743 0.22739,-0.40436 0.43318,-0.73521 0.4573,-0.73521 0.0789,0 5.3193,2.76978 5.95528,3.1476 0.83345,0.49515 1.51693,1.13646 1.76003,1.65146 0.26663,0.56486 0.32533,1.64671 0.17865,3.29272 l -0.11373,1.27628 -1.48432,0.74683 c -4.43567,2.23177 -9.07293,3.45654 -13.08727,3.45654 -1.3124,0 -1.67947,-0.038 -3.63382,-0.37645 -1.99219,-0.34498 -2.30085,-0.37612 -3.69181,-0.3724 -1.18498,0.003 -1.71026,0.0448 -2.39522,0.18984 -0.48256,0.10218 -0.89416,0.20257 -0.91468,0.22309 -0.07,0.07 2.59275,1.12608 3.62948,1.43953 2.30254,0.69615 4.41914,0.98652 7.18042,0.98505 4.62592,-0.002 8.50034,-0.87841 13.87487,-3.1369 0.20714,-0.087 0.0698,0.68659 -0.23909,1.34664 -0.35413,0.75676 -0.74993,1.28269 -2.02639,2.69267 -1.31102,1.44815 -1.97972,2.3346 -2.32389,3.08061 -0.24377,0.52836 -0.26764,0.66415 -0.26764,1.52224 0,0.90751 0.0122,0.96656 0.33086,1.60714 0.18197,0.36576 0.53536,0.91613 0.7853,1.22305 0.24995,0.30692 0.42194,0.55804 0.3822,0.55804 -0.0397,0 -1.0372,0.06 -2.21659,0.13322 -1.17939,0.0733 -4.89535,0.25435 -8.2577,0.4024 -6.58077,0.28975 -8.05364,0.39861 -10.90152,0.80575 -2.67546,0.38249 -8.11654,1.42247 -9.79532,1.87222 -0.23901,0.064 -0.28843,0.0554 -0.2504,-0.0437 z"
       id="path6245"
       inkscape:connector-curvature="0"
       transform="matrix(0.26458333,0,0,0.26458333,0,87)" />
    <text
       xml:space="preserve"
       style="font-style:normal;font-variant:normal;font-weight:normal;font-stretch:normal;font-size:7.05555556px;line-height:1.25;font-family:Calibri;-inkscape-font-specification:Calibri;letter-spacing:0px;word-spacing:0px;fill:#008080;fill-opacity:1;stroke:none;stroke-width:0.26458332;"
       x="59.815479"
       y="184.67349"
       id="text6249"><tspan
         sodipodi:role="line"
         id="tspan6247"
         x="59.815479"
         y="184.67349"
         style="font-size:7.05555556px;stroke-width:0.26458332;fill:#008080;">Sprednja stran</tspan></text>
    <path
       style="fill:none;stroke:#008080;stroke-width:0.5;stroke-linecap:butt;stroke-linejoin:miter;stroke-miterlimit:4;stroke-dasharray:none;stroke-opacity:1;marker-end:url(#Arrow2Mend)"
       d="m 70.810315,186.90588 c -0.09945,10.14417 0.06277,15.85753 16.708051,18.10038"
       id="path6251"
       inkscape:connector-curvature="0"
       sodipodi:nodetypes="cc" />
    <text
       xml:space="preserve"
       style="font-style:normal;font-variant:normal;font-weight:normal;font-stretch:normal;font-size:7.05555534px;line-height:1.25;font-family:Calibri;-inkscape-font-specification:Calibri;letter-spacing:0px;word-spacing:0px;fill:#37abc8;fill-opacity:1;stroke:none;stroke-width:0.26458332"
       x="129.75763"
       y="249.66428"
       id="text6635"><tspan
         sodipodi:role="line"
         id="tspan6633"
         x="129.75763"
         y="249.66428"
         style="font-size:7.05555534px;fill:#37abc8;stroke-width:0.26458332">IT </tspan></text>
    <text
       xml:space="preserve"
       style="font-style:normal;font-variant:normal;font-weight:normal;font-stretch:normal;font-size:7.05555534px;line-height:1.25;font-family:Calibri;-inkscape-font-specification:Calibri;letter-spacing:0px;word-spacing:0px;fill:#ff7f2a;fill-opacity:1;stroke:none;stroke-width:0.26458332"
       x="186.97481"
       y="245.61108"
       id="text6639"><tspan
         sodipodi:role="line"
         id="tspan6637"
         x="186.97481"
         y="245.61108"
         style="font-size:7.05555534px;fill:#ff7f2a;stroke-width:0.26458332">V4</tspan></text>
    <path
       style="fill:none;stroke:#37abc8;stroke-width:0.5;stroke-linecap:butt;stroke-linejoin:miter;stroke-opacity:1;stroke-miterlimit:4;stroke-dasharray:none;marker-end:url(#marker6645)"
       d="m 136.25018,247.07475 c 6.16607,-7.06114 6.36498,-6.26552 6.06662,-11.93432"
       id="path6641"
       inkscape:connector-curvature="0" />
    <path
       style="fill:none;stroke:#ff7f2a;stroke-width:0.5;stroke-linecap:butt;stroke-linejoin:miter;stroke-miterlimit:4;stroke-dasharray:none;stroke-opacity:1;marker-end:url(#marker6675)"
       d="m 192.73931,239.21799 c 2.88413,-3.77919 4.47537,-11.43706 -5.27099,-17.30476"
       id="path6671"
       inkscape:connector-curvature="0"
       sodipodi:nodetypes="cc" />
  </g>
</svg>
