<svg xmlns="http://www.w3.org/2000/svg" xmlns:xlink="http://www.w3.org/1999/xlink" version="1.1" x="0px" y="0px" viewBox="0 0 100 125" style="enable-background:new 0 0 100 100;" xml:space="preserve"><g><path d="M16,85h68c5.8,0,10.5-4.7,10.5-10.5v-49C94.5,19.7,89.8,15,84,15H16c-5.8,0-10.5,4.7-10.5,10.5v49C5.5,80.3,10.2,85,16,85z    M84,80H16c-3,0-5.5-2.5-5.5-5.5v-3l16.8-18.1l11.5,8.5c1,0.7,2.4,0.6,3.3-0.3l21-22.3l26.4,24.8v10.4C89.5,77.5,87,80,84,80z    M16,20h68c3,0,5.5,2.5,5.5,5.5v31.7L64.7,33.9c-1-0.9-2.6-0.9-3.5,0.1L40,56.5L28.5,48c-1-0.8-2.5-0.6-3.3,0.3L10.5,64.1V25.5   C10.5,22.5,13,20,16,20z"/><path d="M37.6,47.8c5.8,0,10.5-4.7,10.5-10.5s-4.7-10.5-10.5-10.5s-10.5,4.7-10.5,10.5S31.8,47.8,37.6,47.8z M37.6,31.8   c3,0,5.5,2.5,5.5,5.5s-2.5,5.5-5.5,5.5s-5.5-2.5-5.5-5.5S34.5,31.8,37.6,31.8z"/></g><text x="0" y="115" fill="#000000" font-size="5px" font-weight="bold" font-family="'Helvetica Neue', Helvetica, Arial-Unicode, Arial, Sans-serif">Created by Ananth</text><text x="0" y="120" fill="#000000" font-size="5px" font-weight="bold" font-family="'Helvetica Neue', Helvetica, Arial-Unicode, Arial, Sans-serif">from the Noun Project</text></svg>