<svg xmlns="http://www.w3.org/2000/svg" xmlns:xlink="http://www.w3.org/1999/xlink" version="1.0" x="0px" y="0px" viewBox="0 0 100 125" enable-background="new 0 0 100 100" xml:space="preserve"><path d="M71.9144363,87.969368c-0.3859253-1.5436859-1.1577682-3.9881668-2.0581284-5.402916  c-0.9007416-1.4146118-1.1577682-2.1870651-1.1577682-5.0169983c0-2.8299713-2.3155365-10.1629257-2.3155365-10.1629257  s-0.3218536,6.3677216-0.6433334,8.6832581s-1.0292511,5.7884674-0.5144424,7.6540146  c0.5144424,1.8655396,0.9648132,4.5025558,1.1577759,6.8180923c0.192955,2.3155365-0.1929626,4.2451477,0.192955,5.402916  c0,0,0.4499969-5.0814438,0.7074051-6.1747589c0.2574081-1.0933228-0.1285172-3.3447952-0.3859253-4.3096008  s-0.9007416-3.9877396-0.0644455-9.4546814c0.0414581-0.2696609,0.4503708,2.5725174,0.4503708,3.4728775  s0.4503632,2.5729446,1.2862778,3.5377502s1.608139,2.5084991,1.608139,2.5084991  c1.3507309,5.519043,4.3096008,8.1043777,3.7947845,7.4614716C73.4585037,92.343605,72.300354,89.5130615,71.9144363,87.969368z"/><path d="M31.2700558,67.386528c0,0-2.3155365,7.3329544-2.3155365,10.1629257c0,2.8299332-0.2570305,3.6023865-1.1577682,5.0169983  c-0.9007378,1.4147491-1.6725826,3.85923-2.058506,5.402916c-0.3859234,1.5436935-1.5436916,4.3742371-2.0581303,5.0169983  c-0.5144367,0.6429062,2.4440536-1.9424286,3.7947826-7.4614716c0,0,0.7722225-1.5436935,1.6085148-2.5084991  c0.8359146-0.9648056,1.2859058-2.6373901,1.2859058-3.5377502s0.4092903-3.7425385,0.4507465-3.4728775  c0.8359146,5.4669418,0.1925831,8.4898758-0.0648232,9.4546814c-0.2570305,0.9648056-0.6429539,3.2162781-0.3859234,4.3096008  c0.2574081,1.0933151,0.707777,6.1747589,0.707777,6.1747589c0.3859215-1.1577682,0-3.0873795,0.1929607-5.402916  s0.6429539-4.9525528,1.1577702-6.8180923c0.5148125-1.8655472-0.1929626-5.3384781-0.5148163-7.6540146  C31.5915337,73.7542496,31.2700558,67.386528,31.2700558,67.386528z"/><path d="M27.1609573,45.5694962c-1.7178078,0.9319725-3.1996918,2.1328926-4.1739197,3.1371307  c-1.0153084,1.3435211-1.1415634,2.1172523-1.2011089,2.1341667c0.008667,0.0095139-0.3825321,0.7994041-0.7405643,2.1795311  c-0.3923302,1.5493889-0.1515064,3.3214684-0.0957279,5.2065659c0.1820316,3.8636055,0.1198463,7.6555176-0.6659431,8.8566208  c-0.8664417,2.2925949-1.274601,3.9508133-0.8547592,6.0918579c0.5668259-2.1082535,1.3458309-3.1620102,2.2684288-5.5743561  c0.8547573-1.2492065,0.9855347-5.7868156,0.7654381-9.4407845c-0.0749989-1.8649788-0.2581615-3.7394295,0.0482407-4.7820129  c0.306778-1.1953163,0.6742344-1.9596214,0.66255-1.9547234c-0.0056534,0.0542717,0.3154469-0.8937645,0.9045067-1.6747971  c0.8796329-0.8988533,2.2145329-1.9854393,3.8158875-2.8535767c3.2298412-1.7888031,7.1184654-2.7789078,8.5129128-3.3724442  c2.8895226-1.2037926,2.569931-3.4318466,4.2477913-4.5654984c-2.3460655,0.5178299-2.7749519,2.5495338-4.8330803,3.17873  C34.7124557,42.6181221,30.5517273,43.6824226,27.1609573,45.5694962z"/><path d="M80.3410416,78.2775345c-1.0183258-2.9998932-1.5783615-5.94487-1.6710739-10.3290405  c-0.0572891-2.4265213-1.2595291-6.7536469-0.6844101-12.3395882c0.0090408-1.4483376,0.2257462-2.7730179-0.0972366-4.5888596  c-0.616951-1.7108383-1.6352692-2.9078026-2.7692947-4.1207352c-2.2706909-2.5532532-5.7341919-3.5398712-8.4688187-4.7897873  c-2.8906555-1.1138611-5.064106-3.2146263-7.4026337-4.9188194c-2.257122-1.6550102-3.660614-3.6987228-3.627449-5.7372093  c0.0380669-4.2398739,2.241291-6.3111935,2.1568718-6.3404026c-0.0320358-0.0260048,0.4959717-0.4944153,1.1193275-1.8589478  c0.5570259-1.5704498,0.3923302-3.1729813,0.8754845-5.4360847c0.2860527-2.1927223,0.5705948-5.1994057-1.0763626-7.9713411  c-1.6812515-2.7986469-4.8270493-4.2180152-7.843956-5.2580094c-3.095295-1.0006104-6.6300316-1.3430037-9.8489456-0.2307906  c-3.2901421,1.0700974-5.5427399,4.1103697-6.0786591,7.0822392c-0.4612999,3.0195446,0.1929626,5.5616312-0.4974785,7.3321085  c-0.1699715,0.4602146-0.3440895,0.8988533-0.5566483,1.3081894l-0.1339798,0.2767696l-0.0936546,0.0880489  c-0.1903229,0.1861782-0.3587875,0.3836136-0.5121765,0.5967865c-0.847599,0.7121086-0.457531,2.6683407,0.4138107,2.9029465  c1.1950798,0.9268837,1.4174385,2.8966351,1.1965866,4.5961647c-0.2849197,2.2578754,2.0343857,3.8187599,3.6666451,3.7691536  c0.8687019,0.0614319,1.7038651-0.0563431,2.481739-0.2920799l0.0231781-0.006546l0.1230507,0.3312263l0.3527565,1.1008148  c0.427002,1.4922447,0.7492332,3.0935059,0.682148,4.869873c0.3079109-1.7537537,0.1989937-3.4316635-0.0606766-5.0114861  c-0.0655746-0.3965225-0.1417046-0.7888527-0.2351723-1.1768494l-0.1477356-0.5820866l-0.0433388-0.1488667l-0.0113068-0.0374985  l-0.0015068-0.0045223c-0.1494331-0.3806934-0.5151939-0.267395-0.5151939-0.267395l-0.008667,0.0014591l-0.0173378,0.0031109  l-0.0685921,0.0118237l-0.273613,0.0473461c-0.7258644,0.1447201-1.4619064,0.1707249-2.1549873,0.0640221  c-1.385025-0.2230644-2.6407814-1.1119308-2.397316-2.6160965c0.168087-1.597208,0.4262466-4.1770782-1.7773552-5.9183006  c-0.2615547-0.2534504-0.343338-0.1285152,0.0030136-0.7614803c0.0927124-0.127573,0.2065277-0.2641926,0.3388138-0.3928967  l0.0987396-0.0920048c0.1032639-0.1238041-0.1594162,0.2119007,0.2280121-0.2731895l0.0399475-0.0822048l0.1624374-0.3340549  c0.2298927-0.4429741,0.4349136-0.9479904,0.6324005-1.4899864c0.8234749-2.3340034,0.1160774-5.0258532,0.5540085-7.5360479  c0.4786339-2.5073195,2.3102608-5.0252399,5.0961418-5.9297934c2.7557297-0.9621692,6.0044136-0.6937852,8.8799934,0.2445936  c2.8623848,0.9755478,5.7247696,2.3537893,7.0084152,4.5939512c1.3477173,2.232482,1.1645546,4.8660564,0.8777504,6.9878769  c-0.4379311,2.0984554-0.4141884,4.2443981-0.7767448,5.0769215c-0.4296417,0.9661255-0.9715919,1.5331841-0.9421959,1.5406761  c0.1756248-0.0691586-2.418045,2.3671684-2.4455605,7.2741165c-0.0655746,2.5609303,1.8549957,5.2086391,4.2033195,6.8765087  c2.259758,1.6500206,4.6329575,3.9046898,7.7120476,5.109005c2.9588699,1.3452148,6.007431,2.1921082,8.0056381,4.467411  c1.0190735,1.0481911,1.9910431,2.3317909,2.3935471,3.4661942c0.2148209,1.1479683,0.0753784,2.7841377,0.0444717,4.1230392  c-0.5743561,5.6452522,0.6565247,10.3711128,0.6991119,12.5323143c0.0832901,4.0928955,0.841568,7.7570877,2.1474457,10.613678  c1.6850204,2.6965637,2.0709457,5.6073761,2.5020905,9.1475296C81.8922729,84.3697662,81.8168945,81.1120377,80.3410416,78.2775345z  "/><text x="0" y="115" fill="#000000" font-size="5px" font-weight="bold" font-family="'Helvetica Neue', Helvetica, Arial-Unicode, Arial, Sans-serif">Created by Alexander Skowalsky</text><text x="0" y="120" fill="#000000" font-size="5px" font-weight="bold" font-family="'Helvetica Neue', Helvetica, Arial-Unicode, Arial, Sans-serif">from the Noun Project</text></svg>